<svg xmlns="http://www.w3.org/2000/svg" width="80" height="80" viewBox="0 0 80 80">
  <path fill="#AAA" fill-rule="evenodd" d="M66.0145208,26 C62.7380112,26 59.7287025,27.1243443 57.3430139,29.0100772 C54.9586909,27.1243443 51.9484717,26 48.6715069,26 C45.3954526,26 42.3838678,27.125254 40,29.0100772 C37.615677,27.1243443 34.6050026,26 31.3284931,26 C28.0524387,26 25.0403988,27.125254 22.6565309,29.0100772 C20.2712975,27.1243443 17.2615336,26 13.985024,26 C6.25987209,26 0,32.2548477 0,39.9737991 C0,47.6922957 6.25987209,53.9475983 13.985024,53.9475983 C17.2615336,53.9475983 20.2726631,52.8227991 22.6565309,50.937521 C25.0403988,52.8218894 28.0524387,53.9475983 31.3284931,53.9475983 C34.6050026,53.9475983 37.615677,52.8227991 40,50.937521 C42.3838678,52.8218894 45.3954526,53.9475983 48.6715069,53.9475983 C51.9484717,53.9475983 54.9586909,52.8227991 57.3430139,50.937521 C59.7268817,52.8227991 62.7380112,53.9475983 66.0145208,53.9475983 C73.7396727,53.9475983 80,47.6922957 80,39.9737991 C80,32.2548477 73.7396727,26 66.0145208,26 Z M20.3682545,48.6542651 C18.5861575,49.9537197 16.3602431,50.7464916 13.985024,50.7464916 C8.02603728,50.7464916 3.20367799,45.928003 3.20367799,39.9737991 C3.20367799,34.0191405 8.02603728,29.2006518 13.985024,29.2006518 C16.3602431,29.2006518 18.5847919,29.9938785 20.3682545,31.2928783 C18.471903,33.6784714 17.3430139,36.690368 17.3430139,39.9737991 C17.3430139,43.2440402 18.4851037,46.2732203 20.3682545,48.6542651 Z M22.6565309,46.3746478 C21.3291759,44.5830652 20.5466919,42.3730372 20.5466919,39.9737991 C20.5466919,37.5713773 21.3273551,35.3654428 22.6565309,33.5729504 C23.986162,35.3654428 24.7668252,37.5713773 24.7668252,39.9737991 C24.7668252,42.3730372 23.983886,44.5830652 22.6565309,46.3746478 Z M37.7117236,48.6542651 C35.9227986,49.9705485 33.7128161,50.7433078 31.3207547,50.7433078 C28.9296038,50.7433078 26.7337324,49.9696388 24.9448073,48.6542651 C26.8284134,46.2732203 27.9705032,43.2440402 27.9705032,39.9737991 C27.9705032,36.690368 26.8420693,33.6784714 24.9448073,31.2928783 C26.7337324,29.9779594 28.9296038,29.2038356 31.3207547,29.2038356 C33.7128161,29.2038356 35.9227986,29.9770498 37.7117236,31.2928783 C35.8149168,33.6784714 34.6864829,36.690368 34.6864829,39.9737991 C34.6864829,43.2440402 35.8281175,46.2732203 37.7117236,48.6542651 Z M40,46.3746478 C38.6726449,44.5830652 37.8901609,42.3730372 37.8901609,39.9737991 C37.8901609,37.5713773 38.6703689,35.3654428 40,33.5729504 C41.3296311,35.3654428 42.1098391,37.5713773 42.1098391,39.9737991 C42.1098391,42.3730372 41.3268999,44.5830652 40,46.3746478 Z M55.0547375,48.6542651 C53.2658124,49.9705485 51.0558299,50.7433078 48.6642238,50.7433078 C46.2726176,50.7433078 44.0767463,49.9696388 42.2878212,48.6542651 C44.1714273,46.2732203 45.3135171,43.2440402 45.3135171,39.9737991 C45.3135171,36.690368 44.1850832,33.6784714 42.2878212,31.2928783 C44.0767463,29.9779594 46.2726176,29.2038356 48.6642238,29.2038356 C51.0558299,29.2038356 53.2658124,29.9770498 55.0547375,31.2928783 C53.1579307,33.6784714 52.0294968,36.690368 52.0294968,39.9737991 C52.0294968,43.2440402 53.1715866,46.2732203 55.0547375,48.6542651 Z M57.3430139,46.3746478 C56.016114,44.5830652 55.2331748,42.3730372 55.2331748,39.9737991 C55.2331748,37.5713773 56.0133828,35.3654428 57.3430139,33.5729504 C58.6726449,35.3654428 59.4528529,37.5713773 59.4528529,39.9737991 C59.4528529,42.3730372 58.6703689,44.5830652 57.3430139,46.3746478 Z M66.0145208,50.7464916 C63.6397569,50.7464916 61.4133874,49.9537197 59.6312903,48.6542651 C61.5144411,46.2732203 62.6565309,43.2440402 62.6565309,39.9737991 C62.6565309,36.690368 61.528097,33.6784714 59.6312903,31.2928783 C61.4152081,29.9938785 63.6397569,29.2006518 66.0145208,29.2006518 C71.9739627,29.2006518 76.796322,34.0191405 76.796322,39.9737991 C76.796322,45.928003 71.9739627,50.7464916 66.0145208,50.7464916 L66.0145208,50.7464916 Z"/>
<deepl-alert xmlns=""/><deepl-alert xmlns=""/><deepl-alert xmlns=""/><deepl-alert xmlns=""/></svg>