<svg xmlns="http://www.w3.org/2000/svg" width="80" height="80" viewBox="0 0 80 80">
  <path fill="#AAA" fill-rule="evenodd" d="M40.1667753,7.00027749 C42.6313907,7.00638233 49.6718335,7.11321707 52.7334304,7.32078316 C56.3155074,7.4811742 61.9292127,7.90888508 65.0835772,8.44352368 C71.3388472,9.51280142 78.5030092,11.758283 79.5722864,22.4510561 C79.8396068,25.3381034 79.9465329,29.1340386 80,33.2507542 C79.8930659,40.040667 79.3049682,44.6385579 78.9841818,47.7929267 C78.7703296,49.9314811 77.8614456,56.5075332 76.6852343,59.875758 C75.0813185,64.5271122 73.6377959,65.8637087 71.9269539,67.253768 C68.8260485,69.8200349 63.6935227,70.5685257 62.6242455,70.782386 C56.850147,71.8516632 45.1415569,72.0120564 40.0090312,72.0120564 C34.8230383,72.0120564 23.1679153,71.7981961 17.3938168,70.782386 C16.3245396,70.5685257 11.1920096,69.7665678 8.0911041,67.253768 C6.38026218,65.8637087 4.93673529,64.5271122 3.33281949,59.875758 C2.15661618,56.5075332 1.2477327,49.9849439 1.03387619,47.7929267 C0.713093564,44.5850951 0.124987897,40.040667 0.0180617811,33.2507542 C-0.0354015442,29.1875013 0.0180617811,25.3915684 0.338843871,22.4510561 C1.40812107,11.758283 8.57227884,9.51280142 14.8275488,8.44352368 C17.9819171,7.90888508 23.5956224,7.4811742 27.1777037,7.32078316 C30.3320682,7.10692772 37.7100825,7 39.955563,7 Z M52.0383996,9.8870479 C48.6701749,9.673193 43.0564696,9.51280195 39.9555641,9.56626474 C36.8011996,9.56626474 31.2409533,9.67319246 27.8192695,9.8870479 C23.5956235,10.1009028 19.1046587,10.5286148 15.789901,11.1167172 C8.67920602,12.3463855 5.36444831,15.7146086 4.56248613,22.4510561 C3.97438047,26.9420187 3.92091714,35.2823824 4.29516683,40.4149119 C4.88326822,48.9691295 5.68522612,54.101659 6.75450332,57.7906664 C7.71685013,60.998498 8.89305772,63.1905152 10.6038996,64.7409682 C13.4909491,67.3606979 17.4472753,67.8953365 19.7996862,68.2695819 C24.8252858,69.018077 33.2725816,69.2853963 39.9555641,69.2853963 C46.5850795,69.2853963 55.08583,69.018077 60.1114377,68.2695819 C62.4638443,67.895337 66.4201748,67.3606984 69.30722,64.7409682 C71.0180619,63.1905152 72.1942652,61.0519608 73.1566163,57.7906664 C74.2258935,54.101659 74.9743924,48.9691295 75.6159571,40.4149119 C75.9902105,35.2289197 75.9367434,26.8885559 75.3486378,22.4510561 C74.4932208,15.7680725 71.1784631,12.3998499 64.0677681,11.1167172 C60.7530104,10.5286148 56.2620414,10.1009033 52.0383996,9.8870479 Z M58.3471357,12.5067765 C58.3471357,12.5067765 60.1649037,12.5602409 60.9668696,12.6137048 C62.0361468,12.6671686 62.9450308,12.7740958 63.8539148,12.8810241 C63.8539148,12.8810241 62.7846376,29.7756033 62.3034661,36.8862982 C61.8222865,44.4247014 60.9134025,57.0421713 60.1114446,66.6122033 C60.1114446,66.6122033 58.5609959,66.8260598 55.994729,66.9864487 C53.7034207,67.1239286 52.5119416,67.1435686 52.2182804,67.1463743 L52.1453327,67.1468419 C51.0760555,62.9231959 49.6859919,57.0956346 48.1355432,54.5828348 C46.9511086,52.7074856 45.2200222,52.3810107 44.0776409,52.215727 L43.8049674,52.1769611 C42.0941254,51.9096418 40.6506028,51.9096418 39.955571,51.9096418 L39.955571,51.9096418 L39.8336045,51.9102186 C39.1371499,51.9164866 37.7163789,51.9756844 36.1061747,52.1769611 C34.9834305,52.3373543 33.0587283,52.5512065 31.7755989,54.5828348 C30.2251501,57.0956346 28.8885536,62.9231959 27.7658094,67.1468419 C27.7658094,67.1468419 26.5361433,67.1468419 23.8629503,66.9864487 C21.2966834,66.8795226 19.7462304,66.6122033 19.7462304,66.6122033 C18.9442725,57.0421718 18.035389,44.3712386 17.5542132,36.8862982 C17.0730374,29.7221399 16.0037602,12.8810241 16.0037602,12.8810241 C16.9126485,12.7740958 17.7680697,12.6671686 18.8908097,12.6137048 C19.6927676,12.5602404 21.5105399,12.5067765 21.5105399,12.5067765 C23.2300537,20.2445865 23.9927603,24.0116602 25.337311,29.4195243 L25.5737922,30.3637068 C26.9638515,36.030877 28.0865957,41.3237959 30.0112899,43.8900628 C31.935992,46.5097925 34.555718,47.0444311 36.320027,47.2582876 C37.228911,47.3652137 37.9239428,47.4186765 39.902104,47.4186765 L40.2040003,47.4182322 C41.9540188,47.4129008 42.623133,47.359586 43.484181,47.2582876 C45.24849,47.0444316 47.8682239,46.509793 49.7929181,43.8900628 C51.7176202,41.3237959 52.8403565,36.030877 54.2838871,30.3637068 C55.7808688,24.4826822 56.5293676,20.6867465 58.3471357,12.5067765 Z"/>
<deepl-alert xmlns=""/><deepl-alert xmlns=""/><deepl-alert xmlns=""/><deepl-alert xmlns=""/></svg>