<svg xmlns="http://www.w3.org/2000/svg" width="80" height="80" viewBox="0 0 80 80">
  <path fill="#AAA" fill-rule="evenodd" d="M75.0618361,42.6629142 C73.3748216,46.5276677 67.6835262,50.8863168 55.7396544,53.838592 C53.9123196,54.2571746 53.280482,53.1346123 54.4743935,52.0802283 C56.4420485,50.8863168 65.9275408,35.0079277 67.1230379,31.8431901 C67.8246393,30.2251467 69.1596639,30.8601554 70.0039638,31.4912003 C73.7981608,33.9503726 76.6790867,37.9554463 75.0618361,42.6629142 Z M41.4753449,55.9449818 C34.8707785,56.6465832 20.1863009,54.4696369 19.9040748,52.574124 C20.1863009,48.0038053 43.232123,40.4154114 47.377517,44.631362 C49.1342952,47.9340415 45.7610591,55.734105 41.4753449,55.9449818 Z M9.29443476,47.7929285 C5.85064214,45.3369272 -0.89503726,38.3090217 10.279055,31.0012684 C16.1812272,27.5590614 19.483114,26.7837324 23.5571587,25.9418107 C25.5256065,25.5184715 26.9311876,26.0115744 25.1736166,27.4877121 C21.4499762,31.3532583 13.7204693,44.1382591 13.0188679,46.9510068 C12.4560013,48.8504836 11.3318535,49.3388299 9.29443476,47.7929285 Z M36.2058031,24.3943238 C40.7721579,22.7810369 54.334866,24.3943238 59.6044078,26.9248454 C61.2906295,28.5420961 52.0849849,33.7379103 41.1257333,35.9901697 C25.4558427,39.1501506 32.9031235,27.0643729 36.2058031,24.3943238 Z M40.0007928,20 C17.9094657,20 0,28.8425559 0,39.7471064 C0,50.6524497 17.9094657,59.4950055 40.0007928,59.4950055 C62.0905343,59.4950055 80,50.6524497 80,39.7471064 C80,28.8425559 62.0905343,20 40.0007928,20 L40.0007928,20 Z"/>
<deepl-alert xmlns=""/><deepl-alert xmlns=""/><deepl-alert xmlns=""/><deepl-alert xmlns=""/></svg>