<svg xmlns="http://www.w3.org/2000/svg" xmlns:xlink="http://www.w3.org/1999/xlink" width="80px" height="80px" viewBox="0 0 80 80" version="1.1">
    <title>Component/Brand logo/Jaguar</title>
    <g id="Component/Brand-logo/Jaguar" stroke="none" stroke-width="1" fill="none" fill-rule="evenodd">
        <path d="M78.9393963,50.4332254 C75.6326375,53.4907534 72.4326919,52.4593384 72.4326919,52.4593384 C72.6813664,53.1347094 72.8949928,53.6676627 71.9881932,54.7524843 L71.9881932,54.7524843 L71.9789917,54.7628404 C71.9759156,54.7662006 71.9720638,54.7703321 71.9674297,54.7751658 L71.9301833,54.8120461 C71.6263648,55.0993919 70.112299,56.2455934 66.9924506,54.1666807 C66.9924506,54.1666807 70.2992094,54.9127042 71.1414761,53.4212135 C71.1414761,53.4212135 71.816847,52.3547504 70.8215928,51.7505882 C70.8215928,51.7505882 70.3592919,51.3594961 69.0441543,50.8971952 C69.0441543,50.8971952 70.4249375,51.0034521 71.5097591,51.5013574 C75.383963,53.277127 78.9393963,50.4332254 78.9393963,50.4332254 Z M26.7205346,34.1019315 C29.1754791,35.8506519 32.5852073,36.7725237 32.9466536,36.867076 L32.9780082,36.8751805 C30.7026644,37.4086903 28.2136942,36.4128796 28.2136942,36.4128796 C28.8540171,37.6929691 28.5335775,39.2217331 28.5335775,39.2217331 C30.0367508,40.0489792 31.6150272,40.6147553 32.9835714,40.99639 C32.9835714,40.99639 32.984359,40.9965823 32.9859499,40.9969574 L33.0052602,41.0013251 C33.2485944,41.0547304 35.5783996,41.5174613 41.9508737,41.1988901 C42.1016361,41.1916579 42.2562927,41.1972211 42.4131746,41.1994464 C42.4131746,41.1994464 42.4222314,41.1989222 42.439403,41.1985159 L42.5143194,41.1982925 C42.9362824,41.2044211 44.5703933,41.3389711 45.3466435,43.0124893 C45.3466435,43.0124893 47.1418841,49.1993103 54.0040762,49.261618 L54.0040762,49.261618 L57.6062403,49.2816455 C57.6062403,49.2816455 61.1661241,49.2966661 63.3708154,51.2526829 C63.3708154,51.2526829 65.1132058,52.9238645 65.9660425,53.5636311 L65.9660425,53.5636311 L65.9385154,53.5436238 C65.575204,53.2812331 61.6902824,50.5261306 58.7439122,50.5261306 L58.7439122,50.5261306 L55.3197701,50.5066595 C49.5671654,50.6540264 46.0625225,45.9208947 44.8585725,43.9560492 L44.7145873,43.7160929 C44.5618366,43.4559263 44.462416,43.2675656 44.4165111,43.1779642 L44.3902744,43.1259776 L44.3902744,43.1259776 C44.3869936,43.1193025 44.0598781,42.1479699 41.9864781,41.839213 C41.9864781,41.839213 41.4218145,41.6645289 40.2802484,41.7173792 C35.6572394,41.9332308 32.8472733,41.696239 32.8472733,41.696239 C30.9974236,41.484479 29.4875015,41.0633903 28.6488594,40.7912159 L28.4177365,40.7143893 C28.1022539,40.6069252 27.9294153,40.5368707 27.9294153,40.5368707 C27.0398616,41.6038901 24.6226565,41.7463077 24.6226565,41.7463077 C22.3829171,41.7463077 18.4714398,39.9688692 18.4714398,39.9688692 C16.0542347,39.0798718 15.2008417,39.4348032 15.2008417,39.4348032 C14.8804021,39.506012 14.9516109,39.862056 14.9516109,39.862056 C15.1296329,40.5368707 14.48931,40.9991716 14.48931,40.9991716 C14.7735889,40.2887525 14.3118443,39.9688692 14.3118443,39.9688692 C13.9207522,39.7902909 13.9207522,39.3997551 13.9207522,39.3997551 C13.9207522,38.5814102 15.520725,38.5107577 15.520725,38.5107577 C17.5117899,38.5107577 20.0719689,39.506012 20.0719689,39.506012 C24.8712255,41.0784279 26.3538034,39.9329354 26.7773032,39.3404441 L26.827692,39.2650094 C26.9092922,39.1337734 26.9336047,39.0442674 26.9336047,39.0442674 C27.9644634,37.6929691 26.7205346,34.1019315 26.7205346,34.1019315 Z M56.0669062,44.4260953 L56.0982804,44.4386685 C56.3460729,44.5365361 58.0230086,45.1726751 59.7463986,45.1726751 L59.7463986,45.1726751 L61.1947435,45.1727363 C61.3536366,45.1744512 63.6744504,45.2241825 64.6525739,46.666391 C64.6525739,46.666391 66.1991401,49.3862335 68.3326226,50.6129163 C68.3326226,50.6129163 64.9796893,49.3395027 63.6395174,46.9857179 C63.6395174,46.9857179 63.3196341,46.2396945 61.7725116,46.1328813 L61.7725116,46.1328813 L59.6729645,45.9926889 C59.6729645,45.9926889 57.4727238,45.8858757 56.0669062,44.4260953 L56.0669062,44.4260953 Z M10.5605869,25 C22.6666397,25 39.0930641,32.5998708 39.0930641,32.5998708 C47.7065477,36.3327697 54.1331422,39.6662318 54.1331422,39.6662318 C54.5926516,39.8972035 55.0587468,40.1358209 55.5265887,40.3788776 L56.0885277,40.6724712 C56.2759137,40.7709092 56.4632694,40.8698523 56.6502852,40.9690952 L57.210003,41.2675181 C61.3955914,43.5093575 65.2522855,45.79909 65.2522855,45.79909 C65.2522855,45.79909 68.2970182,47.6889049 71.7812426,49.0746949 C71.7812426,49.0746949 74.4087362,49.9814945 76.2968821,49.0040425 L76.2968821,49.0040425 L76.506058,48.868857 C77.2203713,48.4538432 78.3380157,47.8307662 78.6757012,47.7923802 C78.6757012,47.7923802 79.9763745,47.6950244 79.9986273,48.8833213 C79.9986273,48.8833213 79.9988619,48.8847903 79.9991373,48.887714 L79.9997237,48.9225964 C79.9953219,49.0354962 79.9321819,49.3893627 79.383895,49.952566 C79.383895,49.952566 79.6058662,49.1525796 78.8325831,48.8593996 C78.8325831,48.8593996 78.4743138,48.6040493 76.9105017,49.415162 L76.9105017,49.415162 L76.7947874,49.465787 C76.7947874,49.465787 74.377026,50.8526897 71.4613593,49.5375522 C71.4613593,49.5375522 68.2703149,48.2480052 65.0125121,46.2263428 L65.0125121,46.2263428 L64.9720859,46.202924 C64.7737674,46.0880494 63.8746495,45.5673657 62.9181536,45.01543 L62.5340203,44.7938768 C61.7657339,44.3509882 61.0156309,43.9200605 60.6131433,43.6928671 C60.3181057,43.5264524 60.0214256,43.3606906 59.7240328,43.1959458 L59.1285722,42.8679196 L59.1285722,42.8679196 L58.5328642,42.5432519 C53.3737637,39.7458875 48.3730176,37.3997892 48.3730176,37.3997892 C49.2264106,38.1463689 51.0934164,40.3866646 51.0934164,40.3866646 C51.186719,40.4856894 51.281384,40.5852591 51.3767408,40.6847907 L51.6642157,40.982688 C51.9043897,41.2298687 52.1446955,41.473167 52.3746539,41.7034721 L52.6449667,41.9730185 C53.3049784,42.6283773 53.8341391,43.1339999 53.9495124,43.2438992 L53.9729224,43.2661706 C52.3619767,42.3393819 50.9335406,41.1020602 50.4888642,40.7029477 L50.3986538,40.621297 C50.3642598,40.5898679 50.3462803,40.5730314 50.3462803,40.5730314 C49.6983914,39.8530437 48.7156933,38.9816482 48.5256325,38.814569 L48.4931825,38.7861355 C46.8270077,37.4526394 44.7129964,36.5931269 44.7129964,36.5931269 C42.6468285,35.6863273 40.5061138,36.2732436 40.5061138,36.2732436 C40.3931811,36.2932711 40.3798295,36.2465403 40.3798295,36.2465403 C40.3536825,36.1992532 40.408758,36.1642052 40.408758,36.1642052 C41.7600563,35.471032 44.3024331,35.5594866 44.3024331,35.5594866 C44.0111361,35.428281 43.6658596,35.2828547 43.3070302,35.1367583 L42.9451804,34.9909405 C41.8550618,34.5558283 40.7642457,34.1553381 40.7642457,34.1553381 L40.7642457,34.1553381 L34.2402955,31.8265877 C28.2136942,29.6218964 25.6179108,29.1951999 25.6179108,29.1951999 C25.0022143,29.0722534 24.8795892,29.189157 24.8578349,29.222517 C24.78232,29.3198153 24.9074917,29.4438744 24.9074917,29.4438744 C25.5294561,30.4752894 25.6713174,31.1868211 25.6713174,31.1868211 C21.5829307,26.9198561 14.3118443,26.5465662 14.3118443,26.5465662 C12.9065831,26.528764 11.8579222,27.7370884 11.8579222,27.7370884 C11.6810129,27.9156667 11.8762808,28.0397258 11.8762808,28.0397258 C14.2945985,29.8883731 15.0406219,31.5245066 15.0406219,31.5245066 C12.2139662,28.82191 9.97367055,28.5910377 9.97367055,28.5910377 C7.98784273,28.2269175 7.88175188,27.524271 7.87656373,27.4290861 L7.87634877,27.4183177 C10.1637798,28.2529139 12.0913595,26.4364902 12.3166036,26.213252 L12.3385817,26.1910785 C9.26567905,25.8074883 6.85160397,26.1602925 6.57027587,26.2044656 L6.54285267,26.2088807 C3.46752249,26.6711816 2.62803746,27.7064908 2.62803746,27.7064908 C2.44111435,27.879506 2.56072289,28.0269304 2.56072289,28.0269304 L2.56072289,28.0269304 L2.8277559,28.3067588 C2.8277559,28.3067588 3.20104579,27.204135 4.32091549,27.1329262 C4.32091549,27.1329262 4.90727547,27.1156803 5.52923986,27.4706117 C5.52923986,27.4706117 5.37402692,28.4363811 3.5331681,29.0844924 L3.5331681,29.0844924 L3.54095656,29.0928372 C3.40132055,29.139568 3.27503619,29.1696092 3.27503619,29.1696092 L3.27503619,29.1696092 L3.12928067,29.2130021 C3.12928067,29.2130021 1.70732989,29.4794788 1.03195889,30.5643004 C1.03195889,30.5643004 0.863950625,30.8697194 1.07980231,31.1412029 C1.09704819,31.1623431 1.11596303,31.1829269 1.1387721,31.204067 C1.1387721,31.204067 1.56491228,31.7370204 2.13402639,31.7019723 C2.13402639,31.7019723 2.59632729,31.8265877 3.11203479,30.9731947 C3.11203479,30.9731947 3.80465166,29.7287096 4.07168467,29.4088263 C4.07168467,29.4088263 4.37376577,28.9821298 5.06749528,28.9821298 C5.06749528,28.9821298 6.57845707,29.0177342 6.80988568,30.8135312 L6.80988568,30.8135312 L6.80906013,30.8350258 C6.7990583,31.0259352 6.66946315,32.4540002 5.01408868,33.7291979 C5.01408868,33.7291979 4.74761199,33.9600702 4.46333309,34.1375359 C4.46333309,34.1375359 4.28531108,34.2793971 4.39212429,34.439617 C4.39212429,34.439617 4.51618338,34.70665 4.97848428,34.70665 C4.97848428,34.70665 4.98264906,34.7072189 4.99074542,34.7076046 L5.02659598,34.7074606 C5.22317457,34.6983045 5.9976219,34.5430347 6.89444613,32.7728859 C6.89444613,32.7728859 9.5069191,32.5197609 9.5069191,30.7729199 C9.5069191,30.7729199 9.56088202,29.8260654 9.05407561,29.1328922 C9.05407561,29.1328922 10.0804838,29.2130021 10.9872834,30.8797331 C10.9872834,30.8797331 11.2671117,31.6129613 11.9741929,31.7331261 C11.9741929,31.7331261 14.8136439,31.9728995 17.5067831,35.5594866 L17.504,35.557 C17.3256585,35.4166676 13.8003435,32.6676499 10.7909925,32.7229543 L10.5605869,32.732831 C10.5605869,32.732831 8.12112903,32.8796991 6.40043506,34.7327969 C6.40043506,34.7327969 5.73396517,35.4932847 4.93397877,35.4665814 C4.02773549,35.4665814 3.76070248,34.3461554 3.76070248,34.3461554 C3.61439064,33.9600702 3.90701432,33.6930372 3.90701432,33.6930372 C4.04108714,33.5061141 3.92092229,33.3592459 3.92092229,33.3592459 C3.85416403,33.2936003 3.85416403,33.1595275 3.85416403,33.1595275 L3.85416403,33.1595275 L3.84025607,32.9331057 C3.84025607,32.8529958 3.93371762,32.8529958 3.93371762,32.8529958 L3.93371762,32.8529958 L4.24080558,32.8930508 C4.48057897,33.1194725 4.70700071,33.0532706 4.70700071,33.0532706 C5.17375217,33.0532706 5.60100498,32.2532842 5.60100498,32.2532842 C6.12060672,31.1996164 5.10755023,30.3200764 5.10755023,30.3200764 C4.57404053,29.9328786 4.12119705,30.3595751 4.12119705,30.3595751 C3.70729588,30.8396782 3.60048267,31.5061481 3.60048267,31.5061481 C3.49366947,31.9066976 3.74735083,32.2399325 3.74735083,32.2399325 C3.80075743,32.399596 3.82746073,32.6393694 3.82746073,32.6393694 C3.8146654,32.7200356 3.72064753,32.732831 3.72064753,32.732831 L3.72064753,32.732831 L3.2811557,32.732831 C2.98741938,32.6265741 2.74764599,32.4129477 2.74764599,32.4129477 C2.61412949,32.3328378 2.34765279,32.3461894 2.34765279,32.3461894 C1.40469247,32.4190672 0.768820114,31.6257566 0.658112678,31.4766632 L0.658112678,31.4766632 C0.413888737,31.1595615 0.147412044,30.732865 0.147412044,30.732865 C-0.225877853,30.1331533 0.227521947,29.6931052 0.227521947,29.6931052 C0.987453393,28.8130089 1.9209563,28.1999456 1.9209563,28.1999456 C2.00050988,28.1331873 1.97380658,28.0269304 1.97380658,28.0269304 C1.9209563,27.7064908 2.16072969,27.3332009 2.16072969,27.3332009 C4.06400052,25.1707783 9.29827565,25.010262 10.3680978,25.0002848 Z M18.6494618,31.968449 C18.6494618,31.968449 18.2939741,34.8841157 20.107017,35.9861831 C20.107017,35.9861831 20.1078393,35.9868497 20.10951,35.988165 L20.1299241,36.0037 C20.3211691,36.1457552 21.7453619,37.127332 25.724724,38.0484568 C25.724724,38.0484568 20.0363645,37.0170418 16.3735617,37.0170418 C16.3735617,37.0170418 16.3712543,37.0169651 16.366741,37.0168564 L16.213194,37.0168765 C15.4328083,37.0301976 12.0533971,37.2555473 11.6448521,40.1463349 C11.6448521,40.1463349 11.6098041,42.0311429 13.7432866,41.6038901 C13.7432866,41.6038901 12.2490143,43.0263972 10.9694812,40.9991716 C10.9694812,40.9991716 10.1511362,38.9725023 12.3914319,37.2306682 C12.3914319,37.2306682 13.7071258,35.9505787 18.2939741,36.0929964 L18.2939741,36.0929964 L18.2669672,36.0560045 C18.0847905,35.795181 17.0889718,34.1789737 18.6494618,31.968449 Z M2.54792755,28.6132904 C2.54792755,28.6132904 2.50731628,28.439719 2.20078464,28.5598838 C2.20078464,28.5598838 1.30789301,29.1462438 0.654218447,29.8661203 C0.654218447,29.8661203 0.507350291,30.0396918 0.654218447,30.1732083 C0.654218447,30.1732083 0.73432835,30.2399665 0.854493206,30.1070063 C0.854493206,30.1070063 1.5476664,29.3198153 2.38715143,28.8130089 C2.38715143,28.8130089 2.56072289,28.7601586 2.54792755,28.6132904 Z M4.58739218,27.7554469 C3.53873129,27.5062161 3.34290708,28.3596091 3.34290708,28.3596091 C4.14289348,28.4486201 4.58739218,27.7554469 4.58739218,27.7554469 Z M11.1653054,26.4575552 C10.2407036,27.0622737 8.39205627,27.1156803 8.39205627,27.1156803 C7.94755757,27.1156803 7.87634877,26.8664495 7.87634877,26.8664495 C7.87634877,26.7245882 8.08997518,26.6889838 8.08997518,26.6889838 C9.08522947,26.7062297 11.1653054,26.4575552 11.1653054,26.4575552 Z" id="Combined-Shape" fill="#AAAAAA"/>
    </g>
<deepl-alert xmlns=""/><deepl-alert xmlns=""/><deepl-alert xmlns=""/><deepl-alert xmlns=""/></svg>