<svg xmlns="http://www.w3.org/2000/svg" width="80" height="80" viewBox="0 0 80 80">
  <path fill="#AAA" fill-rule="evenodd" d="M72.6392155,30.7795185 C77.6753786,30.7795185 80,36.2030447 80,41.0461903 C80,45.5980388 78.4501049,51.1185165 72.5422641,51.1185165 C70.5080544,51.1185165 68.6681903,50.1503301 67.6991185,48.5030408 L67.6991185,48.5030408 L67.6030524,48.5030408 L67.6030524,56.8328971 L60.9200427,56.8328971 L60.9200427,31.263833 L67.4091495,31.263833 L67.4091495,33.3945515 C68.2808272,32.1355107 69.3459651,30.7795185 72.6392155,30.7795185 Z M78.3531534,51.796734 C79.2252738,51.796734 80,52.4745087 80,53.4426952 C80,54.3143728 79.2252738,55.089099 78.3531534,55.089099 C77.3845243,55.089099 76.6097981,54.3143728 76.6097981,53.4426952 C76.6097981,52.4745087 77.3845243,51.796734 78.3531534,51.796734 Z M78.3531534,51.9901942 C77.5784272,51.9901942 76.9971612,52.5714602 76.9971612,53.4426952 C76.9971612,54.2174214 77.5784272,54.7986874 78.3531534,54.7986874 C79.1283223,54.7986874 79.7091456,54.2174214 79.7091456,53.4426952 C79.7091456,52.5714602 79.1283223,51.9901942 78.3531534,51.9901942 Z M78.4501049,52.4745087 C78.9344194,52.4745087 79.1283223,52.6679689 79.1283223,52.9588233 C79.1283223,53.3461864 78.9344194,53.5396466 78.6440078,53.5396466 L78.6440078,53.5396466 L79.2252738,54.4113243 L78.8379107,54.4113243 L78.3531534,53.5396466 L77.9657903,53.5396466 L77.9657903,54.4113243 L77.6753786,54.4113243 L77.6753786,52.4745087 Z M78.4501049,52.6679689 L77.9657903,52.6679689 L77.9657903,53.3461864 L78.3531534,53.3461864 C78.5470563,53.3461864 78.8379107,53.249235 78.8379107,52.9588233 C78.8379107,52.7649204 78.6440078,52.6679689 78.4501049,52.6679689 L78.4501049,52.6679689 Z M20.0481437,24 L20.0481437,41.0461903 C20.0481437,48.4069747 16.6583845,51.215468 9.87886602,51.215468 C3.00239612,51.215468 -4.80326889e-12,47.4379029 -4.80326889e-12,41.6274563 L-4.80326889e-12,37.9468427 L7.45773592,37.9468427 L7.45773592,40.9496815 C7.45773592,42.9830058 7.45773592,44.9198214 9.68540582,44.9198214 C11.5578554,44.9198214 11.7099464,42.9006566 11.7193063,41.6224987 L11.7191728,24 L20.0481437,24 Z M30.3148155,30.7795185 C37.2882369,30.7795185 40.3871418,35.0409553 40.3871418,42.5956427 L40.3871418,42.5956427 L27.4093709,42.5956427 C27.6028311,44.8233126 28.7649204,46.3727651 30.8960815,46.3727651 C31.9612194,46.3727651 33.1233087,45.8884505 33.7045748,45.0167728 L33.7045748,45.0167728 L39.9997786,45.0167728 C38.6442291,49.181701 34.9636155,51.1185165 30.8960815,51.1185165 C25.2782097,51.1185165 21.0167728,47.4379029 21.0167728,40.9496815 C21.0167728,35.3318097 24.6973864,30.7795185 30.3148155,30.7795185 Z M50.169499,30.7795185 C57.1429204,30.7795185 60.242268,35.0409553 60.242268,42.5956427 L60.242268,42.5956427 L47.2636117,42.5956427 C47.4575146,44.8233126 48.6200466,46.3727651 50.7503223,46.3727651 C51.8159029,46.3727651 52.9784349,45.8884505 53.5588156,45.0167728 L53.5588156,45.0167728 L59.8544621,45.0167728 C58.4984699,49.181701 54.7213476,51.1185165 50.7503223,51.1185165 C45.1328932,51.1185165 40.8714563,47.4379029 40.8714563,40.9496815 C40.8714563,35.3318097 44.5516272,30.7795185 50.169499,30.7795185 Z M70.3145942,36.2030447 C67.8934641,36.2030447 67.4091495,38.6246175 67.4091495,40.9496815 C67.4091495,43.1769087 67.8934641,45.6945476 70.3145942,45.6945476 C72.7357243,45.6945476 73.3169903,43.1769087 73.3169903,40.9496815 C73.3169903,38.6246175 72.7357243,36.2030447 70.3145942,36.2030447 Z M30.8960815,35.5252699 C28.9588233,35.5252699 27.7962913,36.6878019 27.5058796,38.7215689 L27.5058796,38.7215689 L33.898035,38.7215689 C33.898035,36.9782136 32.6389942,35.5252699 30.8960815,35.5252699 Z M50.7503223,35.5252699 C48.8130641,35.5252699 47.6509748,36.6878019 47.3605631,38.7215689 L47.3605631,38.7215689 L53.7531612,38.7215689 C53.7531612,36.9782136 52.4936777,35.5252699 50.7503223,35.5252699 Z"/>
<deepl-alert xmlns=""/><deepl-alert xmlns=""/><deepl-alert xmlns=""/><deepl-alert xmlns=""/></svg>