<svg xmlns="http://www.w3.org/2000/svg" xmlns:xlink="http://www.w3.org/1999/xlink" width="80px" height="80px" viewBox="0 0 80 80" version="1.1">
    <title>Component/Brand logo/Kia</title>
    <g id="Component/Brand-logo/Kia" stroke="none" stroke-width="1" fill="none" fill-rule="evenodd">
        <path d="M46.4168537,47.6879641 C46.4168537,47.839924 46.4582974,47.9228113 46.5549991,47.9228113 C46.6240718,47.9228113 46.67933,47.8951822 46.7484027,47.8537386 L71.6698325,31.6492834 C72.1118978,31.359178 72.5125194,31.2072181 73.1065446,31.2072181 L78.5909169,31.2072181 C79.4336039,31.2072181 80,31.7736142 80,32.6163012 L80,43.0739078 C80,44.3310309 79.7237092,45.0632015 78.5909169,45.740114 L71.9461233,49.732516 C71.8632361,49.7877741 71.7803488,49.8154032 71.7250907,49.8154032 C71.6422034,49.8154032 71.5731307,49.7601451 71.5731307,49.5252979 L71.5731307,37.3132447 C71.5731307,37.1750993 71.5316871,37.0783975 71.4349853,37.0783975 C71.3659126,37.0783975 71.3106545,37.1060266 71.2415818,37.1474702 L53.0202038,48.9865308 C52.5090658,49.3180798 52.0946296,49.4147816 51.6249352,49.4147816 L39.5372129,49.4147816 C38.694526,49.4147816 38.1281299,48.8483854 38.1281299,48.0056985 L38.1281299,32.9478501 C38.1281299,32.8373338 38.0728717,32.740632 37.9899845,32.740632 C37.9209118,32.740632 37.8656536,32.7682611 37.7965809,32.8097047 L25.7779313,40.034709 C25.6536004,40.1037817 25.6259713,40.1728544 25.6259713,40.2281126 C25.6259713,40.2833707 25.6397859,40.3248144 25.7364877,40.4077016 L34.3153169,48.9865308 C34.4258332,49.0970471 34.5087204,49.1937489 34.5087204,49.2766362 C34.5087204,49.3733379 34.3843896,49.4285961 34.2324296,49.4285961 L26.4686583,49.4285961 C25.8608185,49.4285961 25.3911242,49.3318943 25.0595752,49.0003454 L19.8514937,43.7922639 C19.7962355,43.7370057 19.7547919,43.7093766 19.6995338,43.7093766 C19.6580901,43.7093766 19.5890174,43.7370057 19.5337593,43.7646348 L10.8305992,49.0003454 C10.3056467,49.3180798 9.94646866,49.4147816 9.42151615,49.4147816 L1.40908306,49.4147816 C0.566396132,49.4147816 0,48.8483854 0,48.0056985 L0,37.7414954 C0,36.4705578 0.276290796,35.7522017 1.40908306,35.0752892 L8.09532032,31.0552582 C8.16439302,31.0138145 8.21965118,31 8.27490934,31 C8.37161112,31 8.42686928,31.1105163 8.42686928,31.331549 L8.42686928,45.0632015 C8.42686928,45.2013469 8.4683129,45.2704196 8.56501468,45.2704196 C8.62027284,45.2704196 8.68934554,45.228976 8.75841824,45.1875324 L31.3451908,31.6078398 C31.8839579,31.2901053 32.2155068,31.1934036 32.8371611,31.1934036 L44.9939561,31.1934036 C45.8366431,31.1934036 46.4030392,31.7597997 46.4030392,32.6024866 L46.4168537,47.6879641 L46.4168537,47.6879641 Z" id="Path" fill="#AAAAAA"/>
    </g>
<deepl-alert xmlns=""/><deepl-alert xmlns=""/><deepl-alert xmlns=""/><deepl-alert xmlns=""/></svg>