<svg xmlns="http://www.w3.org/2000/svg" width="80" height="80" viewBox="0 0 80 80"><path fill="#AAA" fill-rule="evenodd" d="M40.0004747,20 C62.0902607,20 80,28.9923695 80,40.0852054 C80,51.1780412 62.0902607,60.1708854 40.0004747,60.1708854 C17.9092646,60.1708854 0,51.1780412 0,40.0852054 C0,28.9923695 17.9092646,20 40.0004747,20 Z M40.0004747,21.5811646 C18.7755586,21.5811646 1.56787354,29.8657838 1.56787354,40.0852054 C1.56787354,50.304627 18.7755586,58.5887714 40.0004747,58.5887714 C61.2244414,58.5887714 78.4311771,50.304627 78.4311771,40.0852054 C78.4311771,29.8657838 61.2244414,21.5811646 40.0004747,21.5811646 Z M40.0004747,22.5770468 C60.6757094,22.5770468 77.436719,30.4159398 77.436719,40.0852054 C77.436719,49.7549456 60.6757094,57.5943133 40.0004747,57.5943133 C19.3242906,57.5943133 2.56375568,49.7549456 2.56375568,40.0852054 C2.56375568,30.4159398 19.3242906,22.5770468 40.0004747,22.5770468 Z M36.9003287,39.9532439 C33.6891072,39.9532439 31.5938624,42.3902595 31.0527253,45.4196779 C30.5562082,48.2060593 32.1293033,50.4280442 34.7253373,50.4280442 C38.3580761,50.4280442 40.5202511,46.8646089 40.5202511,44.3079735 C40.5202511,41.6264967 39.4180403,39.9532439 36.9003287,39.9532439 Z M58.575243,40.2446984 L52.0289081,40.2451731 C52.0289081,40.2451731 52.2638755,40.4521343 51.961978,41.2913715 C51.6596058,42.1310833 49.0075593,49.2802639 49.0075593,49.2802639 C49.0075593,49.2802639 48.5376245,50.2196589 48.4042389,50.2196589 L55.1508894,50.2196589 L55.1508894,50.2196589 L55.9568989,47.836757 C55.9568989,47.836757 55.8562664,47.9706172 55.2187689,47.9706172 L52.3649827,47.9706172 L52.3649827,47.9706172 L52.9697272,46.3595476 L55.1845918,46.3595476 C55.1845918,46.3595476 55.6545267,46.3258452 55.7556339,46.4606548 L56.66,43.917 L56.6553626,43.9281834 C56.6286016,43.9789011 56.5022351,44.1437336 55.9901266,44.1437336 L53.8417174,44.1437336 L53.8417174,44.1437336 L54.4801642,42.3651014 L57.1991408,42.3651014 C57.1991408,42.3651014 57.5684432,42.3143105 57.7018287,42.5991195 L58.575243,40.2446984 Z M64.0336482,40.2456959 L63.8972041,40.2459622 C63.8911852,40.2461293 63.8865995,40.246288 63.8835185,40.246405 L59.7496054,40.2465971 C60.0087816,40.5346611 59.8735264,41.0937005 59.8295927,41.2475471 L59.8174849,41.287574 L59.8174849,41.287574 C59.8174849,41.287574 59.6491509,41.751249 59.3934978,42.4556766 L59.2458778,42.8624462 C58.4434641,45.0736048 57.0645362,48.8749505 56.9224014,49.2769412 C56.7211364,49.8484579 56.3342708,50.2125387 56.3342708,50.2125387 L59.7671686,50.2182679 C59.516062,50.2234564 59.6912196,49.6073196 59.6912196,49.6073196 L60.7450129,46.7592296 C60.7450129,46.7592296 62.1647857,49.6467182 62.2649436,49.8484579 C62.3655761,50.0497229 62.3157345,50.2177602 62.3157345,50.2177602 L65.9603403,50.2177602 C65.6242657,50.2177602 65.2544887,49.5797881 65.2544887,49.5797881 L63.5024387,46.435022 C65.9541695,46.435022 66.6913501,44.0934174 66.6913501,44.0934174 C67.8272354,40.5266035 64.7689633,40.2592378 64.0336482,40.2456959 Z M44.7809937,40.2418503 L41.382273,40.2465971 C41.382273,40.2465971 41.6324303,40.380932 41.6324303,41.0184295 L41.6324303,49.6467182 L41.6324303,49.6467182 C41.6324303,49.6467182 41.5977785,50.1190264 41.4192982,50.2177602 L44.1188128,50.2177602 C44.1188128,50.2177602 44.1188128,50.0155458 44.3865333,49.6799459 C44.5096736,49.5261292 45.7541217,47.8632089 47.066144,46.1068422 L47.6039781,45.3867052 C48.97442,43.5513805 50.2616683,41.8249137 50.2616683,41.8249137 C50.2616683,41.8249137 51.539986,40.2465971 51.8755859,40.2465971 L48.0126265,40.2465971 C48.0126265,40.2465971 48.3149988,40.4483368 48.0800313,40.8176392 C48.0212895,40.9099648 47.762588,41.3002124 47.407578,41.8336508 L47.1577742,42.2087918 C46.8087119,42.7327363 46.4017533,43.342651 46.0096961,43.929863 L45.7195847,44.3643172 C45.5770635,44.5777179 45.439197,44.7841055 45.3098243,44.9777493 L44.9510262,45.5147181 C44.6253872,46.0019937 44.410742,46.3229971 44.410742,46.3229971 L44.4539381,41.1427961 C44.4539381,41.1427961 44.4477672,40.3121032 44.7809937,40.2418503 Z M27.5902077,40.2097698 L23.3514899,40.209572 C23.6533874,40.5456466 23.4179453,41.2505489 23.4179453,41.2505489 C23.4179453,41.2505489 20.8333037,48.6413424 20.6325133,49.2123844 C20.4618105,49.6951722 20.1711368,50.0545905 20.085739,50.1537538 L20.0614713,50.1812097 L20.0614713,50.1812097 L23.3514899,50.1812097 L23.3514899,50.1812097 C23.2503827,50.1812097 23.2503827,49.8565275 23.2503827,49.8565275 L24.430916,46.7226791 C24.430916,46.7226791 25.9024292,49.609693 26.0030617,49.8114327 C26.1041689,50.0126977 26.053378,50.180735 26.053378,50.180735 L29.5721931,50.180735 C29.2365932,50.180735 28.8905503,49.5427629 28.8905503,49.5427629 L27.1385002,46.3984715 C29.5892817,46.3984715 30.3729811,43.9695254 30.3729811,43.9695254 C31.4828644,40.4240893 28.1429035,40.2195393 27.5902077,40.2097698 Z M36.3442628,42.284634 L36.4460584,42.2915257 C36.7118801,42.3242788 38.16583,42.3503863 37.3769091,45.5032219 C36.856658,47.5870744 35.8603012,48.239287 34.9541339,48.0717244 C33.7213856,47.8429278 33.9330936,45.9318594 34.1329346,45.0503756 C34.5686924,43.1198453 35.6424223,42.1937413 36.4460584,42.2915257 Z M20.200553,41.2738083 L12.9061198,43.6657292 L12.1001104,46.0571754 L18.5206546,46.0571754 L19.3019806,43.8209501 L15.1466173,43.8209501 L19.8867884,42.1799756 L20.200553,41.2738083 Z M63.1117757,42.5630437 C63.1117757,42.5630437 64.2234801,42.532664 63.777754,43.6709507 C63.4003821,44.6364532 62.1671591,44.5438903 62.1671591,44.5438903 L62.1671591,44.5438903 L61.529187,44.5438903 L62.2003869,42.5630437 Z M26.5399267,42.4970629 C28.039446,42.4970629 27.5030558,43.6291787 27.5030558,43.6291787 C27.0445133,44.6169912 25.8017967,44.5073398 25.8017967,44.5073398 L25.1638245,44.5073398 L25.8459421,42.5022844 C25.8459421,42.5022844 26.0673371,42.4991257 26.3200638,42.4977219 Z M50.8493242,28.0776579 L47.5013944,28.0776579 C47.5013944,28.0776579 47.7529757,28.4806627 47.4249706,29.4119881 C47.1495474,30.1959464 45.2898054,35.2166147 44.7050403,36.7942581 L44.6218409,37.0186994 C44.562574,37.1785623 44.5294125,37.2679697 44.5294125,37.2679697 C44.5294125,37.2679697 44.3276728,37.9192329 44.0509333,38.0459729 L48.0800313,38.0412261 L48.1949186,38.0415706 C48.9401545,38.0301084 53.1013866,37.7549499 54.4749427,33.0883976 C54.4749427,33.0883976 56.3883845,28.0273417 50.8493242,28.0776579 Z M33.2519254,28.0643668 L30.0544697,28.0643668 C30.0544697,28.0643668 30.2785195,28.3411062 29.8503566,28.9710088 C29.65362,29.2605456 28.3915888,31.1305474 27.0859635,33.0657204 L26.7450485,33.5710302 C25.326047,35.6743446 23.9605065,37.6989806 23.9605065,37.6989806 C23.9605065,37.6989806 23.8518044,37.9073659 23.5760143,38.0269857 L26.8052737,38.0269857 C26.8052737,38.0269857 26.7953054,37.7787271 26.8793241,37.6178101 C27.0326462,37.3268302 27.4337522,36.624776 27.4337522,36.624776 L30.6838976,36.624776 L30.6900685,37.5005637 C30.6900685,37.5005637 30.7066823,37.8024612 30.4674428,38.0350552 L33.6905313,38.0350552 C33.6905313,38.0350552 33.4512917,37.9007203 33.4071463,37.5043611 L33.0027176,28.7422123 L33.0028288,28.692727 C33.0058716,28.5532968 33.0340465,28.1610724 33.2519254,28.0643668 Z M23.596,28.056 L19.999288,28.0567719 C20.4459634,28.2708534 20.0500789,29.1143627 20.0500789,29.1143627 L20.0341304,29.1587646 C19.9240976,29.4650582 19.2616946,31.3082072 18.5782691,33.1933022 L18.3828916,33.7317509 C17.7002813,35.6112764 17.047253,37.3903756 16.9551544,37.5741393 C16.7534147,37.9771441 16.602466,38.027935 16.602466,38.027935 L22.8582957,38.027935 L23.7336086,35.6417103 C23.6581343,35.8690828 23.0562379,35.812121 23.0562379,35.812121 L20.4407419,35.812121 C20.4407419,35.812121 22.8649412,29.3512288 23.059086,28.8627814 C23.3402459,28.1596888 23.5292767,28.0670295 23.5902788,28.0570003 L23.596,28.056 Z M40.6265798,28.0752845 L37.5805475,28.0752845 C37.5805475,28.0752845 37.7381419,28.3268658 37.6370347,28.6036052 C37.5636509,28.8042441 35.0426916,35.7240597 34.5071477,37.1940902 L34.4446264,37.3657072 C34.4205975,37.431665 34.4077753,37.4668613 34.4077753,37.4668613 C34.4077753,37.4668613 34.2065103,38.0179667 34.0299287,38.0179667 L36.9762778,38.0179667 C36.9762778,38.0179667 36.7745381,37.7189173 36.9003287,37.3918616 C37.0750116,36.9375912 38.6381383,32.6834941 38.6381383,32.6834941 L39.3178824,38.0179667 L41.9870175,38.0179667 L45.485896,28.5286055 C45.485896,28.5286055 45.6292499,28.0833541 45.824344,28.0833541 L42.9881211,28.0752845 C42.9881211,28.0752845 43.0697663,28.4028149 42.9681845,28.6548708 C42.9247827,28.7638894 42.5974871,29.6342071 42.2404888,30.5855602 L41.9917146,31.2487756 C41.6070696,32.2745738 41.2560077,33.2122895 41.2560077,33.2122895 L40.6265798,28.0752845 Z M63.9927848,31.8879277 L57.5722406,31.8879277 L56.7899652,34.1236783 L60.9462779,34.1236783 L56.2056321,35.7651275 L55.8923422,36.6717695 L63.1867754,34.2798486 L63.9927848,31.8879277 Z M50.6925555,30.2178759 C50.9758916,30.2261927 52.4763172,30.4130054 51.2020127,33.5165605 C50.3490097,35.5932927 49.0797109,35.7442415 48.3942706,35.7442415 L48.3942706,35.7442415 L48.1885084,35.7446138 C47.9932837,35.7454227 47.9445181,35.7473325 47.9324852,35.7481413 L47.9286079,35.7485137 L49.8923659,30.2179976 Z M30.6217143,31.4554927 L30.6473471,34.3757343 L28.8269429,34.3757343 L30.6217143,31.4554927 Z"/><deepl-alert xmlns=""/><deepl-alert xmlns=""/><deepl-alert xmlns=""/><deepl-alert xmlns=""/></svg>