<svg xmlns="http://www.w3.org/2000/svg" width="80" height="80" viewBox="0 0 80 80">
  <path fill="#AAA" fill-rule="evenodd" d="M41.6061297,15.7283149 C37.4170907,20.8929637 25.4676259,37.5719132 24.1059835,39.7301866 C21.484471,43.8677546 21.2528514,45.8727847 21.1768146,47.2086916 C21.0996081,48.5200328 21.0996081,50.8841902 23.232146,52.810844 C26.8047026,55.997368 31.8161081,55.4838276 36.2613324,55.4838276 L72.8817921,55.4838276 C74.4493186,55.4838276 74.9125578,55.0217582 75.7606598,53.8905656 C78.6898286,49.4196058 80,44.5614435 80,40.2191613 C80,30.9157747 73.9615137,19.1967597 58.6699421,13.9034334 L56.9491724,16.3705328 C69.0787858,22.1270983 74.0901913,29.6570743 74.0901913,40.1934257 C74.1673978,43.0196526 73.421068,46.077499 71.5716208,48.9048956 L35.9525063,48.9048956 C33.8199684,48.9048956 33.5111423,46.4892671 34.2832076,45.1276247 C37.4428262,39.5254723 40.681991,34.5655378 44.4849974,29.4769258 C48.0821197,24.6714043 51.6289407,20.1735392 55.3559104,15.4709598 C56.3572557,14.1607884 55.6893022,12.9009183 53.6854419,12.4903199 C49.5221384,11.6164824 45.1786863,11 39.9099257,11 C10.6907645,11 0,27.7807218 0,40.2191613 C0,53.710417 10.767971,69.361116 39.9871322,69.361116 C56.2040124,69.361116 66.8164005,64.1438264 72.9589987,57.4362169 L66.7660993,57.4362169 C61.3943967,62.3973212 52.1693864,65.9172369 39.9871322,65.9172369 C15.2401006,65.9172369 6.11686261,52.014213 6.11686261,40.0390127 C6.29701117,29.3482482 16.0882026,14.5971223 40.6047845,14.1093174 C41.530093,14.0835819 42.2495175,14.9316839 41.6061297,15.7283149"/>
<deepl-alert xmlns=""/><deepl-alert xmlns=""/><deepl-alert xmlns=""/><deepl-alert xmlns=""/></svg>