<svg xmlns="http://www.w3.org/2000/svg" xmlns:xlink="http://www.w3.org/1999/xlink" width="80px" height="80px" viewBox="0 0 80 80" version="1.1">
    <title>Component/Brand logo/mazda</title>
    <g id="Component/Brand-logo/mazda" stroke="none" stroke-width="1" fill="none" fill-rule="evenodd">
        <path d="M26.0281608,39.8987955 C32.1527761,42.4502339 36.2358529,46.0234108 39.9369896,54.0616048 C43.6361874,46.0234108 47.5913046,41.940334 53.8438795,39.3888956 C59.0844098,37.510215 64.3230012,35.6334731 69.5654703,33.7567312 C69.5984296,33.8905072 69.6313889,34.0242833 69.666287,34.1561205 C69.9202676,35.9436784 70.0482272,38.1131765 70.0482272,40.2807358 C70.0482272,62.4817391 55.375518,66.9467562 39.9369896,66.8207353 C24.4965223,66.9467562 9.95177277,62.4817391 9.95177277,40.2807358 C9.95177277,38.6230764 9.95177277,36.9634782 10.2076921,35.5597993 C10.2833047,35.2476553 10.3589172,34.9335724 10.4345297,34.6194896 C15.6324068,36.3799045 20.8302838,38.1403194 26.0281608,39.8987955 Z M66.1822941,24.5048591 C66.0679059,24.3206747 65.9535177,24.1345515 65.8371907,23.9484284 C60.350435,15.7842135 50.3986622,13.8686959 39.9369896,13.8686959 C29.4733781,13.8686959 19.265686,15.9121731 13.9068899,24.2043477 C13.7149504,24.5378184 13.5230109,24.8693503 13.3310714,25.2028209 C22.5383515,30.4646778 32.9825752,30.5616169 39.9369896,43.8539127 C46.3233405,30.1525337 56.8838911,29.9605942 66.1822941,24.5048591 Z M73.6214042,19.7393306 C73.3228316,19.3981048 73.024259,19.0588178 72.7276252,18.717592 C64.5614715,9.91357875 51.1644815,8 39.9369896,8 C28.5815379,8 14.8006689,9.91357875 6.76247486,19.2274919 C6.63451518,19.3981048 6.50655551,19.5687177 6.37859584,19.7393306 C2.42541744,24.4602671 0,31.2227419 0,40.2807358 C0,68.2244141 22.7109032,72.6894312 39.9369896,72.6894312 C57.2890968,72.6894312 80,68.2244141 80,40.2807358 C80,31.2227419 77.5765213,24.4602671 73.6214042,19.7393306 L73.6214042,19.7393306 Z" id="Fill-2" fill="#AAAAAA"/>
    </g>
<deepl-alert xmlns=""/><deepl-alert xmlns=""/><deepl-alert xmlns=""/><deepl-alert xmlns=""/></svg>