<svg xmlns="http://www.w3.org/2000/svg" xmlns:xlink="http://www.w3.org/1999/xlink" width="80px" height="80px" viewBox="0 0 80 80" version="1.1">
    <title>Component/Brand logo/Mercedes</title>
    <g id="Component/Brand-logo/Mercedes" stroke="none" stroke-width="1" fill="none" fill-rule="evenodd">
        <path d="M39.9898332,79.1146161 C17.9014488,79.1053334 0,61.3926327 0,39.5526707 C0,17.702542 17.9116155,-0.00971672225 39.9898332,3.99923083e-06 C62.0985512,3.99923083e-06 80,17.7127087 80,39.5526707 C80,61.4023574 62.0883845,79.1146161 39.9898332,79.1146161 Z M7.19054934,58.5282594 L7.90664265,57.971298 C5.83792863,54.1821919 5.04271143,51.6559738 4.13742803,48.851717 C4.05786211,48.6426354 4.00835442,48.502953 3.91862174,48.3836042 C3.8589473,48.542294 3.88900554,48.6824184 3.89873026,48.8609997 C4.47558321,51.9242878 5.86798687,55.7836771 7.19054934,58.5282594 L7.19054934,58.5282594 Z M40.5467947,3.92835447 L45.9868937,35.5646498 L40.2983722,38.8962518 L40.1096242,3.93852122 C40.1096242,3.52080012 39.8311434,3.52080012 39.771469,3.93852122 L36.5587738,37.0962938 L34.1722381,35.7140569 L39.2839067,3.93896326 C19.4728758,4.05787011 3.82888906,19.9604461 3.82888906,39.6123451 C3.82888906,45.8180452 5.77825419,52.3424509 8.58251097,57.4240612 L33.5454355,36.668406 L35.9416959,38.0404761 L7.91636737,58.1799375 C7.24005702,58.657333 7.43897183,58.8863061 8.18468135,58.4787517 L39.4823795,40.3978376 L39.4823795,46.9023519 L9.25837929,58.4385267 C15.5834282,68.7719301 26.8017814,75.3555682 39.8899338,75.3555682 C52.94847,75.3555682 64.3555713,68.7622053 70.6806202,58.4486935 L40.5065697,46.9222434 L40.5065697,40.4177291 L70.611221,57.7821079 C71.296814,58.160046 71.4961709,57.9514065 70.8494767,57.4939024 L44.0476954,38.0510849 L46.4443978,36.6785727 L71.3874308,57.4541195 C74.251804,52.3424509 76.1410527,45.8083204 76.1410527,39.5526707 C76.1410527,20.1491941 60.0099457,4.45569973 40.5467947,3.92835447 Z M78.0806931,32.3917376 C78.1496502,32.5809277 78.2093247,32.7400595 78.2990574,32.8492416 C78.3587318,32.6901098 78.3092241,32.5508694 78.2990574,32.3718461 C75.0072383,14.3908314 59.4132013,0.954799086 40.0693992,0.954799086 C18.4186273,0.954799086 0.904841365,18.5083679 0.904841365,40.1489731 C0.904841365,45.2606417 2.20795438,50.1344965 3.97829618,54.5994709 C4.7938469,56.6575762 7.39918887,61.3524077 8.03571626,62.2771405 C8.17495663,62.4756133 8.23463107,62.5750707 8.39376292,62.6948616 C8.38403819,62.5056715 8.37431347,62.4159389 8.27441403,62.1874079 C8.16478987,61.9982178 5.94711076,57.7714991 4.66433126,54.6286451 C3.57029981,51.9238457 2.20795438,46.5341385 2.20795438,40.2877714 C2.20795438,19.2934184 19.2443447,2.25702804 40.2382557,2.25702804 C51.2183532,2.26675276 61.5415898,7.62728585 67.8661966,14.5694127 C72.6702103,19.8410972 75.1566454,23.3817808 78.0806931,32.3917376 Z M8.42337912,58.7466237 L7.55832072,59.0653294 C13.1774431,69.8062871 24.9624825,77.6134768 39.9898332,77.6134768 C61.3126167,77.6236391 78.3587318,60.3680004 78.3587318,39.5526707 C78.3587318,34.4604516 76.8867622,31.3379311 76.0614868,29.080469 C75.4554597,27.3896932 74.1519046,24.7936339 73.5750517,23.7296607 C73.4557028,23.5205791 73.3765789,23.4312885 73.217447,23.3022149 C73.2267297,23.4909629 73.2373385,23.6005871 73.3562454,23.8096686 C73.8044667,24.6946185 74.7981567,26.9224644 75.5040833,29.160035 C76.4588744,32.1335903 77.0556188,35.4651924 77.0556188,39.5531127 C77.0556188,46.0470182 75.017405,52.6907728 72.0137914,57.9810227 C72.18309,58.4186353 72.0230741,58.6378836 71.5165044,58.777124 C64.9620404,69.3196088 53.2764584,76.2210687 39.9796665,76.2113439 C27.4882585,76.2113439 17.5031771,69.5176396 14.3505984,66.0472392 C11.7850394,63.2222069 9.88562398,61.1243187 8.42337912,58.7466237 Z M38.0108519,37.9414607 L39.6618448,38.9059766 L39.8709264,13.2371255 C39.8709264,12.719947 39.7122366,12.7000555 39.6720116,13.217234 L38.0108519,37.9414607 Z M40.8946746,39.8806591 L63.102408,52.8790788 C63.5002376,53.1080519 63.5798035,52.9688115 63.2027494,52.720389 L42.5858925,38.9059766 L40.8946746,39.8806591 L40.8946746,39.8806591 Z M37.5135649,38.9855425 L31.9342255,43.5508584 C31.6261286,43.8090056 31.7653689,43.9283545 32.1331403,43.720157 L39.0947166,39.8612097 L37.5135649,38.9855425 Z" id="Shape" fill="#AAAAAA"/>
    </g>
<deepl-alert xmlns=""/><deepl-alert xmlns=""/><deepl-alert xmlns=""/><deepl-alert xmlns=""/></svg>