<svg xmlns="http://www.w3.org/2000/svg" width="80" height="80" viewBox="0 0 80 80">
  <path fill="#AAA" fill-rule="evenodd" d="M39.9998552,22 C34.0119085,22.0010175 28.4382217,25.0567109 25.2170675,30.1044501 L0,30.1044501 L2.5104094,32.6148547 L23.9071122,32.6148547 C23.5010054,33.5596483 23.1787763,34.538327 22.9441491,35.5395801 L5.4351276,35.5395801 L7.91491376,38.0193615 L22.5382193,38.0193615 C22.4902188,38.5248532 22.4641913,39.0321909 22.4602105,39.539941 C22.4648302,40.0088346 22.4882514,40.4773544 22.5304178,40.9443711 L10.8399204,40.9443711 L13.3197066,43.4241585 L22.9117902,43.4241585 C23.1341561,44.4242094 23.4437114,45.4028556 23.8369055,46.3488719 L16.2444248,46.3488719 L18.7548342,48.8592825 L25.1656399,48.8592825 C28.3689933,53.9667363 33.9709676,57.0710412 39.9998552,57.0795857 C46.0288468,57.0711417 51.6309543,53.9668243 54.8343631,48.8592825 L61.2451737,48.8592825 L63.7555783,46.3488719 L56.1630939,46.3488719 C56.5562894,45.4028557 56.8658461,44.4242096 57.0882134,43.4241585 L66.6802977,43.4241585 L69.160079,40.9443711 L57.4695889,40.9443711 C57.5117536,40.4773544 57.5351732,40.0088346 57.5397913,39.539941 C57.5359068,39.0321951 57.509976,38.5248574 57.4620722,38.0193615 L72.0850887,38.0193615 L74.56487,35.5395801 L57.0558546,35.5395801 C56.8212273,34.538327 56.4989982,33.5596483 56.0928914,32.6148547 L77.4895954,32.6148547 L80,30.1044501 L54.7829374,30.1044501 C51.5617269,25.0566227 45.9879064,22.000917 39.9998552,22 L39.9998552,22 Z M39.9998552,24.3775164 C44.0211813,24.3775164 47.8778049,25.9749794 50.7213126,28.8184857 C53.5648203,31.661992 55.1622871,35.5186149 55.1622871,39.539941 C55.1622871,43.5612672 53.5648203,47.41789 50.7213126,50.2613963 C47.8778049,53.1049026 44.0211813,54.7023656 39.9998552,54.7023656 C31.625879,54.7023656 24.8374287,47.9139172 24.8374287,39.539941 C24.8374287,31.1659648 31.625879,24.3775164 39.9998552,24.3775164 L39.9998552,24.3775164 Z M27.9380987,35.6100729 L27.9380987,43.4695128 L29.5771323,43.4695128 L29.5771323,37.2829099 L31.3060183,43.4695128 L33.0048567,43.4695128 L34.7395226,37.2829099 L34.7395226,43.4695128 L36.3788446,43.4695128 L36.3788446,35.6100729 L33.7320644,35.6100729 L32.1643937,40.971239 L30.5788105,35.6100729 L27.9380987,35.6100729 Z M38.0895283,35.6100729 L38.0895283,43.4695128 L39.8539521,43.4695128 L39.8539521,35.6100729 L38.0895283,35.6100729 Z M41.5467245,35.6100729 L41.5467245,43.4695128 L43.1860459,43.4695128 L43.1860459,38.3443948 L46.7091172,43.4695128 L48.4796045,43.4695128 L48.4796045,35.6100729 L46.8402873,35.6100729 L46.8402873,40.8585607 L43.2637651,35.6100729 L41.5467245,35.6100729 Z M50.2974787,35.6100729 L50.2974787,43.4695128 L52.0619013,43.4695128 L52.0619013,35.6100729 L50.2974787,35.6100729 Z"/>
<deepl-alert xmlns=""/><deepl-alert xmlns=""/><deepl-alert xmlns=""/><deepl-alert xmlns=""/></svg>