<svg xmlns="http://www.w3.org/2000/svg" width="80" height="80" viewBox="0 0 80 80">
  <path fill="#AAA" fill-rule="evenodd" d="M45.1313509,18.0168798 C45.5291288,18.0168798 45.8512027,17.694972 45.8512027,17.2968621 C45.8512027,16.8994162 45.5291288,16.5775084 45.1313509,16.5775084 C44.7334071,16.5775084 44.4111672,16.8994162 44.4111672,17.2968621 C44.4111672,17.694972 44.7334071,18.0168798 45.1313509,18.0168798 L45.1313509,18.0168798 Z M14.1119829,23.2700046 L11.9344978,27.5992421 L7.479253,25.2661986 L6.55901817,27.103846 C6.67722261,27.0777813 6.78662812,27.0716386 6.86498837,27.0716386 C7.05009785,27.0716386 7.23387918,27.1066683 7.37698624,27.1720792 L12.3515337,29.7765612 L15.3076407,23.8963885 L14.1119829,23.2700046 Z M66.5207096,24.7113683 L67.5566586,24.1487351 L69.2538552,27.4124725 L70.4196299,26.7812741 L68.7212712,23.5173706 L69.7109013,22.9814662 L72.1563387,27.6790965 L73.3211172,27.0474001 L69.9416656,20.5518006 C69.8178166,20.8391768 69.5804116,21.0823924 69.3911517,21.1810068 L64.5545648,23.8042488 L67.911604,30.2575138 L69.0770466,29.6248213 L66.5207096,24.7113683 Z M42.2318558,18.0168798 C42.6297997,18.0168798 42.9517076,17.694972 42.9517076,17.2968621 C42.9517076,16.8994162 42.6297997,16.5775084 42.2318558,16.5775084 C41.833912,16.5775084 41.5116721,16.8994162 41.5116721,17.2968621 C41.5116721,17.694972 41.833912,18.0168798 42.2318558,18.0168798 L42.2318558,18.0168798 Z M59.0900998,23.0790845 L59.0995628,23.0895436 C63.093279,27.588949 65.5202884,33.5112902 65.5202884,40.0005811 C65.5202884,50.3456276 59.3547316,59.2503066 50.4980317,63.2438568 C50.4679825,63.2583004 50.4387634,63.2749021 50.4075521,63.2885155 L50.4148569,63.2825389 C50.4425818,63.2700876 50.4703067,63.2569722 50.4980317,63.2438568 C51.9465341,62.5555484 52.9487815,61.0811473 52.9487815,59.3708353 C52.9487815,57.001932 51.0286235,55.082272 48.6597202,55.082272 L44.1447091,55.0781216 C43.839735,55.0781216 43.592369,54.8314196 43.592369,54.5262795 C43.592369,54.2216375 43.839735,53.9742714 44.1447091,53.9742714 L51.7697255,53.9742714 C55.3588571,53.9742714 58.2688113,51.0646493 58.2688113,47.4753516 C58.2688113,43.8862199 55.3588571,40.9760997 51.7697255,40.9760997 L50.8010135,40.9769298 L44.4065187,40.9769298 C44.1013786,40.9769298 43.8541786,40.7303939 43.8541786,40.4249217 C43.8541786,40.1206117 44.1013786,39.8732457 44.4065187,39.8732457 L50.0290323,39.866937 C55.9618326,39.866937 60.7715247,35.0574109 60.7715247,29.1247767 C60.7715247,26.942643 60.1205702,24.9127474 59.0026085,23.2178751 L58.9745516,23.1778649 C58.9654206,23.1654136 58.958946,23.15014 58.958946,23.1330402 C58.958946,23.0895436 58.9944737,23.0545139 59.0378043,23.0545139 C59.0646991,23.0545139 59.0754902,23.0586643 59.0900998,23.0790845 L59.0900998,23.0790845 Z M48.230233,64.1396871 C45.6577923,65.013271 42.9007402,65.4867528 40.0331205,65.4867528 C36.2060858,65.4867528 32.5771099,64.6418899 29.3198472,63.1299689 L29.3198472,43.0448434 L36.5371246,43.0448434 C36.2716627,42.242481 36.1280576,41.3848347 36.1280576,40.4948151 C36.1280576,39.1515677 36.4567722,37.8846884 37.0343469,36.7675569 L29.3198472,36.7675569 L29.3198472,16.8703632 C32.5771099,15.3584421 36.2060858,14.5137452 40.0331205,14.5137452 C44.4825547,14.5137452 48.6661949,15.6542852 52.306626,17.6584481 L52.3086182,17.6584481 C52.829581,17.9879928 53.1753954,18.5688879 53.1753954,19.2309656 C53.1753954,20.2569535 52.3438139,21.088369 51.3178259,21.088369 L51.2771516,21.0870409 L50.6798208,21.0870409 L48.1460622,21.0898632 C47.2538843,21.0898632 46.7646308,21.3531669 46.4574985,21.619957 C45.5726254,22.3874557 45.8757733,23.2964014 44.0602062,23.2964014 L39.0527873,23.2964014 C39.7303046,24.8582937 41.2847262,25.9857183 41.6715469,26.248192 L47.821664,26.248192 C48.0721844,26.248192 48.2853508,26.4030863 48.3733401,26.6215653 C48.4025592,26.6871422 48.4189949,26.7586957 48.4189949,26.8352297 C48.4189949,26.8730817 48.4148445,26.9094395 48.4073737,26.9452993 C48.3585645,27.2258688 48.116013,27.4393673 47.821664,27.4393673 L41.5609793,27.4393673 C41.0801927,27.6908838 39.6185749,28.6024857 38.9443779,30.6601062 L50.244855,30.6601062 C50.9823046,30.6601062 51.5802995,31.2581011 51.5802995,31.9952187 C51.5802995,32.7326683 50.9823046,33.3304972 50.244855,33.3304972 L44.5207387,33.3298331 C40.5754996,33.3298331 37.377007,36.5284917 37.377007,40.4738969 C37.377007,44.419302 40.5754996,47.6177946 44.5207387,47.6177946 L51.6588258,47.6177946 C51.9637999,47.6177946 52.2109999,47.8727974 52.2109999,48.1774395 C52.2109999,48.4819155 51.9637999,48.7224748 51.6588258,48.7224748 L44.3482465,48.7224748 C41.4580484,48.7224748 39.1148779,51.0651473 39.1148779,53.9551794 C39.1148779,56.8455436 41.4580484,59.1882161 44.3482465,59.1882161 L47.1094491,59.1978451 C48.5044939,59.1978451 49.6538328,60.3684343 49.6538328,61.753518 C49.6538328,62.8857572 48.9706709,63.6841352 48.230233,64.1396871 L48.230233,64.1396871 Z M23.0430587,36.7675569 L14.7499881,36.7675569 C15.5395672,30.5289524 18.5858217,24.99393 23.0430587,21.0045302 L23.0430587,36.7675569 Z M23.0430587,58.9958018 C18.541163,54.9658938 15.4801329,49.3598159 14.7285718,43.0448434 L23.0430587,43.0448434 L23.0430587,58.9958018 Z M40.0331205,13.1349701 C25.1964713,13.1349701 13.1680076,25.1629358 13.1680076,40.0005811 C13.1680076,54.8368982 25.1964713,66.866026 40.0331205,66.866026 C54.8707658,66.866026 66.8988974,54.8368982 66.8988974,40.0005811 C66.8988974,25.1629358 54.8707658,13.1349701 40.0331205,13.1349701 L40.0331205,13.1349701 Z M39.030209,19.8317828 L45.3712462,19.8317828 C45.63538,19.8317828 45.8512027,19.6161261 45.8512027,19.3516603 C45.8512027,19.0875265 45.63538,18.8712057 45.3712462,18.8712057 L39.030209,18.8712057 C38.7662412,18.8712057 38.5502525,19.0875265 38.5502525,19.3516603 C38.5502525,19.6161261 38.7662412,19.8317828 39.030209,19.8317828 L39.030209,19.8317828 Z M39.2699382,18.0168798 C39.6683801,18.0168798 39.990288,17.694972 39.990288,17.2968621 C39.990288,16.8994162 39.6683801,16.5775084 39.2699382,16.5775084 C38.8724924,16.5775084 38.5502525,16.8994162 38.5502525,17.2968621 C38.5502525,17.694972 38.8724924,18.0168798 39.2699382,18.0168798 L39.2699382,18.0168798 Z M40.266209,26.8578081 L40.3558584,26.771645 L40.3561905,26.770981 L40.3558584,26.770981 L40.266209,26.6849839 C38.8626973,25.6658027 38.2411279,24.4034058 37.8655964,23.426393 C37.6067752,22.7531922 37.3149165,22.200022 36.8905758,21.7954374 C36.4499654,21.3759113 36.1288877,21.1532819 35.4933728,21.1532819 C35.248663,21.1532819 34.9905059,21.1858213 34.72604,21.2505681 L34.573968,21.2869259 L34.668598,21.4620743 C34.8090488,21.7232198 35.0700282,22.2083229 35.5270743,22.3474455 C35.5607759,22.3579046 35.599458,22.3625531 35.6456108,22.3625531 C35.6811385,22.3625531 35.7186585,22.3598968 35.7563445,22.3565765 C35.7862276,22.3537542 35.8159447,22.3509319 35.8435036,22.3509319 C35.8743829,22.3509319 35.8845099,22.3550823 35.884842,22.3550823 C36.3777478,22.6403003 36.6364031,24.7439077 36.6364031,25.791976 C36.6364031,25.9711088 36.5625253,26.0516273 36.3971719,26.0516273 C36.2326486,26.0516273 36.01832,25.9619778 35.8868342,25.8381288 C35.5977978,25.52668 35.1849123,25.3516976 34.7306885,25.3516976 C33.9892545,25.3516976 33.2038259,25.8510782 33.1726146,26.6864781 L33.1727806,26.771645 L33.1726146,26.856314 C33.2038259,27.6915478 33.9892545,28.1910944 34.7306885,28.1910944 C35.1849123,28.1910944 35.5977978,28.016278 35.8868342,27.7046632 C36.01832,27.5814783 36.2326486,27.4918288 36.3971719,27.4918288 C36.5625253,27.4918288 36.6364031,27.5716832 36.6364031,27.7508161 C36.6364031,28.7988844 36.3777478,30.9024917 35.884842,31.1877097 C35.8845099,31.1877097 35.8743829,31.1918602 35.8435036,31.1918602 C35.8159447,31.1918602 35.7862276,31.1890379 35.7563445,31.1862156 C35.7186585,31.1830612 35.6811385,31.1802389 35.6456108,31.1802389 C35.599458,31.1802389 35.5607759,31.1848874 35.5270743,31.1953465 C35.0700282,31.3344692 34.8090488,31.8195722 34.668598,32.0807177 L34.573968,32.2558661 L34.72604,32.293054 C34.9905059,32.3569708 35.248663,32.3895102 35.4933728,32.3895102 C36.1288877,32.3895102 36.4499654,32.1675448 36.8905758,31.7473546 C37.3149165,31.34277 37.6067752,30.7895998 37.8655964,30.116399 C38.2411279,29.1393862 38.8626973,27.8769894 40.266209,26.8578081 L40.266209,26.8578081 Z M8.79460941,33.9323105 L8.38736856,36.6105043 L6.05432507,34.849225 L8.79460941,33.9323105 Z M4.54871264,36.056338 C4.64633091,36.0146676 4.75573642,35.9917572 4.87178263,35.9917572 C5.01721394,35.9917572 5.16347533,36.0296092 5.28284189,36.0976764 L5.29230488,36.103321 L10.3812384,40.0150246 L10.6392295,38.3153377 L9.60494068,37.5367158 L10.225348,33.4560064 L11.4379396,33.0509238 L11.6957647,31.3545573 L4.92590433,33.6311548 L4.54871264,36.056338 Z M40.0010791,78.4007537 C18.7931775,78.4007537 1.6004084,61.2078186 1.6004084,39.999917 C1.6004084,18.7918494 18.7931775,1.59991035 40.0010791,1.59991035 C61.2094788,1.59991035 78.4015838,18.7918494 78.4015838,39.999917 C78.4015838,61.2078186 61.2094788,78.4007537 40.0010791,78.4007537 L40.0010791,78.4007537 Z M40.0010791,0 C17.9094665,0 0,17.9088025 0,39.999917 C0,62.0910315 17.9094665,80 40.0010791,80 C62.0930237,80 80.0021582,62.0910315 80.0021582,39.999917 C80.0021582,17.9088025 62.0930237,0 40.0010791,0 L40.0010791,0 Z M48.8931408,8.80988302 C49.1572746,8.04304833 49.8088931,7.62069989 50.7281319,7.62069989 C51.1124623,7.62069989 51.5206993,7.69723394 51.9413875,7.84880789 C53.4076538,8.37574734 54.1075835,9.43278056 53.7245812,10.5416112 C53.4589532,11.3125964 52.8061725,11.7376011 51.8866018,11.7376011 C51.4999471,11.7376011 51.0890538,11.660403 50.6648792,11.5081649 C49.2037595,10.9832177 48.5081463,9.92402626 48.8931408,8.80988302 L48.8931408,8.80988302 Z M50.2008604,12.8655238 C50.8513168,13.0991104 51.4976228,13.2176468 52.1223466,13.2176468 L52.1228446,13.2176468 C53.7069833,13.2176468 54.9212351,12.4405191 55.3706444,11.1374479 C55.6875717,10.2175451 55.5441326,9.23787606 54.9657278,8.37773955 C54.4140517,7.55645113 53.504774,6.8862386 52.4052403,6.49128305 C51.7710536,6.26334106 51.1332145,6.14746087 50.510981,6.14746087 C48.9132289,6.14746087 47.6933325,6.91994015 47.2459155,8.21404632 C46.6072462,10.0648091 47.849389,12.021657 50.2008604,12.8655238 L50.2008604,12.8655238 Z M60.5158578,13.3967797 L59.9037514,18.2483082 L59.9802854,18.3198617 L64.6266163,17.2312852 L62.0731016,20.6882669 L63.3253714,21.8560338 L67.1993891,16.7470122 L65.7603496,15.4060891 L61.7075312,16.3137066 L62.2024293,12.0897241 L60.6953227,10.6847183 L60.6943266,10.6847183 L60.5097151,10.5140523 C60.4946075,10.8193585 60.3672721,11.1273209 60.194614,11.2940024 L56.1799795,15.1939188 L57.43889,16.3678283 L60.5158578,13.3967797 Z M72.597281,38.3359239 C72.4930221,38.3540198 72.3899252,38.3628187 72.2911448,38.3628187 C71.2874032,38.3628187 70.5185763,37.4870766 70.2843257,36.0785844 C70.0255044,34.5211745 70.5967705,33.3872752 71.741129,33.1880542 C71.846384,33.1707884 71.9474887,33.1626535 72.0424507,33.1626535 C73.0285944,33.1626535 73.8145211,34.0554955 74.0442893,35.438421 C74.3046047,37.0006454 73.7366589,38.1380311 72.597281,38.3359239 L72.597281,38.3359239 Z M75.4282109,35.1963675 C75.0536755,32.9503172 73.6204467,31.3819502 71.9420101,31.3819502 C71.7821353,31.3819502 71.6152877,31.3965597 71.4484402,31.4247827 C69.5548449,31.7543273 68.4833682,33.812944 68.9007361,36.3204718 C69.2815802,38.6065324 70.6824356,40.142526 72.3864389,40.142526 C72.5509622,40.142526 72.720798,40.1280825 72.8901359,40.0985314 C74.7780865,39.7709789 75.8460769,37.70954 75.4282109,35.1963675 L75.4282109,35.1963675 Z M41.4421107,5.75615769 L41.4426088,5.75615769 C41.9803394,5.75615769 42.3449137,6.14131822 42.3498943,6.7160707 C42.3543767,7.29613574 42.0029178,7.66004603 41.4328138,7.66486053 L38.1353748,7.69374757 L38.1189391,5.78521075 L41.4421107,5.75615769 Z M36.4587644,10.83347 L38.1617716,10.8186944 L38.146996,9.04496376 L41.0043227,9.01956308 L42.252774,10.7833327 L44.1518479,10.7668969 L42.7172909,8.86798913 L42.8937675,8.78315421 C43.6229162,8.43385345 44.0361337,7.70686295 44.0279988,6.7882883 C44.0153815,5.3399519 43.0614451,4.40344735 41.5984992,4.40344735 L36.4026505,4.44843809 L36.4026505,4.4504303 L36.1026569,4.45192445 C36.2804616,4.66675106 36.3931875,4.951305 36.4106193,5.18970609 L36.4587644,10.83347 Z M25.1770473,11.9125835 L22.8282321,13.2618075 L22.7525281,10.339568 L25.1770473,11.9125835 Z M21.2948948,10.5077437 L21.296887,10.5193649 L21.4079527,16.9425808 L22.8984575,16.0854326 L22.8625977,14.7914924 L26.4411043,12.7340379 L27.5135771,13.4306472 L29.0012597,12.5754913 L23.0025504,8.69765521 L20.869226,9.91522733 C21.0993262,10.0379142 21.2567107,10.2754852 21.2948948,10.5077437 L21.2948948,10.5077437 Z M12.4933126,18.5811732 L16.5245488,22.4495463 L17.6936438,21.1810068 L16.2084515,19.7552487 L18.6889185,17.0639396 L17.7261832,16.1398863 L15.2450522,18.8311955 L14.0985355,17.7309977 L17.6694053,13.8551539 L16.707168,12.9317647 L11.7540368,18.3089046 C12.0146842,18.3261704 12.3015624,18.4289352 12.487502,18.5765247 L12.4933126,18.5811732 Z"/>
<deepl-alert xmlns=""/><deepl-alert xmlns=""/><deepl-alert xmlns=""/><deepl-alert xmlns=""/><deepl-alert xmlns=""/></svg>