<svg xmlns="http://www.w3.org/2000/svg" width="80" height="80" viewBox="0 0 16 16" fill="none">
<path fill-rule="evenodd" clip-rule="evenodd" d="M11.5273 0H4.54541L0 4.54541V11.4726L4.50863 16H11.4537L15.9991 11.4546V4.50863L11.5273 0ZM14.618 10.8363L10.8363 14.618H5.16372L1.38201 10.8542V5.16372L5.16372 1.39997H10.909L14.618 5.12694V10.8363ZM4.6027 6.18141L6.05741 2.29023H7.67545V13.6721H6.14806V6.19937L4.78486 9.763L3.58501 7.09049V11.7813L2.203 10.3813V5.5631L3.63975 4.21786L4.60356 6.18141H4.6027ZM8.7436 2.29023H10.525L13.7979 5.61783V6.89037H12.4158V6.34475L10.2701 4.1084V11.854C10.2701 11.854 12.1063 10.0538 12.2884 9.83569C12.4706 9.61762 12.4518 9.32685 12.1978 9.36277H11.2519V7.98076H13.797V10.3805L10.4882 13.6713H8.74274V2.29109L8.7436 2.29023Z" fill="#aaaaaa"/>
<deepl-alert xmlns=""/><deepl-alert xmlns=""/><deepl-alert xmlns=""/><deepl-alert xmlns=""/></svg>