<svg xmlns="http://www.w3.org/2000/svg" xmlns:xlink="http://www.w3.org/1999/xlink" width="80px" height="80px" viewBox="0 0 80 80" version="1.1">
    <title>Component/Brand logo/Nissan</title>
    <g id="Component/Brand-logo/Nissan" stroke="none" stroke-width="1" fill="none" fill-rule="evenodd">
        <path d="M11.4265168,49.2337558 L11.4582131,49.3288447 C15.5945805,61.4526802 27.0527937,69.5986297 39.9531885,69.5986297 C52.8535834,69.5986297 64.2959484,61.4685283 68.4481639,49.3446928 L68.4481639,49.3446928 L68.4798602,49.2496039 L77.5766989,49.2496039 L77.5766989,50.3431263 L73.8048389,50.7868746 C71.4751608,51.0562931 70.9838681,52.0864229 70.349942,53.3859713 L70.349942,53.3859713 L70.1914605,53.7029343 C64.7396966,65.319629 52.8694315,72.8316525 39.9690367,72.8316525 C27.0686418,72.8316525 15.1983768,65.319629 9.74661283,53.6870862 L9.74661283,53.6870862 L9.58813132,53.3701232 C8.95420528,52.0705748 8.4629126,51.040445 6.13323442,50.7710264 L6.13323442,50.7710264 L2.36137449,50.3272782 L2.36137449,49.2337558 L11.4265168,49.2337558 Z M18.1778291,34.7485458 L18.1778291,44.0514104 L16.1175695,44.0514104 L16.1175695,34.7485458 L18.1778291,34.7485458 Z M2.64664121,34.7485458 L9.50889057,41.6900359 L9.50889057,34.7485458 L11.5691502,34.7485458 L11.5691502,44.0514104 L8.97005343,44.0514104 L2.06025962,37.078224 L2.06025962,44.0514104 L-2.13162821e-13,44.0514104 L-2.13162821e-13,34.7485458 L2.64664121,34.7485458 Z M70.9680199,34.7485458 L77.8302693,41.6900359 L77.8302693,34.7485458 L79.8746808,34.7485458 L79.8746808,44.0514104 L77.275584,44.0514104 L70.3816383,37.078224 L70.3816383,44.0514104 L68.3213787,44.0514104 L68.3213787,34.7485458 L70.9680199,34.7485458 Z M59.8109217,34.7485458 L65.6113449,44.0514104 L63.1231852,44.0514104 L62.0930554,42.3873546 L55.3258949,42.3873546 L54.2957651,44.0514104 L51.7917573,44.0514104 L57.5921805,34.7485458 L59.8109217,34.7485458 Z M48.7647605,34.8119384 L48.7647605,36.6820202 L40.9199257,36.6820202 C40.6188109,36.6820202 40.4761775,36.6978684 40.3493923,36.7295647 C39.9056441,36.8563499 39.7471626,37.2367055 39.7471626,37.5219722 C39.7471626,37.8389352 39.9056441,38.2192909 40.3335442,38.3302279 C40.4286331,38.3619242 40.6980516,38.3777724 40.9357739,38.3777724 L40.9357739,38.3777724 L46.4386041,38.3779191 C46.5684709,38.3786528 46.7863829,38.3830551 47.037312,38.4094687 C48.5745826,38.552102 49.3828383,39.915043 49.3828383,41.1828951 C49.3828383,42.4190509 48.6062789,43.8295363 46.9105268,43.9880178 C46.8510962,43.9979229 46.6368986,44.0016373 46.469131,44.0030302 L37.9404734,44.003866 L37.9404734,42.1020878 L46.1181192,42.1020878 C46.2290563,42.1020878 46.4826267,42.1020878 46.5460193,42.0862397 C47.0690083,41.9911508 47.3067306,41.5790989 47.3067306,41.1987432 C47.3067306,40.8025395 47.1007046,40.3587912 46.4984749,40.2795505 C46.4509304,40.2637023 46.2132082,40.2637023 46.1181192,40.2637023 L40.7207233,40.2635556 C40.5215208,40.2628219 40.2067589,40.2584196 39.9690367,40.232006 C38.4000697,40.0101319 37.6869029,38.6788872 37.6869029,37.5378204 C37.6869029,36.1431831 38.637792,35.0496607 40.000733,34.8594829 C40.2067589,34.8277866 40.4603294,34.8119384 40.7931405,34.8119384 L40.7931405,34.8119384 L48.7647605,34.8119384 Z M33.2652688,34.8119384 L33.2652688,36.6820202 L25.4204341,36.6820202 C25.1193192,36.6820202 24.9766859,36.6978684 24.8499007,36.7295647 C24.4061525,36.8563499 24.2476709,37.2367055 24.2476709,37.5219722 C24.2476709,37.8389352 24.4061525,38.2192909 24.8340525,38.3302279 C24.9291414,38.3619242 25.19856,38.3777724 25.4362823,38.3777724 L25.4362823,38.3777724 L30.9391125,38.3779191 C31.0689792,38.3786528 31.2868913,38.3830551 31.5378204,38.4094687 C33.075091,38.552102 33.8833467,39.915043 33.8833467,41.1828951 C33.8833467,42.4190509 33.1067873,43.8295363 31.4110352,43.9880178 C31.3516046,43.9979229 31.1374069,44.0016373 30.9696394,44.0030302 L22.4409817,44.003866 L22.4409817,42.1020878 L30.6344758,42.1020878 C30.7295647,42.1020878 30.9831351,42.1020878 31.0465277,42.0862397 C31.5853648,41.9911508 31.8072389,41.5790989 31.8072389,41.1987432 C31.8072389,40.8025395 31.601213,40.3587912 30.9989832,40.2795505 C30.9514388,40.2637023 30.7137165,40.2637023 30.6186276,40.2637023 L25.2212317,40.2635556 C25.0220292,40.2628219 24.7072673,40.2584196 24.4695451,40.232006 C22.9005781,40.0101319 22.1874113,38.6788872 22.1874113,37.5378204 C22.1874113,36.1431831 23.1383004,35.0496607 24.5012414,34.8594829 C24.7072673,34.8277866 24.9608377,34.8119384 25.2936489,34.8119384 L25.2936489,34.8119384 L33.2652688,34.8119384 Z M58.7173992,36.8880462 L56.3877211,40.6282098 L61.0312293,40.6282098 L58.7173992,36.8880462 Z M39.9531885,6 C52.8535834,6 64.7238485,13.5120235 70.1756124,25.11287 L70.1756124,25.11287 L70.3340939,25.4298331 C70.9680199,26.7293814 71.4593126,27.7595112 73.7889908,28.0289298 L73.7889908,28.0289298 L77.5608507,28.472678 L77.5608507,29.5662005 L68.4798602,29.5662005 L68.4481639,29.4711115 C64.3117965,17.3472761 52.8535834,9.20132649 39.9531885,9.20132649 C27.0527937,9.20132649 15.6104287,17.3472761 11.4582131,29.4711115 L11.4582131,29.4711115 L11.4106687,29.5978968 L2.34552634,29.5978968 L2.34552634,28.5043743 L6.11738626,28.0606261 C8.44706445,27.7912075 8.93835713,26.7610777 9.57228317,25.4615294 L9.57228317,25.4615294 L9.73076468,25.1445663 C15.1825286,13.5120235 27.0369455,6 39.9531885,6 Z" id="Combined-Shape" fill="#AAAAAA"/>
    </g>
<deepl-alert xmlns=""/><deepl-alert xmlns=""/><deepl-alert xmlns=""/><deepl-alert xmlns=""/></svg>