<svg xmlns="http://www.w3.org/2000/svg" width="80" height="80" viewBox="0 0 80 80">
  <path fill="#AAA" fill-rule="evenodd" d="M39.9841469,67.4836887 C24.9615888,67.4836887 12.5017228,55.0238181 12.5017228,40.0012025 C12.5017228,39.2200382 12.5375892,38.4460144 12.6037154,37.6801483 L35.5990025,39.1149966 L25.6530341,45.9863844 C25.5183752,46.0812217 25.4296181,46.2372515 25.4296181,46.413679 C25.4296181,46.7012617 25.6632231,46.9347911 25.9508069,46.9347911 L66.5600553,46.9347911 C63.4374278,58.6716249 52.6173925,67.4836887 39.9841469,67.4836887 M39.9841469,12.5176937 C55.0068073,12.5176937 67.4666861,24.9785837 67.4666861,40.0012025 C67.4666861,40.7762467 67.4324965,41.5451719 67.3667671,42.3059437 L44.3937653,40.8455927 L54.3623262,34.0149978 C54.497894,33.9201554 54.5855758,33.7641303 54.5855758,33.5877041 C54.5855758,33.3001202 54.3530844,33.0665856 54.066563,33.0665856 L13.4082896,33.0665856 C16.5319667,21.3297574 27.3509012,12.5176937 39.9841469,12.5176937 M79.3992958,43.0707872 L71.8803878,42.5925067 C71.9488693,41.7379175 71.9853373,40.8731294 71.9853373,40.0012025 C71.9853373,22.3271127 57.6582694,8 39.9841469,8 C24.692335,8 11.9071244,18.7272346 8.73965758,33.0665856 L2.83503084,33.0665856 C2.44853929,33.0665856 2.10279102,33.2501531 1.88357349,33.5356953 L0.126415531,35.9617918 C0.0472970216,36.0637678 0,36.191247 0,36.329938 C0,36.6623906 0.268255394,36.9305948 0.600716975,36.9305948 L8.09008195,37.3976654 C8.02070445,38.2563335 7.98400605,39.1241756 7.98400605,40.0012025 C7.98400605,57.6742641 22.3110867,72.0013824 39.9841469,72.0013824 C55.2760228,72.0013824 68.0611821,61.2741478 71.229737,46.9347911 L77.1639195,46.9347911 C77.5514095,46.9347911 77.8960954,46.7512301 78.1154281,46.4656871 L79.8735333,44.0395915 C79.9526518,43.937615 80,43.8101362 80,43.6714442 C80,43.3389923 79.7307462,43.0707872 79.3992958,43.0707872"/>
<deepl-alert xmlns=""/><deepl-alert xmlns=""/><deepl-alert xmlns=""/><deepl-alert xmlns=""/></svg>