<svg xmlns="http://www.w3.org/2000/svg" width="73" height="80" viewBox="0 0 73 80">
  <path fill="#AAA" fill-rule="evenodd" d="M68.4146604,10.3862801 C66.2950572,10.1192235 64.171639,9.88157488 62.0464721,9.6749239 L62.0463132,10.4419169 C62.9721095,10.5320486 63.8987007,10.6275849 64.8227485,10.7291618 L64.8221127,14.7172077 C65.1028401,14.7483644 65.3818189,14.779362 65.6609567,14.8111545 L65.6615925,10.8232675 C66.5802356,10.9272288 67.4980839,11.0375487 68.4145015,11.1531142 L68.4146604,10.3862801 Z M63.1097709,30.1300324 C63.054452,29.8772824 62.9706789,29.769506 62.7600538,29.6127691 C60.5792502,27.9934203 56.6557429,25.6943487 54.3226534,24.7168896 C54.0217378,24.5905145 53.6860094,24.5827254 53.3796891,24.6951117 C52.2656814,25.1012604 50.4864165,25.8485421 48.6372081,26.7144097 L48.6777435,26.71743 C48.7686699,26.7242654 49.0012318,26.7422281 49.249054,26.7633701 L49.4620635,26.7821276 C49.6027451,26.7948446 49.7367503,26.8080385 49.8402347,26.8199607 C50.0392555,26.8433281 50.1155574,26.8387182 50.3083787,26.7867375 C50.8757151,26.6333389 51.8840129,26.3837681 52.675963,26.2047766 C53.0631952,26.1171884 53.4688669,26.2033459 53.7867915,26.4398818 C54.8739346,27.2480461 56.6212481,28.6526369 57.738753,29.5895606 C57.9330049,29.752338 58.1536446,29.8834819 58.3900215,29.9780645 C60.0944152,30.6600127 60.8429686,31.0005099 61.2246371,31.1960335 C61.4928065,31.333218 61.6854688,31.5791327 61.7608169,31.8698747 C62.202891,33.575858 62.4993557,36.1899928 62.6530722,38.0765573 C62.6816854,38.4262743 62.6351095,38.7759914 62.5174774,39.106315 C62.0370933,40.4600379 60.8442403,42.7103081 60.1772345,43.7850521 C60.1174647,43.8810653 60.0535619,43.9556186 59.9386321,44.0548111 C59.7022552,44.2586008 59.2846613,44.5935343 58.9807254,44.8292754 C58.9209556,44.8750565 58.8859839,44.9440462 58.8851891,45.0192353 C58.8788306,45.6840156 58.7610395,46.9126352 58.7397386,47.1305725 L58.7364003,47.1639545 C60.3737119,45.1179509 61.9294759,42.4655061 63.3118119,39.6469458 C63.425311,39.4151788 63.4690257,39.2848297 63.4922341,39.0676872 C63.8152455,36.0443834 63.6216294,32.4532663 63.1097709,30.1300324 L63.1097709,30.1300324 Z M57.6077681,39.9499279 C57.5851954,39.7652137 57.5230412,39.604026 57.4321148,39.4426792 C56.9596788,38.6035173 54.6011553,35.4193437 51.651769,32.3481922 C51.5444695,32.2364417 51.4147562,32.1464691 51.272485,32.0851096 L50.7914651,31.8765511 C50.7914651,31.8765511 51.6497025,35.620431 52.0342323,37.6677063 C52.0823978,37.9282455 52.2105215,38.1670069 52.3985738,38.3539465 C53.717484,39.6575962 54.5871667,40.6727294 55.3145781,41.745248 C55.6315489,42.2114844 55.8140376,42.7541817 55.8521886,43.3156365 C56.0521631,46.289503 55.9551961,50.3759466 55.6221701,52.6527635 C55.555247,53.1148668 55.4427017,53.2774853 55.1408323,53.5211745 C53.9808845,54.4568265 52.5127088,55.681472 51.0419897,56.9402943 L50.3641745,57.5225732 C48.4496326,59.1743504 46.6115517,60.8169077 45.5341053,61.8795706 C45.3209368,62.0905136 45.2425684,62.1849372 45.1117425,62.3820504 C44.8457986,62.7835892 44.5604612,63.3774723 44.5604612,63.3774723 C44.5604612,63.3774723 44.0796003,61.9057994 43.9724597,61.1030398 C43.9228635,60.7277299 43.9180946,60.6245633 43.9726187,60.242418 C44.2177385,58.5232408 45.4231496,54.5595161 45.6199449,53.9648382 C45.6369539,53.9134934 45.6455378,53.8599231 45.6456968,53.8058759 L45.644902,53.4335862 C45.2087095,54.3430095 42.9670232,59.3720995 42.4926798,61.1020861 C42.3922156,61.4665866 42.4092246,61.6091758 42.5041251,61.8813192 C42.7947081,62.7157123 43.6415002,64.7801555 44.030163,65.6261528 C44.030163,65.6261528 44.064181,65.5625679 44.122997,65.4535198 L44.2048626,65.3020287 C44.4978301,64.7609211 45.0947335,63.6707577 45.4856218,63.037293 C45.6348874,62.7945576 45.817694,62.5758255 46.0267294,62.3822094 C46.8601687,61.6133088 48.8243068,59.9422972 50.8917703,58.2355191 L51.432719,57.7899478 C53.1490348,56.3804292 54.8747294,54.9977752 56.0308622,54.1306359 C56.389958,53.8616717 56.499642,53.6709169 56.5975627,53.2987862 C57.6810497,49.1719662 58.1372715,44.4278956 57.6077681,39.9499279 L57.6077681,39.9499279 Z M41.6020141,68.1428438 L41.4575173,67.0277234 C41.4451183,66.9245568 41.4195254,66.8245695 41.3767645,66.7290332 C40.9920758,65.8668217 38.9889919,61.1380115 38.4475664,59.3280669 C38.2563347,58.6874489 38.2323314,58.5146569 38.3062489,57.7926501 C38.4369159,56.5222235 38.6608938,55.0373568 38.9201613,53.5412037 L39.0188768,52.9802258 C39.6534543,49.4285313 40.4460403,45.9590204 40.6175606,45.3007575 C40.6703361,45.0961731 40.6625469,45.0402184 40.6261446,44.8315009 C40.5608111,44.4633442 40.3465299,43.1938714 40.3465299,43.1938714 C39.6218208,44.8671084 37.0426577,51.7803784 36.0890429,55.8490182 C35.9102103,56.6158523 35.9412079,56.8213906 36.1027136,57.2385076 C37.4726507,60.7803464 40.9601243,67.1757172 41.6020141,68.1428438 L41.6020141,68.1428438 Z M38.6189277,67.5685131 L38.343764,67.0854267 C38.3243706,67.0534752 38.2986187,67.0258158 38.2684159,67.0048328 C38.2684159,67.0048328 37.5082582,66.5130035 37.2750605,66.3578563 C37.032643,66.1973044 36.9487109,66.1275199 36.8336222,66.0235586 C35.2481324,64.5903546 29.6831805,57.7657855 28.0163019,54.7995492 C27.7357335,54.3024741 27.6541858,54.0673689 27.6813684,53.5656839 C27.712684,52.9950093 27.8247524,51.8900624 27.9374566,51.242609 C28.007559,50.8391627 28.1000751,50.5733777 28.4437515,50.2616527 C29.3897361,49.4050049 30.9181585,47.8737212 31.7166261,47.0636493 C32.0663432,46.7091634 32.2412017,46.4828011 32.4270286,46.1354685 C32.8044051,45.4304708 33.5814128,43.8017431 34.3488827,42.1157891 L34.6186417,41.5198395 C35.2441583,40.1300322 35.8305702,38.7709046 36.1491306,37.9257021 C36.2807514,37.5729648 36.2891764,37.4736133 36.2387854,37.1052977 C36.1860099,36.7226755 36.0405594,36.117665 35.8773051,35.5048654 L35.7870145,35.1710446 C35.5287008,34.2306237 35.2606904,33.3644381 35.2606904,33.3644381 L35.1889984,34.267026 C35.1835937,34.3291803 35.1867729,34.3911756 35.1967875,34.4523761 C35.2635517,34.8432643 35.5175734,36.3894905 35.5088305,37.1835072 C35.5058102,37.4572402 35.4932522,37.5580223 35.3447814,37.8479695 C34.6955794,39.1220523 32.9571678,41.623006 31.0701265,44.1217342 L30.6325033,44.6978136 C29.3873517,46.3265412 28.1094538,47.9137797 27.0618923,49.1161704 C26.7500083,49.4744714 26.6606715,49.712438 26.574355,50.1179508 C26.4320838,50.7902023 26.2693064,52.3238705 26.1642323,53.5437471 C26.1081186,54.1989897 26.1508795,54.4229675 26.5681555,55.1155662 C28.2412336,57.8888223 33.9306529,64.5312206 35.7874914,66.0699756 C35.9094155,66.1717114 36.0407183,66.2599355 36.1807641,66.3352836 C36.5201486,66.5174544 37.1658534,66.843645 37.7075969,67.1148347 L38.0608111,67.2914418 C38.2059437,67.3637696 38.3323187,67.4264008 38.4278551,67.4739305 L38.5467588,67.5327466 C38.5931758,67.555955 38.6189277,67.5685131 38.6189277,67.5685131 L38.6189277,67.5685131 Z M25.9855587,48.3909845 C26.2569073,48.144434 26.7101088,47.7265221 26.7101088,47.7265221 C26.7101088,47.7265221 25.1726255,48.1016731 24.5949566,48.2108802 C24.3757476,48.2528462 24.2576386,48.135691 24.2258461,47.988333 C24.1396886,47.5896556 23.914439,46.2233747 23.8444956,45.8208822 C23.8057088,45.5999246 23.8734267,45.4789543 24.0730834,45.4145745 C25.0502246,45.0991934 26.6942126,44.544256 28.0180505,44.0799272 C28.3585477,43.9597517 28.4650525,43.8247927 28.6562841,43.520062 C28.9467082,43.0587534 29.4582489,42.1820764 29.972015,41.27313 L30.2509938,40.7765318 C30.6199453,40.1160435 30.9688675,39.4759023 31.2135105,39.0028306 C31.3044369,38.8260645 31.2974426,38.6167112 31.1949119,38.4461446 L30.9019444,37.959879 C30.8016392,37.7931275 30.566216,37.6171563 30.3773688,37.5689907 C29.031912,37.2253142 27.2520112,36.7900755 26.4109418,36.5883523 C26.224479,36.5432071 26.0292733,36.5502014 25.8458308,36.6090174 L25.6919553,36.6579778 C26.9814574,37.0962369 28.0789331,37.4888737 29.4709659,38.0171054 C29.5906645,38.0627276 29.7203777,38.2008658 29.7577338,38.3234257 L29.8850626,38.7421324 C29.9364074,38.9128579 29.9208291,39.0950287 29.8392815,39.253991 C29.2474649,40.4083751 28.222794,41.939023 27.4057278,42.9229996 C27.2828499,43.0709935 27.1250004,43.1841747 26.9447371,43.2515747 C26.1550125,43.5462907 24.7162448,44.0204753 24.0904103,44.1810272 C23.9645121,44.2126607 23.9029937,44.1978772 23.800463,44.1258673 C23.3450361,43.8077837 22.4039793,42.9276095 22.4039793,42.9276095 C22.4039793,42.9276095 22.3244982,43.8844035 22.3196827,44.3132838 C22.3189345,44.3612904 22.3283133,44.4078664 22.3469119,44.4512631 C22.5069869,44.826573 22.7905756,45.543175 22.9086846,45.9076756 C22.9388874,46.0022581 22.9638445,46.0852364 22.9886426,46.1814086 C23.1464922,46.8110583 23.5822078,48.66281 23.5822078,48.66281 C23.6459517,48.9436963 23.8044371,49.0412992 24.0532131,48.9878879 C24.3719325,48.9181034 25.3948548,48.6321303 25.8137204,48.4927203 C25.8782591,48.4717373 25.9358035,48.4375604 25.9855587,48.3909845 L25.9855587,48.3909845 Z M21.0632914,38.69349 C20.3910398,38.7957027 19.7729945,39.2268084 19.5614157,39.6835071 L20.7218404,41.0421578 L21.0632914,38.69349 Z M24.4266155,43.4590205 C25.1277982,43.245852 26.0801412,42.9249072 26.6514517,42.7118977 C26.7547772,42.6729519 26.8457036,42.609526 26.9142164,42.5271835 C27.4365665,41.8976928 28.1277345,40.8898719 28.7061983,39.9407081 L24.4266155,43.4590205 Z M19.4366303,37.0975086 C19.4871803,36.9183581 19.5990897,36.7765637 19.8229086,36.7214038 C21.6365094,36.2728122 25.550161,35.624405 25.550161,35.624405 C25.1382897,35.1333705 23.7619942,33.7195599 23.3461488,33.3628485 C23.2210455,33.2550721 23.1037313,33.2015018 22.9396822,33.1829032 C22.4337053,33.124564 20.7765234,33.0042296 20.7765234,33.0042296 C20.7765234,33.0042296 20.9195895,32.8460621 21.026889,32.7374909 C21.1256046,32.6367088 21.18299,32.5987168 21.3160414,32.5521408 C23.3486922,31.8507992 26.0585224,30.827559 27.6441712,30.1686603 C27.9886425,30.0252763 28.1526916,29.9244942 28.4270605,29.6415413 C28.5467591,29.5181866 28.7877459,29.2492224 28.9254073,29.0840606 C28.9533846,29.0508374 28.9689629,29.0266752 28.9759573,28.9840733 C28.9853361,28.934477 28.9977351,28.8452992 28.9977351,28.8452992 C28.9977351,28.8452992 28.3205558,29.3515941 28.0531812,29.5367852 C27.8075845,29.7081465 27.6489401,29.786356 27.3591518,29.8615451 C26.8008763,30.0065187 25.752361,30.2544999 25.1289109,30.393115 C24.9586623,30.4304712 24.8771146,30.4326966 24.7232391,30.3761061 C24.6229339,30.3395447 24.4324971,30.2643556 24.3182032,30.2115801 C24.1962791,30.1541947 24.1395296,30.1465645 24.0074319,30.1759725 C23.4539253,30.300599 21.9450552,30.6711401 21.9450552,30.6711401 C21.9450552,30.6711401 22.6394025,30.0532536 22.6913831,30.0128772 C22.7575115,29.9624862 22.7886681,29.9453182 22.9005775,29.9012857 C23.4229276,29.6927272 24.0687914,29.4601653 24.6138731,29.2393667 C24.7389764,29.1889757 24.7917519,29.128411 24.8019255,29.0058511 C24.8368972,28.5879393 24.9559599,27.8335042 25.0276519,27.4364164 C25.048476,27.3240301 25.0842425,27.2620348 25.1745331,27.1906607 C25.4924577,26.9395003 26.66703,26.0424761 26.9461678,25.8370968 C26.9639716,25.8191341 26.9811395,25.8029199 26.9989433,25.785911 L27.316232,25.3966123 L27.316232,25.3966123 C26.4805673,25.8811294 24.9887062,26.7633701 24.2183749,27.2470923 C23.8880513,27.454856 23.7270225,27.5658117 23.4014677,27.8223769 C23.3649064,27.851149 23.3329549,27.8843722 23.3041828,27.9201387 C23.1005521,28.1735246 22.2756968,29.2404795 21.9849547,29.6312088 C21.9468038,29.6831894 21.899433,29.7265861 21.8472934,29.7637833 C19.0821443,31.7314185 17.5336927,32.9843593 16.9202572,33.4990792 C16.6698916,33.7426094 16.432084,33.9797812 16.2136698,34.2053487 C16.0184641,34.4069128 15.972683,34.4828968 15.9602839,34.6426539 C15.9501103,34.7776129 15.9399368,34.9591478 15.9405443,35.0621554 C15.9405443,35.1211304 15.9555151,35.1669116 15.9881023,35.215713 C16.0268891,35.2738932 16.2453033,35.5213975 16.297443,35.5732192 C16.3214463,35.5965866 16.3572128,35.6050116 16.3851901,35.5856182 C16.7942001,35.2988503 17.3685309,34.8731492 17.8886555,34.4770152 C17.9298267,34.4453817 18.0069234,34.3686029 18.0355366,34.3188477 C18.1234428,34.1676746 18.2393263,33.9498963 18.3052956,33.811758 C18.3488513,33.7203547 18.3777824,33.6915825 18.4826976,33.6249773 C18.552641,33.5811037 18.7155773,33.478891 18.8163594,33.415624 L18.8907538,33.369048 C18.8977481,33.3645971 18.9015632,33.3622127 18.9015632,33.3622127 L18.8990198,33.3730221 L18.8788316,33.453457 C18.8158825,33.7017561 18.6351424,34.389427 18.4979579,34.6609346 C18.4397777,34.7757054 18.3846178,34.8556634 18.3410622,34.9012856 C17.9336418,35.3246021 17.195103,36.1480268 16.8274232,36.5993207 C16.7029558,36.7504939 16.7449218,36.9388642 16.8444322,37.0870171 C17.1831808,37.588702 17.8880196,38.4542517 18.3170588,38.9064994 C18.4491565,39.0459094 18.510516,39.1034537 18.6310094,39.1724433 C18.8066627,39.2732254 18.9325608,39.3136019 18.9325608,39.3136019 C18.9325608,39.3136019 19.2865699,37.6231969 19.4366303,37.0975086 L19.4366303,37.0975086 Z M13.3153104,13.5577368 C14.6459837,13.3951184 15.9790415,13.244899 17.3120992,13.1062839 C18.2760466,13.0064556 18.8147698,12.604122 18.8149288,11.6083822 L18.8149288,11.0702949 C18.8150877,10.0971277 18.2765235,9.72324844 17.3125761,9.8224409 C15.6989499,9.99046405 14.0875492,10.1754962 12.477897,10.378332 L12.4771022,15.1325762 C12.75624,15.0969687 13.0360136,15.0627918 13.3149925,15.0287738 L13.3153104,13.5577368 Z M20.6817819,14.2531968 C22.7012388,14.0743642 24.7214906,13.9227142 26.743173,13.7990416 L26.7433319,13.0328433 C24.9950647,13.139507 23.2477512,13.2673127 21.5020273,13.4159424 L21.5021863,12.1310502 C23.0552478,11.9994295 24.6089453,11.8840228 26.1635964,11.7851483 L26.1637554,11.0181553 C24.6091042,11.1171888 23.0552478,11.2324364 21.5023452,11.364852 L21.5025042,10.1939358 C23.248228,10.0461008 24.9955415,9.91845413 26.7436498,9.81083666 L26.7438088,9.04479738 C24.7221264,9.16847004 22.7020336,9.31948422 20.6825767,9.4983168 L20.6817819,14.2531968 Z M27.1890622,28.4509138 C27.16029,28.3833548 27.0903466,28.3423425 27.0164291,28.348542 L26.2516616,28.4133987 C26.1903021,28.4181675 26.1419776,28.4669689 26.1365729,28.5281694 L26.064245,29.4339366 C26.0610658,29.4813073 26.1038266,29.5183455 26.1504026,29.5083309 L26.9239131,29.3371285 C27.0162702,29.3169403 27.1291334,29.2317365 27.1656947,29.1439893 C27.2598004,28.9285954 27.2861881,28.6764812 27.1890622,28.4509138 L27.1890622,28.4509138 Z M28.8227176,27.6626198 C29.2501672,27.6300325 29.596864,27.5634273 30.0073046,27.4394367 L33.5434208,26.3363974 C33.7516614,26.2737662 33.9273147,26.1318129 34.0323888,25.9410582 L35.9184763,22.7023605 C35.9628268,22.6255817 35.9068721,22.5295685 35.8175353,22.5302012 L34.2061346,22.552459 C34.0670425,22.5540486 33.8890048,22.581867 33.7569071,22.6260586 C32.3561314,23.0927718 30.3560679,23.9786687 29.2312507,24.5685777 C29.1045578,24.6353419 28.985495,24.7423235 28.8945686,24.8539151 L27.1920825,26.9442692 C27.1369226,27.0132588 27.0645947,27.0668291 26.9820933,27.1016418 L25.8798488,27.5681962 C25.8270733,27.5907688 25.7843124,27.6317811 25.7601502,27.6837617 L25.7089643,27.7939226 C25.7089643,27.7939226 28.0383977,27.7212768 28.8227176,27.6626198 L28.8227176,27.6626198 Z M44.2908612,29.5520455 C44.6749141,28.9921804 45.3614722,27.9501825 45.6957699,27.370924 C45.8054539,27.180964 45.8456714,26.9608012 45.809269,26.7452484 C45.7192963,26.2263955 45.5848142,25.6161392 45.4752892,25.1554665 C45.4544652,25.0686731 45.395967,24.9965042 45.3168038,24.9585122 L44.5092754,24.5730287 C44.4027707,24.5226376 44.2838669,24.5062645 44.1681423,24.5264527 C42.2184698,24.8688575 40.1688101,25.2734165 38.6189277,25.6252001 C38.491281,25.6538133 38.3833456,25.7336124 38.3180121,25.8461577 L37.8358795,26.6789611 C37.7985233,26.7431819 37.8350847,26.8255243 37.9082073,26.8393541 C38.3146739,26.915497 39.1431854,27.0636499 39.4277279,27.1056159 C39.6019505,27.1320036 39.6609255,27.1273937 39.8047864,27.0676239 C40.7873323,26.6614753 42.3933283,26.0389789 43.5871351,25.6072373 C43.6820356,25.5732194 43.7847253,25.5716298 43.8802616,25.6019916 L44.4282046,25.777327 C44.5081626,25.8035558 44.5758806,25.8579209 44.616257,25.9308846 C44.7669533,26.1936492 44.924167,26.4837554 45.0173189,26.6745102 C45.084083,26.810264 45.0467269,26.9916399 44.9332278,27.1560069 C44.5273971,27.7406702 43.8330498,28.6634463 43.3566398,29.2401615 C43.2515657,29.3665365 43.2173889,29.5363083 43.2623752,29.6954295 C43.5421488,30.6592179 44.1498616,32.6405239 44.4744626,33.5888929 C44.5134084,33.7044585 44.5731782,33.7930005 44.6641047,33.8766146 L45.1211212,34.2916652 C45.1211212,34.2916652 44.3954584,30.9393094 44.2217126,29.9793362 C44.1953249,29.8295937 44.2053395,29.6776257 44.2908612,29.5520455 L44.2908612,29.5520455 Z M27.4317976,24.4825791 C28.0358543,24.1439895 28.6720214,23.7887088 29.3148649,23.4315205 L29.8669409,23.1252002 C32.353588,21.7482688 34.8329229,20.4075808 35.8498046,19.9623275 C36.0518457,19.8731496 36.2664448,19.8205331 36.4864486,19.8043189 C39.0034575,19.6157897 41.7323631,19.5641269 43.853397,19.5603118 L44.3318735,19.5603118 C45.7323312,19.5625373 46.8110493,19.5841562 47.2960433,19.5957604 C47.4818702,19.6003703 47.6645179,19.6315269 47.8401712,19.6895482 L48.7495945,19.9930072 C46.5147436,20.1096855 41.1159074,20.5889568 38.9314476,20.9639489 L39.7017788,21.0841243 C39.7561439,21.0927083 39.8098732,21.0950927 39.8658279,21.0919135 C41.4816796,20.9922441 44.6461419,20.89178 46.0351544,20.8719097 C46.374062,20.866505 46.5505102,20.8976616 46.8964121,21.0294413 C47.7047353,21.3373513 49.3275814,22.071916 49.9976074,22.4109826 C50.3481193,22.5885435 50.5921264,22.6483133 50.9504274,22.6630968 C51.677203,22.6926638 52.7878725,22.7696015 53.6093896,22.8573487 C53.8325727,22.8807161 54.0493972,22.9450959 54.2500076,23.0450832 C55.938982,23.8945776 57.9541469,25.0990349 59.3345754,26.0243544 C59.4153283,26.0785605 59.5046651,26.1159167 59.6003604,26.1345153 L60.2827855,26.2694742 C60.2827855,26.2694742 58.0949875,24.0358951 57.2315043,23.2766912 C57.1071958,23.1673252 56.9720779,23.071153 56.828217,22.9889695 C53.5685363,21.1281569 50.6367948,19.6110208 48.9845407,18.9174683 C48.7195506,18.8057178 48.4404128,18.7383178 48.1536448,18.71654 C43.1099303,18.3350305 37.82968,18.4272286 33.9276326,18.7686796 L33.9276326,18.7685207 C33.6494486,18.7934777 33.4264245,18.927483 33.2957575,19.1190325 C33.1425179,19.3399901 32.8937419,19.7385086 32.6659489,20.1060294 C32.5548343,20.2859747 32.4195574,20.4473214 32.2601182,20.5860955 C31.5557563,21.2008027 30.3741896,22.1932042 29.6256362,22.7559308 C29.5610975,22.8040963 29.5285102,22.8288944 29.4771654,22.8638661 C29.373204,22.9350813 29.1888078,23.058277 28.9823158,23.1954615 L28.7276582,23.3641205 C28.3836638,23.5914365 28.0425307,23.8155734 27.9425434,23.8809069 C27.8710104,23.9274828 27.8547963,23.9398819 27.8018618,24.0072819 C27.742092,24.0848555 27.4317976,24.4825791 27.4317976,24.4825791 L27.4317976,24.4825791 Z M28.8025294,12.3674272 C28.8023705,13.4445556 29.4568182,13.6478684 30.5279061,13.5998618 C31.5328657,13.5550344 32.5379843,13.5179962 33.5429439,13.4871575 C34.697328,13.45155 35.2700692,13.2127886 35.2703871,12.1250097 L35.270864,8.68586053 L35.270864,8.68586053 L35.270864,8.68586053 C34.9895007,8.69206006 34.7087733,8.6990544 34.4282049,8.70668459 L34.427728,12.2906484 C34.427728,12.5087446 34.2612945,12.6993404 34.0110878,12.7063348 C32.6934494,12.7441678 31.3767648,12.7936051 30.0592853,12.8546466 C29.8105093,12.8662508 29.6232517,12.688531 29.6232517,12.4707527 L29.6238876,8.8866299 L28.8030063,8.92843699 L28.8025294,12.3674272 Z M37.3291077,12.0870177 C37.3289487,13.1957797 37.9110686,13.3928929 39.056074,13.3852627 C40.619945,13.3762019 42.183816,13.3827193 43.7476871,13.4062457 L43.7481639,10.5889571 C42.63511,10.572584 41.5218971,10.563841 40.4090021,10.5636821 L40.4088431,11.3305162 C41.2475282,11.3300393 42.087008,11.3346492 42.9264879,11.3441869 L42.9261699,12.6290791 C41.4797721,12.612547 40.03401,12.6100036 38.5874532,12.6220848 C38.369039,12.6244692 38.1506248,12.4089163 38.1506248,12.190979 L38.1511017,9.80892911 C38.1511017,9.59099181 38.3695159,9.4026215 38.5879301,9.40023706 C40.2007615,9.38736112 41.8135929,9.39228895 43.4257884,9.41343093 L43.4259474,8.64723269 C41.9178721,8.62688552 40.409161,8.62116288 38.9006089,8.63181335 C37.8497092,8.63944354 37.3295846,8.97978181 37.3294256,10.0151032 L37.3291077,12.0870177 Z M45.8022747,13.4458273 C47.8261825,13.4951057 49.8496135,13.5714076 51.8727266,13.674733 L51.8728855,12.9086938 C50.1239824,12.8184032 48.3744435,12.7490956 46.6239507,12.7007711 L46.6241097,11.4166737 C48.1809864,11.4595935 49.7372272,11.5195223 51.2925142,11.5950294 L51.2925142,10.8280364 C49.7372272,10.7525293 48.1811453,10.6933953 46.6242687,10.6498396 L46.6244276,9.47955925 C48.3749204,9.52804274 50.1244593,9.5973503 51.8733624,9.68668711 L51.8735214,8.92064783 C49.8502494,8.81636857 47.8269773,8.74006667 45.8029105,8.69174214 L45.8022747,13.4458273 Z M53.932083,12.4744088 C53.9319241,13.6041538 54.514044,13.8244755 55.6566649,13.9014133 C56.705975,13.9729463 57.7538544,14.0522685 58.8022107,14.138426 C59.9333864,14.2315779 60.5247261,14.0393925 60.5248851,12.9716428 L60.525203,10.8485425 C60.525362,9.76060457 59.8405524,9.46970358 58.8030055,9.38418187 C57.7543313,9.2972295 56.7067698,9.21870213 55.6573008,9.14653325 C54.4626992,9.06562144 53.9325599,9.2849894 53.9325599,10.3513084 L53.932083,12.4744088 Z M73.2463192,6.33003939 C73.4846037,13.2105632 73.4838089,18.6850655 73.2453655,23.0398374 C72.5165234,36.3716867 69.5822384,46.7007384 64.0093385,55.5446054 C58.4370744,64.3875187 50.0818574,71.691518 40.4365026,76.1659885 C30.7919425,71.6888156 22.4394279,64.382114 16.8700251,55.5374521 C11.2998275,46.6921545 8.36792703,36.36199 7.64401277,23.0299817 C7.40668207,18.6750508 7.40763584,13.2005485 7.64798682,6.32018373 C18.5535947,4.50499334 29.5833522,3.5861913 40.4474709,3.58777887 C51.3107949,3.58952951 62.3411882,4.51151079 73.2463192,6.33003939 L73.2463192,6.33003939 Z M74.5165869,5.22064157 C62.9064581,3.22216766 51.4681676,2.28285949 40.4476299,2.28126742 C29.4274102,2.27952128 17.9878479,3.21533228 6.37724228,5.21030902 C6.20333753,9.8481928 6.00479363,17.0169152 6.33575312,23.1002431 C7.07286126,36.6635415 10.0677108,47.1911371 15.7607863,56.2319584 C21.4366938,65.2465509 30.2273084,72.998347 40.4363436,77.6028487 C50.6468094,73.0013673 59.4388547,65.2522735 65.1176236,56.2394296 C70.8141962,47.2003569 73.8114302,36.6735561 74.5533072,23.1105756 C74.8845846,17.0274067 74.6892199,9.85852534 74.5165869,5.22064157 L74.5165869,5.22064157 Z M76.7088358,23.3431375 C75.9509036,37.2256322 72.8665583,48.0379292 66.9968758,57.3731487 C61.1141583,66.7353917 52.258846,74.503084 42.0680915,79.2417499 L40.4361846,80 L38.803165,79.241273 C28.6124105,74.4994279 19.762185,66.7291922 13.8810572,57.3650416 C8.01407698,48.0282325 4.93179817,37.2148227 4.17927069,23.3321691 C3.93955556,18.9031617 3.94050933,13.3784273 4.18054239,6.44560498 L4.28959052,3.28146059 L7.41240471,2.75863362 C18.4011499,0.926911151 29.516588,-0.00158758525 40.4482658,1.42108547e-14 C51.3799435,0.00175062284 62.493633,0.933587567 73.4806296,2.76864824 L76.6034438,3.29242899 L76.7126509,6.45657337 C76.9518892,13.3908264 76.9510944,18.9154018 76.7088358,23.3431375 L76.7088358,23.3431375 Z M17.9954781,11.8865662 L17.9956372,10.9235727 C17.9957961,10.7056354 17.7781767,10.5412684 17.5611932,10.5636821 C16.1449981,10.7092915 14.7295979,10.8679359 13.3156283,11.0407279 L13.3153104,12.7909027 C14.72928,12.6189055 16.1448392,12.4594663 17.5610342,12.3146517 C17.7778588,12.2912842 17.9954781,12.0936941 17.9954781,11.8865662 L17.9954781,11.8865662 Z M54.7529643,12.6397296 L54.7532822,10.2885183 C54.7532822,10.0395834 54.9405398,9.86520176 55.1902696,9.88236969 C56.5511457,9.9717065 57.9105913,10.0742372 59.2700368,10.1891669 C59.4876561,10.2077655 59.7052755,10.4133037 59.7052755,10.6614439 L59.7049576,13.0134499 C59.7047986,13.2305924 59.4871792,13.4297722 59.2695599,13.4111736 C57.9101144,13.2962438 56.5506689,13.1935542 55.1896337,13.1034226 C54.9400629,13.0862546 54.7529643,12.8575079 54.7529643,12.6397296 L54.7529643,12.6397296 Z" transform="translate(-4)"/>
<deepl-alert xmlns=""/><deepl-alert xmlns=""/><deepl-alert xmlns=""/><deepl-alert xmlns=""/></svg>