<svg xmlns="http://www.w3.org/2000/svg" width="80" height="80" viewBox="0 0 80 80">
  <path fill="#AAA" fill-rule="evenodd" d="M53.9422476,61.867141 C54.0658021,61.3482398 54.8611839,61.0965804 55.0310713,61.0207378 C55.1586248,60.9639248 55.2039924,60.7984501 55.0310713,60.7984501 C53.7799445,60.6332511 52.8101246,61.2710183 52.6372035,61.4934439 C52.4641446,61.4439394 51.6178792,61.3821622 51.3707703,61.4069834 C51.509769,60.7722499 52.5368155,60.1929504 53.089639,59.7281043 C53.0093838,59.7956732 53.2380147,59.5304999 53.0649557,59.5304999 C51.5483798,59.4980945 50.2433358,61.1258142 50.1444646,61.4964776 C50.0209101,61.5211609 48.7900539,61.7682699 48.542945,61.8424577 C48.7684043,60.3861422 50.5753884,59.4346625 50.7236262,59.3359292 C50.871864,59.2370581 50.9213685,59.0888203 50.7236262,59.0888203 C48.6448499,59.1581818 46.9290148,61.7281423 46.8549648,62.296548 C46.5336681,62.4201024 45.8077856,62.6702451 45.5606767,62.8184828 C45.4100946,61.124849 47.2492084,59.600413 47.218044,59.6540544 C47.3116751,59.5540801 47.3741418,59.3946727 47.1591626,59.4425225 C45.0587366,59.7388602 44.2139881,62.8000048 44.1768942,63.2077621 C44.1275276,63.5906983 43.657993,63.6277922 43.5742904,63.5858719 C43.4722476,63.524922 43.3529679,63.4900345 43.2255524,63.4900345 C42.8492353,63.4900345 42.5440723,63.7950595 42.5440723,64.1713767 C42.5440723,64.2357739 42.5530355,64.2794868 42.5697209,64.3385061 C42.3250941,64.4419278 42.2167081,64.6428418 42.2167081,64.9251141 C42.2167081,65.3014312 42.459956,65.6065942 42.8362731,65.6065942 C42.9925088,65.6065942 43.0935863,65.6245206 43.2084533,65.5361295 C43.3332489,65.6777483 43.5160985,65.7671047 43.7197703,65.7671047 C44.0960874,65.7671047 44.2880381,65.6664409 44.3127214,64.9004308 C46.8301436,63.5675318 50.505889,62.6640398 52.2015913,62.7551888 C54.1193056,62.8581968 55.5514894,64.2408761 55.6997271,64.3644305 C55.8479649,64.487985 55.9715194,64.487985 55.9468361,64.2903806 C55.8232816,63.4995493 55.2934867,62.6640398 53.9422476,61.867141 L53.9422476,61.867141 Z M17.1468726,6.58299851 C17.131842,6.44868818 16.9924295,6.25494485 16.6063218,6.33216639 C16.2202141,6.40938793 12.8996878,7.16216007 12.8996878,7.16216007 L12.9382986,7.95368086 L16.7800703,7.10424391 C17.1082618,7.02702237 17.1660401,6.75674697 17.1468726,6.58299851 L17.1468726,6.58299851 Z M18.6911655,6.19702869 C18.7297763,7.43243546 18.4981117,7.95368086 17.6293694,8.14673472 L13.0155202,9.18922553 L13.1892686,11.3128179 L11.8573349,11.6217041 L11.4710893,6.25494485 L16.9731241,5.01940019 C17.6679801,4.86481921 18.6525548,4.96148403 18.6911655,6.19702869 L18.6911655,6.19702869 Z M49.7990361,67.8189913 C49.8834282,67.464048 50.1958997,67.2532056 50.3121457,67.2014948 C50.3994336,67.1624703 50.4303222,67.0493959 50.3121457,67.0493959 C49.4563655,66.9363215 49.0247523,67.4691502 48.9062999,67.621249 C48.7879855,67.5874646 48.3828482,67.6030468 48.2137882,67.620008 C48.3089362,67.1857747 48.8184604,66.6737683 49.1965702,66.3559189 C49.1416877,66.401976 49.2979235,66.2206433 49.179609,66.2206433 C48.1422204,66.1984421 47.1144844,67.5822246 47.0469155,67.8356767 C46.8571712,67.8956613 46.3745365,67.9728828 46.1831374,68.0723056 C46.3374426,67.0761477 46.9361854,66.4447237 47.0376765,66.3771548 C47.1391677,66.3094481 47.1728142,66.2080948 47.0376765,66.2080948 C45.6158349,66.2556688 45.1370613,68.0521728 45.0864537,68.4407626 C44.8667859,68.5252926 44.5439723,68.6385049 44.3750502,68.7399961 C44.1545551,67.4709428 45.0379144,66.4485848 44.9229095,66.5635897 C44.9906162,66.495883 45.0413618,66.3775685 44.889125,66.4114908 C43.5945611,66.6409491 43.4537696,68.7852259 43.4283968,69.0640508 C43.3946124,69.3260524 43.0735914,69.3514252 43.0163648,69.322743 C42.9465896,69.2810985 42.8648175,69.2571046 42.7776675,69.2571046 C42.5203543,69.2571046 42.3115803,69.4658786 42.3115803,69.7233297 C42.3115803,69.7673184 42.3177856,69.7971038 42.329093,69.8375073 C42.1618257,69.9082477 42.0876378,70.0457296 42.0876378,70.2387835 C42.0876378,70.4962346 42.2540778,70.7048706 42.5115289,70.7048706 C42.6182601,70.7048706 42.6873458,70.7171434 42.7660842,70.6567451 C42.8514416,70.7535478 42.9765129,70.8147734 43.1157875,70.8147734 C43.3731007,70.8147734 43.6202096,70.7072149 43.6373087,70.1832116 C45.3899619,69.1120385 47.6609647,68.479925 48.8208047,68.5422538 C50.1324677,68.6127185 51.0348566,69.230215 51.1362098,69.314745 C51.237701,69.399275 51.322231,69.399275 51.3052699,69.2641373 C51.2207398,68.7231728 50.7954698,68.3010744 49.7990361,67.8189913 L49.7990361,67.8189913 Z M31.3261266,30.586901 C31.0211015,30.586901 30.8705195,30.4517633 30.8126033,30.1234338 L30.3569962,30.1234338 C30.3724405,30.3822639 30.4033291,30.5096794 30.491996,30.6525393 C30.6504381,30.9228147 30.9245745,31.0579524 31.3106823,31.0579524 C31.5886798,31.0579524 31.7662893,31.0000362 31.9247314,30.8571763 C32.1137863,30.687289 32.2141743,30.4517633 32.2141743,30.1853489 C32.2141743,29.8068255 32.0713144,29.6292159 31.7431229,29.4786339 L31.0171025,29.1427202 C30.9129913,29.0925262 30.8550752,29.0191658 30.8550752,28.930361 C30.8550752,28.7411682 31.0211015,28.6060305 31.2527661,28.6060305 C31.5114583,28.6060305 31.6388738,28.7334461 31.6852067,29.0423322 L32.148536,29.0423322 C32.1253695,28.4554485 31.8049001,28.1349791 31.2450439,28.1349791 C30.7353818,28.1349791 30.3994681,28.4747539 30.3994681,28.9882771 C30.3994681,29.331913 30.5384668,29.5442722 30.847353,29.6871321 L31.5539301,30.0154615 C31.700651,30.0849609 31.7585672,30.1543224 31.7585672,30.2587094 C31.7585672,30.4517633 31.5809577,30.586901 31.3261266,30.586901 L31.3261266,30.586901 Z M47.2239735,42.9343496 C47.648692,43.1274035 48.6139612,43.0887927 48.7297936,42.8185173 C48.8456259,42.5482419 48.8070151,42.0076911 48.7297936,41.8918588 C49.0000689,41.6601942 49.1931228,41.1582542 49.0386797,40.9265895 C48.8842366,40.6949249 48.8070151,40.3860388 48.8842366,40.0771526 C48.6139612,40.0386797 48.3243805,39.8068772 48.5174343,39.6331287 C48.7104882,39.4593803 49.0965959,39.0541051 48.9228474,38.5328597 C48.9807636,38.2046681 49.0000689,37.799255 48.4402128,37.8185604 C48.4209074,37.6062012 48.2471589,36.9112073 47.3784166,37.548285 C47.2432789,37.6448119 47.0888358,37.4324527 47.2818897,37.3745365 C47.4749435,37.3166204 48.4788235,36.9884288 48.6332666,36.6409319 C48.7877097,36.293435 48.7297936,36.1196865 48.6718774,35.9845488 C48.7490989,35.8301057 48.8263205,35.5212195 48.7490989,35.4053872 C48.6718774,35.2895549 48.3629912,35.3088603 48.150632,35.8301057 C47.9382728,36.3513511 47.9961889,36.3513511 47.4363327,36.447878 C46.8764766,36.544405 46.4517581,36.447878 46.0850937,37.0656504 C45.9691234,37.2200935 45.9112073,37.3938419 45.6409319,37.548285 C45.3706565,37.7027281 45.2162134,37.9536981 45.1776027,38.1660573 C45.1389919,38.3784166 45.3320457,38.7645243 45.293435,39.0347997 C45.2548242,39.3050751 45.100519,39.8842366 45.8146804,40.502009 C46.1621773,40.8879788 46.6834227,41.3899188 46.297315,41.7760265 C45.9112073,42.1621342 45.5637104,41.756859 45.2741296,41.5636673 C44.9846867,41.3706134 44.0387228,41.0810326 43.4209505,41.1196434 C42.8031781,41.1582542 40.7761127,40.6563142 40.2934781,40.2509011 C39.8108434,39.845488 40.1060779,39.6401614 40.3513942,39.5172964 C40.5251427,39.4400749 40.640975,39.3628533 40.7375019,39.1699374 C40.8340288,38.9768835 40.9884719,38.9382728 41.1622204,38.9382728 C41.3359689,38.9382728 41.5097173,38.899662 41.6641604,38.5328597 C41.8186035,38.1660573 41.9730466,38.301195 42.146795,38.2625843 C42.3205435,38.2239735 42.4363758,37.8571712 42.1274897,37.7413389 C41.8186035,37.6255066 41.644855,37.5096742 41.6641604,37.3938419 C41.6834658,37.2780096 41.895825,37.0270396 42.1854058,37.0077342 C42.4749866,36.9884288 42.4941541,36.795375 42.4749866,36.6409319 C42.4556812,36.4864888 42.4749866,36.3899619 42.6680405,36.293435 C42.8610943,36.196908 42.841651,35.9652434 42.5135974,35.8687165 C42.1854058,35.7721896 41.7027712,35.6563572 41.7027712,35.5019142 C41.7027712,35.3474711 41.9151304,35.0771957 42.1274897,34.9999741 C42.3398489,34.9227526 42.4363758,34.5945611 41.9537412,34.6138664 C41.4711066,34.6331718 41.2008312,34.691088 41.1043042,34.3823397 C41.0077773,34.0734535 40.9884719,33.8997051 41.4904119,33.7066512 C41.7027712,33.6487351 41.7606873,33.3591543 41.3745796,33.3784597 C40.9884719,33.3976272 40.5444481,33.5908189 40.4093104,33.4555433 C40.2741727,33.3204056 40.3127834,33.2047112 40.390005,33.146795 C40.4672265,33.0888789 40.4865319,32.895825 40.2934781,32.895825 C40.1004242,32.895825 39.3476521,33.1852679 39.1545982,32.9729087 C38.9614065,32.7605494 38.6526582,32.6447171 38.4015503,32.7992981 C38.1505803,32.9537412 38.1505803,33.1852679 38.285718,33.3204056 C38.4208557,33.4555433 38.2472451,33.6679026 38.092802,33.5327649 C37.938221,33.3976272 37.9961372,33.3012381 37.9961372,33.2431841 C37.9961372,33.1852679 37.8803049,32.992352 37.7453051,32.9149925 C37.6101674,32.837771 37.6101674,32.6255496 37.6486403,32.4902741 C37.6873889,32.3551364 37.532808,32.2199987 37.3011433,32.3551364 C37.0696166,32.4902741 36.8572574,32.7220766 36.9729518,33.0695735 C36.7221197,33.0888789 36.0850419,33.2431841 36.0657366,33.4363758 C36.0464312,33.6294297 36.1429581,33.8417889 36.1043473,33.9190105 C36.0657366,33.9960941 35.8533773,33.9960941 35.737545,34.0734535 C35.4093535,34.4016451 34.8494973,34.7103934 34.7143596,34.8455311 C34.5792219,34.9806688 34.482695,35.1158065 34.3089465,35.3281657 C34.135198,35.5212195 34.1197537,35.7426799 34.1931142,35.8494111 C34.4054734,36.1582973 34.5792219,35.945938 34.6950542,36.1196865 C34.8108865,36.293435 34.8108865,36.3320457 34.7915811,36.4285727 C34.7722757,36.5250996 35.0039404,36.7374588 35.3514373,36.447878 C35.6989342,36.1582973 35.9499042,35.8494111 36.2201796,36.1776027 C36.490455,36.5057942 36.239485,36.6988481 36.1236527,36.9112073 C35.8919881,37.1428719 35.3514373,37.8571712 35.1004673,38.0695304 C34.8494973,38.2818897 34.6564434,38.7838297 34.5599165,39.2471589 C34.4633896,39.7103503 34.3475573,39.8068772 34.2510303,39.9227095 C33.7877011,39.7490989 33.2664557,39.5367397 32.9768749,39.3050751 C32.7838211,39.150632 32.3591026,38.9575781 32.0888272,39.3436858 C31.9536895,39.4981289 31.2586956,40.4439549 31.0849471,40.8495059 C30.9111987,41.2547811 30.6409233,41.100338 30.6409233,41.8725534 C30.6409233,42.1428288 30.428564,42.2586611 30.3127317,42.6833796 C30.2934263,42.7992119 29.9845402,43.5135112 30.2934263,43.6486489 C30.6023125,43.7837866 30.9691148,43.6100381 31.0463364,43.4169843 C31.1235579,43.2239304 31.1428633,42.6254635 31.1621687,42.4131042 C31.2586956,42.1235234 31.5675818,41.7760265 31.6061925,41.602278 C31.6448033,41.4285296 31.5868872,41.2933919 31.7027195,41.1196434 C31.8186897,40.9458949 32.1467433,40.6177034 32.2625756,40.502009 C32.378408,40.3860388 32.7838211,40.2122903 32.9961803,40.6756195 C33.2085395,41.1389488 33.5753419,42.1621342 34.3089465,42.4710204 C34.0193657,42.6254635 33.3243718,42.8764335 32.9575695,42.953655 C32.5907672,43.0308766 32.3013243,43.0887927 32.4556295,43.9961458 C32.6100726,44.903361 32.6486834,45.2896066 32.5907672,45.5790495 C32.532851,45.8686303 32.5135457,46.4864026 33.0540964,46.9690373 L33.5367311,47.6447258 C33.7297849,47.8184742 34.1931142,48.0115281 34.231725,47.6254204 C34.2703357,47.2393127 34.386168,46.8533428 34.0000603,46.8145942 C33.8649226,46.7954267 33.4981203,46.4864026 33.5367311,46.1389057 C33.5753419,45.7914088 33.4788149,45.5019659 33.3243718,45.2123851 C33.1699288,44.9228043 33.1120126,44.5946128 33.1892341,44.305032 C33.2664557,44.0154512 33.4788149,43.8417027 33.9614496,43.9382297 C34.3475573,44.0733674 36.1236527,44.5558641 36.6642035,43.957535 C37.0308679,44.2278104 39.2125144,45.0384987 40.4865319,44.903361 C40.7181965,45.3087741 41.2008312,46.1969597 41.5097173,46.4479298 C41.7606873,46.6795944 41.8572143,47.413199 41.4324958,47.7991605 C41.1815258,47.9922227 40.5251427,48.6679112 39.9845919,48.8223543 C39.4440411,48.9767973 39.2316819,49.0733243 38.9807119,49.3242943 C38.7298797,49.5752643 38.5754367,49.5752643 38.4208557,49.9034558 C38.2664126,50.2316474 37.9189157,50.8108089 38.4787718,50.8108089 C39.038628,50.8108089 39.193209,50.5405336 39.2316819,50.3860905 C39.2704305,50.2316474 39.2316819,49.9034558 39.4440411,49.8455397 C39.6564003,49.7876235 40.3127834,49.7490128 40.7568073,49.208462 C41.2008312,48.6679112 42.0888789,48.3783304 42.4363758,48.3204142 C42.7838728,48.2624981 42.8224835,47.9150011 42.7838728,47.7412527 C42.745262,47.5675042 42.7259566,47.1236182 42.9383158,46.8918157 C43.2470641,46.9690373 44.2317767,47.1813965 44.694968,47.8184742 C44.7721896,47.9922227 44.7916328,48.0888875 44.8688544,48.2045819 C44.7337167,48.4362466 44.4634413,48.6487437 44.3669144,48.8802704 C44.2703874,49.111935 44.1545551,49.4980427 43.7105313,49.8455397 C43.2665074,50.1930366 42.8803997,50.4053959 42.6680405,50.714282 C42.4556812,51.0231682 42.3205435,51.3513597 42.3591543,51.7760782 C42.3977651,52.2007967 42.5135974,51.9884375 42.7066512,51.9884375 C42.8997051,51.9884375 43.3437289,51.7760782 43.3630343,51.4864974 C43.3823397,51.1969167 43.2470641,51.061779 43.6526151,50.8880305 C44.0580282,50.714282 44.7721896,50.1351205 44.9267705,49.7683181 C45.0812136,49.4015158 45.544405,48.6872166 45.9112073,48.4748573 C46.2780096,48.2624981 46.2007881,47.9536119 46.0270396,47.6447258 C45.8532911,47.3358396 45.2548242,46.5058459 45.3706565,45.9652951 C45.4864888,45.4247443 46.1235665,45.0964149 46.3166204,44.2664212 C46.5096742,43.4362896 46.3938419,43.0501819 46.2780096,42.7606012 C46.6062012,42.6640742 46.799255,42.7412958 47.2239735,42.9343496 L47.2239735,42.9343496 Z M68.5851066,12.9113038 L69.1544776,5.25092692 C63.8263291,3.93829861 52.3976789,1.23554466 39.7336219,1.23554466 C27.0695649,1.23554466 15.6410526,3.93829861 10.3127662,5.25092692 L10.8822751,12.9113038 C24.5213919,9.49811169 32.629378,8.9575609 39.7336219,8.9575609 C46.8378658,8.9575609 54.9459897,9.49811169 68.5851066,12.9113038 L68.5851066,12.9113038 Z M68.2416086,16.7201185 L40.3513942,16.5615385 L40.3513942,25.2069037 L51.3165773,25.2069037 L51.3165773,25.5814282 L67.5701949,25.5821177 L68.2416086,16.7201185 Z M66.9431836,33.8111761 L51.3165773,33.8551648 L51.2899634,42.3586355 L66.2746656,42.4046926 L66.9431836,33.8111761 Z M66.229298,43.5537767 L51.3165773,43.5996959 L51.3165773,45.0964149 C51.3165773,47.6097003 49.8646744,51.1816102 46.8471048,53.5025312 L46.6733563,53.8616114 C46.3436479,54.583357 46.321033,54.9576057 46.4285916,56.1679155 C46.7374778,55.9825838 47.3552501,55.7663635 47.7568021,55.6119204 C47.849468,54.9014822 49.752979,51.5444136 52.3513459,51.4575394 C52.5984549,51.4575394 52.5368155,51.6428711 52.3513459,51.7664255 C52.1661521,51.88998 50.1004759,53.1274552 49.8186173,54.9478151 C50.1275035,54.8551493 52.003849,54.5462631 52.1582921,54.5155124 C52.2818466,54.0520453 53.3553639,52.2606434 55.0849885,52.1062003 C55.3012088,52.1062003 55.015627,52.4375635 55.1158771,52.3533092 C54.4247443,52.9344013 53.9614151,53.5135629 53.7876666,54.3068763 C54.0966907,54.2759877 55.1544879,54.3532093 55.3707082,54.4149865 C55.5869285,54.1369889 56.7027798,53.4363414 58.2663781,53.6427711 C58.4827363,53.6427711 58.4260612,53.8497524 58.2663781,53.9209065 C58.0541568,54.0155029 56.915139,54.1369889 56.760696,54.7856499 C59.0966476,56.0617359 59.4016727,57.5501811 59.5559779,58.5386168 C59.5870044,58.7857257 59.4324234,58.7857257 59.2472296,58.6312827 C59.06176,58.4768396 57.3200006,56.0727675 54.9228233,55.943973 C52.803092,55.8300712 48.0154943,57.1042267 44.8688544,58.7702814 C44.8379658,59.7278285 44.5978895,59.8537272 44.1275276,59.8537272 C43.8729723,59.8537272 43.6443414,59.7420318 43.4882435,59.5651117 C43.3446942,59.6754282 43.2183818,59.6529512 43.0231216,59.6529512 C42.5527597,59.6529512 42.248562,59.2716699 42.248562,58.80117 C42.248562,58.4482952 42.3841134,58.1971873 42.689828,58.0679791 C42.6690057,57.9942049 42.6578362,57.9394604 42.6578362,57.8590672 C42.6578362,57.3885674 43.0392554,57.0072861 43.5097553,57.0072861 C43.6690247,57.0072861 43.8182277,57.050999 43.9457812,57.1271173 C44.050306,57.1795177 44.6371898,57.1331848 44.698967,56.6544112 C44.7197892,56.4250908 44.6996565,55.9778953 45.062184,54.914996 L45.0948653,54.6055582 C43.7426609,55.2882794 42.1636183,55.7334064 40.35167,55.8161438 L40.3513942,78.2239045 C51.1621342,72.5096484 63.8263291,63.0115367 65.6795082,50.8108089 L66.229298,43.5537767 Z M39.7336219,54.5945266 C46.0656504,54.5945266 50.0811705,49.111935 50.0811705,44.3243374 L50.0811705,26.7181017 L39.7336219,26.7181017 L29.3862111,26.7181017 L29.3862111,44.3243374 C29.3862111,49.111935 33.4015934,54.5945266 39.7336219,54.5945266 L39.7336219,54.5945266 Z M39.1158495,78.2045992 L39.1158495,68.0991952 L24.3657078,68.1328417 C28.8666205,72.2075191 34.1840131,75.5978206 39.1158495,78.2045992 L39.1158495,78.2045992 Z M39.1155738,59.4117718 L39.1155738,55.8161438 C34.8857638,55.6228141 31.9251451,53.4549573 30.1556686,50.9015443 L13.8045588,50.9196086 C14.2771271,53.9220097 15.4035963,56.7589361 16.9949117,59.4148055 L39.1155738,59.4117718 Z M28.1530107,33.8919829 C27.78938,34.3511753 27.363972,34.9630181 27.2856473,35.2916234 C27.4548452,35.3818071 27.8146149,35.6855911 28.1557686,36.1056211 L28.1530107,33.8919829 Z M13.1454178,42.4077263 L28.1506665,42.4046926 L28.1494254,37.1970649 C27.7296712,36.8665291 27.0828029,36.3325973 25.1536433,36.3339763 C24.0122813,36.3349415 20.7761472,37.4131473 18.8930447,39.720003 C18.8669824,40.5279333 18.4037911,40.8296489 18.0067896,40.8296489 C17.7920862,40.8296489 17.5993081,40.7354662 17.4676178,40.5861253 C17.3464076,40.6792048 17.2072709,40.7253999 17.0426235,40.7253999 C16.6456221,40.7253999 16.3239116,40.4036894 16.3239116,40.0068258 C16.3239116,39.7091092 16.5359951,39.4320769 16.7938599,39.3230015 C16.7763471,39.2606727 16.7668323,39.2146156 16.7668323,39.1467709 C16.7668323,38.7497695 17.0886807,38.428059 17.4856821,38.428059 C17.6201303,38.428059 17.7458911,38.465015 17.8535876,38.5291365 C17.9417029,38.573401 18.2293531,38.7683854 18.2814777,38.3644891 C18.32064,37.9343927 18.2664471,33.8997051 20.4238239,33.2886896 C20.6583843,33.2365651 20.5801975,33.419001 20.4759484,33.5232501 C20.3716993,33.6274991 19.4180133,35.2750759 19.5454288,37.3542659 C19.8060515,37.1978923 20.3707341,36.7741391 20.7095436,36.6438277 C20.8137927,36.2007691 21.5609111,32.8427352 23.3447287,32.8079855 C23.5532268,32.8079855 23.5011023,32.9643592 23.3447287,33.0686082 C23.1883551,33.1728573 22.4113133,34.0917937 22.2549397,35.7335788 C22.5155624,35.6555299 23.166016,35.5445239 23.2964652,35.5183237 C23.4007143,35.1273897 24.1700339,32.8774849 25.6293831,32.7471736 C25.811819,32.7471736 25.7336322,32.9354011 25.6554454,33.01345 C25.5772586,33.0917747 24.8040779,34.1650162 24.6506001,35.2132987 C24.9112228,35.1872364 25.5154814,35.2066797 25.6979173,35.2588042 C25.8545667,35.0573387 27.0916282,33.6997564 28.1501149,33.2554568 L28.1537002,28.6809078 C27.9505799,28.4965414 27.6331442,28.300316 26.6602907,28.2972822 C25.1386127,28.2927317 22.5947145,28.9227767 19.0851333,31.2162565 C19.0502457,32.293497 18.4328871,32.6957385 17.9036437,32.6957385 C17.6172345,32.6957385 17.3601971,32.5701156 17.1845181,32.3709943 C17.0230424,32.4952383 16.8374349,32.5567397 16.6179051,32.5567397 C16.0886617,32.5567397 15.6595306,32.1276086 15.6595306,31.5985031 C15.6595306,31.2015017 15.9423545,30.8322172 16.286404,30.6867374 C16.2629618,30.6037242 16.2504133,30.5422228 16.2504133,30.4517633 C16.2504133,29.9225199 16.6794065,29.4935267 17.2086498,29.4935267 C17.3879141,29.4935267 17.5555952,29.5426175 17.6991445,29.6283886 C17.8166316,29.68727 18.3031273,29.8957682 18.3727646,29.3571479 C18.4248891,28.783778 19.3050768,23.9845971 22.2588008,23.5676007 C22.571548,23.4981013 22.4672989,23.7413492 22.3283001,23.880348 C22.1893014,24.0193468 19.8880994,25.9072755 20.0579868,28.6796668 C20.4054838,28.4710307 21.46728,27.9575075 21.919026,27.7838969 C22.0580247,27.1930142 23.3630688,23.5907672 25.7413544,23.5444343 C26.0193519,23.5444343 25.9498525,23.7529324 25.7413544,23.8919312 C25.5328562,24.03093 24.0849523,25.0502543 23.8764542,27.2393471 C24.2239511,27.1350981 25.2973305,26.884128 25.471079,26.8493783 C25.6100778,26.3281329 26.5328752,24.2548725 28.478858,24.081124 C28.721968,24.081124 28.6178568,24.332094 28.5136077,24.4363431 C28.4093586,24.5405922 27.3784511,25.2510303 27.173814,26.6487402 C27.3715563,26.6290212 27.7928274,26.7040364 28.156596,26.7778105 L28.1506665,25.482695 L39.1159874,25.482695 L39.1159874,10.2786008 C32.9956287,10.3664403 24.6733529,10.701113 10.9959011,14.2839167 L13.1454178,42.4077263 Z M70.4672438,4.16996323 L67.0694959,48.957492 C66.4517236,61.775992 54.4054389,72.4324268 39.7336219,80 C25.0618048,72.4324268 13.0155202,61.775992 12.3977478,48.957492 L9,4.16996323 C21.5097518,1.3127662 29.077325,0 39.7336219,0 C50.3899188,0 57.9576299,1.3127662 70.4672438,4.16996323 L70.4672438,4.16996323 Z M58.961372,6.23563947 L54.4826605,5.38620251 L54.5984928,3.37844243 L53.3243374,3.18538858 L52.9961458,8.66798012 L54.2703013,8.84172859 L54.4247443,6.48647158 L58.9035937,7.33590853 L58.7490128,9.57533323 L60.0231682,9.80699786 L60.3514976,4.3437117 L59.0966476,4.11190918 L58.961372,6.23563947 Z M61.2201021,9.98074633 L67.2626877,11.2742071 L67.3590767,10.1738002 L62.5714791,9.15061476 L62.6293952,8.05020779 L67.4362983,9.07339321 L67.5135198,7.97298625 L62.7066167,6.94980083 L62.7452275,5.94605868 L67.5908792,6.96910621 L67.6681008,5.86883714 L61.5289882,4.57537633 L61.2201021,9.98074633 Z M25.7761041,6.87257929 L25.7374933,5.28967558 C25.7374933,4.92287326 25.3513856,4.65259787 24.9845833,4.71051402 L21.567668,5.28967558 C20.8533687,5.42481328 20.8726741,5.81092099 20.8726741,6.21619618 L20.9112849,7.66410008 C20.9498956,8.26256703 21.2587818,8.24326164 21.722111,8.1660401 L25.1004156,7.62548931 C25.6602718,7.52896239 25.7761041,7.1235493 25.7761041,6.87257929 L25.7761041,6.87257929 Z M27.1467864,7.29729776 C27.1660918,7.83784855 27.127481,8.55214781 25.6795771,8.76450705 L21.5483626,9.42089015 C20.8147579,9.55602785 19.617824,9.44019554 19.5792133,8.05020779 L19.5212826,5.61786713 C19.5212826,5.11592712 19.5019917,4.38218458 20.8726741,4.16996323 L25.3320802,3.43635859 C25.872631,3.33983166 27.0888703,3.70663399 27.0888703,4.71051402 L27.1467864,7.29729776 Z M33.078504,31.0038973 L33.5535543,31.0038973 L33.5535543,28.6986964 L34.236965,28.6986964 L34.236965,28.1890342 L32.379649,28.1890342 L32.379649,28.6986964 L33.078504,28.6986964 L33.078504,31.0038973 Z M33.7359902,4.3122715 C33.7228902,4.02986129 33.5946472,3.91899322 33.2847958,3.91071949 L29.2805831,4.12128608 L29.2976821,4.96810302 L33.2510114,4.74719426 C33.5251478,4.72609623 33.7490903,4.59454382 33.7359902,4.3122715 L33.7359902,4.3122715 Z M35.5107727,6.95931562 L35.509052,7.85122443 L34.1747741,7.91562168 L34.1756014,7.13182303 C34.1738088,6.35147178 33.7460566,5.86304553 33.020312,5.91337743 L29.3342245,6.15345368 L29.3706289,8.28504401 L28.0426942,8.34764862 L27.8969385,3.01798331 L33.4309651,2.64925045 C34.4440842,2.56761625 35.3343382,2.77432177 35.3322698,4.16334424 C35.3317182,4.56020781 35.1895479,4.96341457 34.9756718,5.32332211 C35.2549104,5.54064559 35.5155331,6.11939347 35.5107727,6.95931562 L35.5107727,6.95931562 Z M42.5908189,4.6139871 L38.3436341,4.61467657 C38.0872862,4.61467657 37.8796154,4.40686789 37.8796154,4.15065785 C37.8796154,3.89430991 38.0872862,3.68650123 38.3436341,3.68650123 L43.7877528,3.68650123 L43.7877528,2.52900548 L37.7066943,2.52900548 C37.3976703,2.52900548 36.3551794,2.59657433 36.3649015,4.16996323 C36.3746227,5.74335214 37.4750297,5.77231022 37.7066943,5.77231022 L41.9730466,5.77148284 C42.2293945,5.77148284 42.4370653,5.97915363 42.4370653,6.23563947 C42.4370653,6.49184951 42.2293945,6.66104742 41.9730466,6.66104742 L36.5290658,6.66104742 L36.5290658,7.81854317 L42.5908189,7.81854317 C42.9767887,7.81854317 43.9904593,7.87645932 43.9904593,6.20668139 C43.9904593,4.53676556 42.8514416,4.6139871 42.5908189,4.6139871 L42.5908189,4.6139871 Z M45.0232975,4.15065785 C44.9460759,5.73356155 44.9073273,6.4479987 44.9073273,6.4479987 C44.8881598,6.9884116 45.2162134,7.89576471 46.2393988,7.97298625 L51.8765714,8.39770473 L51.9343496,7.20077084 L47.2239735,6.8532739 C46.7799496,6.83396851 46.297315,6.69883082 46.3359258,5.88814253 L46.3745365,4.72968151 C46.3938419,4.26649016 46.548285,3.84177168 47.2818897,3.89954994 L52.1080981,4.28565765 L52.1661521,3.08886165 L46.5096742,2.64483779 C46.0270396,2.60622702 45.100519,2.56761625 45.0232975,4.15065785 L45.0232975,4.15065785 Z M41.6142422,31.0579524 C41.903823,31.0579524 42.1239044,30.9305368 42.305375,30.6485403 L42.3517079,31.0038973 L42.6800374,31.0038973 L42.6800374,29.4786339 L41.7223524,29.4786339 L41.7223524,29.9614065 L42.2435978,29.9614065 C42.1818205,30.339792 41.9849056,30.5481523 41.6876027,30.5481523 C41.2976339,30.5481523 41.0428028,30.1737657 41.0428028,29.5983273 C41.0428028,29.0114436 41.2899117,28.6446413 41.6876027,28.6446413 C41.9462948,28.6446413 42.1007379,28.779779 42.1934038,29.0848041 L42.6800374,29.0848041 C42.6104001,28.4863371 42.2397367,28.1349791 41.6837416,28.1349791 C41.0003309,28.1349791 40.5523081,28.7257239 40.5523081,29.6216317 C40.5523081,30.4633465 40.9926088,31.0579524 41.6142422,31.0579524 L41.6142422,31.0579524 Z M45.8603238,29.4168567 L46.3120698,29.4168567 C46.6364003,29.4168567 46.7406494,29.3280519 46.7406494,29.0539155 C46.7406494,28.779779 46.6402614,28.6986964 46.3120698,28.6986964 L45.8603238,28.6986964 L45.8603238,29.4168567 Z M45.8603238,31.0038973 L45.3854113,31.0038973 L45.3854113,28.1890342 L46.4008746,28.1890342 C46.7290662,28.1890342 46.8526206,28.2237839 46.9916194,28.3511994 C47.1460625,28.4979204 47.2310062,28.7218628 47.2310062,28.9998604 C47.2310062,29.3241909 47.1499236,29.4902172 46.9028146,29.6523824 C47.1267571,29.7720758 47.1537846,29.8492973 47.17309,30.3938471 C47.1885343,30.8494542 47.2001176,30.9189536 47.273478,31.0038973 L46.7483715,31.0038973 C46.7020386,30.8494542 46.6943165,30.8108434 46.6904554,30.5597355 C46.6788722,30.1467382 46.7367883,29.8917692 46.2966255,29.8917692 L45.8603238,29.8917692 L45.8603238,31.0038973 Z M35.4954003,31.0579524 C36.2367271,31.0579524 36.4260578,30.5675956 36.4260578,29.9265189 L36.4260578,28.1890342 L35.9510074,28.1890342 L35.9510074,29.9150735 C35.9510074,30.3782649 35.8274529,30.5481523 35.4876782,30.5481523 C35.1672088,30.5481523 35.0397932,30.3705427 35.0397932,29.9150735 L35.0397932,28.1890342 L34.5648807,28.1890342 L34.5648807,29.9265189 C34.5648807,30.5753177 34.7579346,31.0579524 35.4954003,31.0579524 L35.4954003,31.0579524 Z M16.5409593,24.024311 C16.7360816,24.2456334 17.0216634,24.3853217 17.3397886,24.3853217 C17.9279133,24.3853217 18.613944,23.9382641 18.6525548,22.7413302 C22.5521047,20.1930194 26.7606787,19.1120557 29.0001034,19.1120557 C31.2393902,19.1120557 33.0154857,20.5405163 33.2471503,20.7335702 C33.4788149,20.926624 33.6718688,20.926624 33.633258,20.6177379 C33.4402042,19.3821932 31.779941,18.2626187 31.2007795,17.9535947 C31.3938333,17.1429064 32.3977133,16.2548587 32.5521564,16.1004156 C32.7065995,15.9459725 32.8224318,15.7529186 32.5521564,15.7529186 C30.8918933,15.868751 29.7335702,17.1429064 29.4632948,17.4904033 C29.1930194,17.4130439 28.1120557,17.4130439 27.725948,17.4517926 C27.725948,15.9073617 29.2703788,14.5945955 29.3862111,14.4787632 C29.5020434,14.3629309 29.6178758,14.169877 29.3476004,14.169877 C27.1853972,14.3629309 25.9884633,17.1815172 25.8340202,17.7606787 C25.6409664,17.7992895 24.4055596,17.9923433 24.019314,18.1081757 C24.2511165,15.6756971 25.9884633,14.2857094 26.2201279,14.1312663 C26.4517926,13.9769611 26.5290141,13.7451586 26.2201279,13.7451586 C23.3630688,13.8223801 22.0889134,17.9535947 21.9730811,18.8417803 C21.471141,19.0348342 20.1197641,19.6910794 19.7336564,19.922744 C19.4247702,16.4479125 21.9730811,14.4015417 22.1275241,14.2472365 C22.2818293,14.0926555 22.3977995,13.8223801 22.0503026,13.8996017 C18.7683871,14.3629309 17.9189501,20.0385763 17.861034,20.675654 C17.7838124,21.274121 17.2432616,21.0424563 17.1126745,20.9770938 C16.9532672,20.8818079 16.7668323,20.8272013 16.5677111,20.8272013 C15.9795863,20.8272013 15.5028812,21.3039064 15.5028812,21.8918933 C15.5028812,21.9924192 15.5168086,22.0608154 15.5428709,22.1530676 C15.1607621,22.3146812 14.8464981,22.7249207 14.8464981,23.1660487 C14.8464981,23.7540356 15.3232032,24.2307407 15.911328,24.2307407 C16.1552653,24.2307407 16.3614192,24.1623445 16.5409593,24.024311 L16.5409593,24.024311 Z M43.7375588,29.93038 L44.3167204,29.93038 L44.0271396,28.8338341 L43.7375588,29.93038 Z M43.4441169,31.0038973 L42.946038,31.0038973 L43.7684474,28.1890342 L44.3051371,28.1890342 L45.1198244,31.0038973 L44.6024401,31.0038973 L44.4441359,30.4130146 L43.6062822,30.4130146 L43.4441169,31.0038973 Z M48.1954481,31.0038973 L48.6703605,31.0038973 L48.6703605,28.6986964 L49.3539091,28.6986964 L49.3539091,28.1890342 L47.4965931,28.1890342 L47.4965931,28.6986964 L48.1954481,28.6986964 L48.1954481,31.0038973 Z M39.4598991,31.0038973 L39.9348116,31.0038973 L39.9348116,28.6986964 L40.6182222,28.6986964 L40.6182222,28.1890342 L38.7609062,28.1890342 L38.7609062,28.6986964 L39.4598991,28.6986964 L39.4598991,31.0038973 Z M37.3749175,28.6986964 L36.6760625,28.6986964 L36.6760625,28.1890342 L38.5332406,28.1890342 L38.5332406,28.6986964 L37.84983,28.6986964 L37.84983,31.0038973 L37.3749175,31.0038973 L37.3749175,28.6986964 Z"/>
<deepl-alert xmlns=""/><deepl-alert xmlns=""/><deepl-alert xmlns=""/><deepl-alert xmlns=""/></svg>