<svg xmlns="http://www.w3.org/2000/svg" width="61" height="80" viewBox="0 0 61 80">
  <path fill="#AAA" fill-rule="evenodd" d="M45.3114303,8.00666254 C46.0475294,6.63477399 46.4859195,5.81941796 46.5092012,5.78053251 C46.6332879,5.98833437 58.6114923,28.3635666 64.5218328,39.3926687 C64.7264149,39.7743406 64.7427616,40.0552074 64.5337214,40.4453003 C57.6133498,53.361709 43.6014613,79.5866006 43.4694489,79.8434427 C45.4781176,79.8434427 47.3956409,79.8523591 49.3126687,79.8266006 C49.4672198,79.8243715 49.6757647,79.6153313 49.7636904,79.4513684 C56.7514303,66.403195 63.7287678,53.3495728 70.715517,40.300904 C70.8651146,40.0217709 70.8552074,39.8181796 70.7093251,39.5454861 C63.7233189,26.4965697 56.7437523,13.4441858 49.7718638,0.387591331 C49.6210279,0.105733746 49.4545882,0.00195665635 49.1350836,0.00492879257 C47.4166935,0.0205325077 45.697808,0.0292012384 43.9796656,5.37245732e-07 C43.5603467,-0.0067120743 43.3706254,0.148334365 43.1846192,0.497065015 C36.2481486,13.4887678 29.303257,26.4760124 22.3482105,39.4575604 C22.1582415,39.8122353 22.1726068,40.0695728 22.3573746,40.4140929 C26.7620805,48.6275913 35.7240619,65.3604706 35.849387,65.5729783 C36.7930402,63.8117399 37.6839381,62.1146502 38.6134737,60.439356 C38.8381176,60.0341548 38.8264768,59.7347121 38.6095108,59.3307492 C35.2277152,53.0399752 31.8669721,46.737808 28.4854241,40.4467864 C28.2766316,40.0581796 28.2909969,39.776322 28.4955789,39.3944025 C33.2997895,30.4289536 42.1141548,13.966291 45.3114303,8.00666254 M37.3674056,0.0128544892 C36.3288916,1.95465015 22.323195,28.154031 16.2900062,39.4102539 C16.0809659,39.7998514 16.096322,40.0809659 16.3011517,40.4626378 C22.2109969,51.4917399 34.1899443,73.8684582 34.3137833,74.0760124 C34.4381176,73.8682105 46.4165697,51.492483 52.3266625,40.4633808 C52.5312446,40.0814613 52.5480867,39.8000991 52.3387988,39.4109969 C48.9572508,33.1199752 45.5962601,26.817808 42.2147121,20.5267864 C41.9982415,20.1240619 41.9836285,19.8246192 42.2092632,19.4184272 C43.1390464,17.7433808 44.0294489,16.0460433 44.9728545,14.285548 C45.1058576,14.5129164 54.0688297,31.2443096 58.4653622,39.4412136 C58.6498824,39.7854861 58.6662291,40.0425759 58.4760124,40.3974985 C51.5207183,53.3792941 44.5758266,66.366291 37.639356,79.3582415 C37.4535975,79.7057337 37.2653622,79.863257 36.8450526,79.856309 C35.1269102,79.827096 33.4080248,79.8357647 31.6896347,79.8513684 C31.3711207,79.8540929 31.2029474,79.7525449 31.0518638,79.4699443 C24.0799752,66.4135975 17.1006563,53.3609659 10.1148978,40.3118019 C9.96951084,40.0398514 9.95687926,39.8367554 10.1069721,39.5566316 C17.093969,26.5082105 24.0713065,13.4545882 31.0590464,0.406414861 C31.1472198,0.242204334 31.3545263,0.0319256966 31.5088297,0.0296965944 C33.4261053,0.0039380805 35.3436285,0.0128544892 37.3674056,0.0128544892" transform="translate(-10)"/>
<deepl-alert xmlns=""/><deepl-alert xmlns=""/><deepl-alert xmlns=""/><deepl-alert xmlns=""/></svg>