<svg xmlns="http://www.w3.org/2000/svg" width="80" height="80" viewBox="0 0 80 80">
  <path fill="#AAA" fill-rule="evenodd" d="M26.4712239,4.21046982 C41.5090439,3.68051915 56.5618981,4.2067113 71.5734085,5.1707705 C73.1538642,5.30795631 74.7549918,5.29668077 76.3110171,5.62930938 C77.1529246,5.83226921 78.0624853,6.15362237 78.5548508,6.91848025 C79.0039934,7.75099141 79.0133897,8.72256763 79.1299037,9.63964539 C79.4869626,14.1442261 79.5922011,18.6675993 79.9285882,23.1721795 C79.278365,23.2511083 78.6281419,23.1515076 77.9779187,23.1308358 C66.3998121,22.5313532 54.8123091,22.0333499 43.2154099,22.0183158 C37.2093023,22.0352291 31.1956777,21.9769721 25.1952079,22.2682571 C23.7406624,22.4824925 22.0944327,22.9692196 21.2544045,24.2659075 C25.7946911,25.072109 30.3255814,25.9422053 34.8639887,26.7634409 C49.9055673,29.5785689 64.9584214,32.3316815 80,35.143051 C79.9868452,37.9957642 79.992483,40.8484773 79.9981207,43.7011905 C71.5395819,42.3011435 63.096077,40.7902203 54.6431759,39.3450712 C36.4575992,36.2104693 18.2776603,33.0326446 0.0864458539,29.9281109 C0.12215175,26.7615617 0.257458304,23.5968917 0.323232323,20.4284638 C0.437867043,17.9196548 0.36645525,15.3770191 0.933991074,12.9133123 C1.31548039,11.1749989 2.02208128,9.42728927 3.33944092,8.18509993 C5.61334273,5.93374922 8.90204369,5.30043928 11.9633545,4.98284473 C16.787409,4.5355814 21.6321353,4.3889993 26.4712239,4.21046982 Z M0,34.0944252 C26.0540287,38.9015664 52.098661,43.7895156 78.1489312,48.6248457 C78.7183463,48.7639107 79.3272257,48.7751863 79.8740897,48.9837839 L79.9398638,49.1341245 C79.7970402,53.4075565 79.7143528,57.684747 79.5602537,61.958179 C79.460653,64.5947775 79.1825229,67.3535278 77.8256988,69.6762903 C76.3711534,72.0779817 73.6612638,73.4066169 70.9795631,73.9083787 C67.0274841,74.6506855 62.9908386,74.6995462 58.9880197,74.9194193 C41.764623,75.7011905 24.5055203,75.2689612 7.31031243,74.0850289 C5.93657505,73.9891868 4.53840733,73.9647564 3.20413437,73.5832671 C2.51256754,73.3652732 1.79844961,73.013852 1.40756401,72.3749044 C0.988489547,71.5367555 0.962179939,70.5802133 0.858820766,69.6668941 C0.490486258,64.6812234 0.295043458,59.6861565 0.0338266385,54.694848 C8.90392295,55.2586253 17.7890533,55.5743406 26.676063,55.7716627 C35.2567536,55.9107277 43.8374442,55.9088485 52.4181348,55.9934151 C54.2692037,56.0704647 56.2706131,55.7171642 57.6744186,54.4167179 C57.8792577,54.1818107 58.2118863,53.9638168 58.1780597,53.6123956 C54.3105473,53.031705 50.4655861,52.31007 46.6055908,51.6748809 C31.0754052,49.0194898 15.5377026,46.388529 0.00939628847,43.7181038 C-0.00939628847,40.510211 0.0131548039,37.3023181 0,34.0944252 Z"/>
<deepl-alert xmlns=""/><deepl-alert xmlns=""/><deepl-alert xmlns=""/><deepl-alert xmlns=""/></svg>