<svg xmlns="http://www.w3.org/2000/svg" width="80" height="80" viewBox="0 0 80 80">
  <path fill="#AAA" fill-rule="evenodd" d="M45.4935946,50.8838428 C43.4809087,50.8838428 41.8516251,49.2503382 41.8516251,47.2411698 C41.8516251,45.227077 43.4809087,43.5949794 45.4935946,43.5949794 C47.5076874,43.5949794 49.1390815,45.227077 49.1390815,47.2411698 C49.1390815,49.2503382 47.5076874,50.8838428 45.4935946,50.8838428 M65.0537917,55.8547055 L65.0537917,55.8547055 C62.6140872,53.5648445 59.5380757,52.033346 56.1869995,51.4983416 C55.7089778,51.4244751 55.2763312,51.7934558 55.2763312,52.2774572 L55.2763312,53.493792 C55.2763312,53.8550342 54.9995078,54.2651691 54.6365067,54.2651691 C54.3734014,54.2651691 54.1106477,54.2725558 53.8461353,54.2651691 C52.9115484,54.2503958 52.7413038,53.1030031 52.9291357,52.4269489 C54.9210686,45.283708 55.4082356,40.950911 55.3850205,37.7957568 C55.3600466,34.4425701 55.2763312,31.1016945 53.7645305,26.6788507 C52.3086572,22.4237894 50.9790605,18.2580713 43.9473228,11.8907803 C43.4689494,11.4602442 42.986355,11.2513076 42.3430131,11.2048772 C41.6514821,11.1570399 41.0862276,11.1324177 40.3827372,11.1324177 C37.4632523,11.1324177 34.6457735,11.5608433 31.9834143,12.3600083 C30.9869203,12.6607505 31.136412,13.3536884 31.6844309,13.8260822 C34.3390517,16.0973008 37.9384601,19.5106359 40.421781,23.7737873 C38.84948,23.9264447 37.6479185,23.0520063 36.6380582,22.0840035 C33.3189907,18.9249802 29.8634462,16.6727559 27.1184269,15.1310568 C26.6404052,14.8637305 26.1697702,14.7515237 25.6959694,15.0237745 C22.6706092,16.7832038 20.6318942,18.4381649 18.2298265,21.2239866 C17.8214503,21.6974356 18.0859627,22.0664163 18.4855452,22.2785186 C21.1113229,23.670726 25.2235757,26.3123322 28.9946356,29.7429029 C28.2260724,30.3894105 27.0079789,30.1776599 25.2425699,29.2522184 C21.8492843,27.4692221 18.5871996,26.4431814 16.097899,25.8023017 C15.5650051,25.6658246 14.9934192,25.8153163 14.7190579,26.2922828 C13.1249488,29.0615725 12.0250417,32.3746602 11.5048106,35.7341783 C11.4056184,36.3796307 11.8449481,36.9505131 12.4882901,37.0623681 C18.2910301,38.0778564 28.6340968,40.8052885 30.3520202,52.7203043 C30.500105,53.7639322 29.5510965,54.6805802 28.3013459,54.0935175 C26.5573934,53.2767652 24.8151995,52.4617716 23.0730057,51.6436124 C22.8897465,51.5595453 22.6818651,51.486734 22.4813703,51.486734 L14.2628444,51.486734 C13.094347,51.486734 12.6131596,52.6042284 13.3736327,53.4747977 C15.3493853,55.7502372 17.1619281,58.2054185 18.7120691,60.8083328 C18.848898,61.0394293 19.0057763,61.1280691 19.2745096,61.1280691 L22.8623103,61.1280691 C23.1064215,61.1280691 23.3153581,61.0714381 23.5264052,60.9462169 C24.6537485,60.2852877 25.7814435,59.6257655 26.9119525,58.9644846 C27.1215926,58.8392633 27.3305292,58.8420773 27.5749921,58.8420773 L54.6189195,58.8420773 C54.9822722,58.8420773 55.2763312,59.0759878 55.2763312,59.4393406 L55.2763312,60.7703443 C55.2763312,61.2543456 55.7089778,61.6219193 56.1869995,61.5477011 C59.5380757,61.0130484 62.6140872,59.48155 65.0537917,57.1930959 C65.4421184,56.8311501 65.4421184,56.2148926 65.0537917,55.8547055 M65.398502,65.3968485 C58.6143929,72.1813093 49.5945915,75.9164913 40.0003902,75.9164913 C30.406189,75.9164913 21.3867394,72.1813093 14.6026303,65.3968485 C7.81852119,58.6137946 4.082284,49.592938 4.082284,40.0004955 C4.082284,30.4055908 7.81852119,21.3864929 14.6026303,14.6030873 C21.3867394,7.81862645 30.406189,4.08309275 40.0003902,4.08309275 C49.5945915,4.08309275 58.6143929,7.81862645 65.398502,14.6030873 C72.182611,21.3864929 75.917793,30.4055908 75.917793,40.0004955 C75.917793,49.592938 72.182611,58.6123877 65.398502,65.3968485 M39.8621544,0.00014264114 C17.770799,0.0767152686 -0.0760473981,18.0470242 3.73779818e-05,40.1380279 C0.0762582603,62.2293832 18.046919,80.0762297 40.1379226,80.0001426 C62.229278,79.923924 80.0757726,61.953615 80.0000374,39.8622597 C79.923467,17.7709043 61.953158,-0.075942135 39.8621544,0.00014264114"/>
<deepl-alert xmlns=""/><deepl-alert xmlns=""/><deepl-alert xmlns=""/><deepl-alert xmlns=""/></svg>