<svg xmlns="http://www.w3.org/2000/svg" width="80" height="80" viewBox="0 0 80 80">
  <path fill="#AAA" fill-rule="evenodd" d="M39.9998623,0.0688468158 C50.6657487,0.0688468158 60.6932874,4.2226506 68.2353184,11.7646816 C75.7774871,19.3067126 79.9311532,29.3342513 79.9311532,40 C79.9311532,50.665611 75.7774871,60.6932874 68.2353184,68.2353184 C60.6931497,75.7774871 50.6657487,79.9311532 39.9998623,79.9311532 C29.3341136,79.9311532 19.3067126,75.7774871 11.7645439,68.2353184 C4.22251291,60.6934251 0.0688468159,50.665611 0.0688468159,40 C0.0688468159,17.9816867 17.9818244,0.0688468158 39.9998623,0.0688468158 Z M39.9998623,1.45060241 C29.7032702,1.45060241 20.0225818,5.46024096 12.7416179,12.7416179 C5.46051635,20.0227194 1.45046472,29.7034079 1.45046472,40 C1.45046472,50.2965921 5.46051635,59.9771429 12.7416179,67.2585198 C20.0225818,74.5396213 29.7031325,78.5493976 39.9998623,78.5493976 C61.256179,78.5493976 78.5493976,61.2564544 78.5493976,40 C78.5493976,29.7032702 74.539346,20.0225818 67.2585198,12.7416179 C59.9772806,5.46024096 50.2968675,1.45060241 39.9998623,1.45060241 Z M39.9998623,3.03931153 C60.4126678,3.03931153 76.9605508,19.5873322 76.9605508,40 C76.9605508,60.4125301 60.4125301,76.9608262 39.9998623,76.9608262 C19.5873322,76.9608262 3.03917384,60.4126678 3.03917384,40 C3.03917384,19.5873322 19.5873322,3.03931153 39.9998623,3.03931153 Z M39.9998623,16.3907745 C26.9611015,16.3907745 16.3906368,26.9611015 16.3906368,40 C16.3906368,53.0386231 26.9611015,63.6090878 39.9998623,63.6090878 C53.0388985,63.6090878 63.6090878,53.0388985 63.6090878,40 C63.6090878,26.9612392 53.0387608,16.3907745 39.9998623,16.3907745 Z M62.090327,40 C62.090327,52.0779318 52.39675,61.8924231 40.3651639,62.0875051 L39.9998623,62.0904647 L39.9998623,40 L62.090327,40 Z M39.9998623,17.9093976 L39.9998623,40 L17.9095353,40 C17.9095353,27.7999312 27.7999312,17.9093976 39.9998623,17.9093976 Z M62.2846127,12.4878485 L56.1813425,20.3384509 L57.9651635,22.5237866 L63.7309466,20.1511876 L63.7516007,20.177074 L60.2320138,25.3232358 L61.9986231,27.5222031 L70.9466437,23.184716 L69.4416523,21.325852 L63.7565577,24.0247849 L67.4234768,18.8330465 L65.8086059,16.8388296 L59.9679174,19.3463683 L63.7900172,14.3467126 L62.2846127,12.4878485 Z M14.9170659,15.2797254 L14.810327,15.4041997 L10.0630637,21.0614802 L17.5255077,27.3233735 L22.5317728,21.3573838 L22.6594519,21.2001576 C23.6872809,19.8905387 23.8061486,18.5979346 22.6500516,17.4740103 C21.8675387,16.7133907 20.6579002,16.4841308 19.5220654,17.1881583 C19.7390706,16.6259552 19.6505336,16.0523236 19.5351463,15.7357659 C19.0459208,14.8436489 18.8753184,14.7318417 18.4718761,14.3935284 C17.2132924,13.3372953 15.8908197,14.1690516 14.9170659,15.2797254 Z M20.6252668,19.0814458 C21.1627126,19.5321446 21.2483201,20.200906 20.9362731,20.6704924 L20.8633391,20.7679174 L17.891222,24.3099484 L16.027401,22.7460241 L19.0237522,19.1750775 L19.0967909,19.0983302 C19.4616834,18.7586699 20.1504073,18.6829237 20.6252668,19.0814458 Z M17.4046127,16.8296041 C17.8972071,17.2430338 17.9313662,17.8176716 17.6453481,18.2358032 L17.5792083,18.3228916 L14.7600688,21.6824785 L12.9962134,20.2022719 L15.8475731,16.8044062 L15.9244779,16.7262854 C16.2831761,16.4148772 16.9586427,16.4554905 17.4046127,16.8296041 Z M37.5245439,5.0572117 L34.5982788,5.0572117 L34.5982788,14.7856799 L36.5459552,14.7856799 L36.5459552,7.99283993 L39.1089845,14.7856799 L41.2364888,14.7856799 L43.7992427,7.99283993 L43.7992427,14.7856799 L45.7470568,14.7856799 L45.7470568,5.0572117 L42.8205164,5.0572117 L40.1721738,11.9853115 L37.5245439,5.0572117 Z"/>
<deepl-alert xmlns=""/><deepl-alert xmlns=""/><deepl-alert xmlns=""/><deepl-alert xmlns=""/></svg>