<svg xmlns="http://www.w3.org/2000/svg" xmlns:xlink="http://www.w3.org/1999/xlink" width="80px" height="80px" viewBox="0 0 80 80" version="1.1">
    <title>Component/Brand logo/Smart</title>
    <g id="Component/Brand-logo/Smart" stroke="none" stroke-width="1" fill="none" fill-rule="evenodd">
        <path d="M37.5597297,2 C43.6817432,2 48.9036889,3.56735961 53.2100482,6.24687207 L53.2100482,6.24687207 L53.2100482,25.0163913 C48.8907568,21.9334001 43.4049982,20.2237884 39.1038117,20.2237884 C27.4132747,20.2237884 18.8264201,28.7149462 18.8264201,39.5855937 C18.8264201,50.4096861 27.4132747,58.9499855 39.1038117,58.9499855 C43.4049982,58.9499855 48.8907568,57.1938185 53.2100482,54.1108273 L53.2100482,54.1108273 L53.2100482,72.9320746 C48.9036889,75.6141735 43.6817432,77.129805 37.5597297,77.129805 C16.7960945,77.129805 0,60.3673337 0,39.5855937 C0,18.8271314 16.7960945,2 37.5597297,2 Z M56.7094501,8.39875853 C64.9626588,13.7345058 76.8161391,30.3805891 80,39.5855937 C76.8161391,48.8035304 64.9626588,65.426336 56.7094501,70.7879474 L56.7094501,8.39875853 Z" id="Combined-Shape" fill="#AAAAAA"/>
    </g>
<deepl-alert xmlns=""/><deepl-alert xmlns=""/><deepl-alert xmlns=""/><deepl-alert xmlns=""/></svg>