<svg xmlns="http://www.w3.org/2000/svg" xmlns:xlink="http://www.w3.org/1999/xlink" width="80px" height="80px" viewBox="0 0 80 80" version="1.1">
    <title>Component/Brand logo/Tesla</title>
    <g id="Component/Brand-logo/Tesla" stroke="none" stroke-width="1" fill="none" fill-rule="evenodd">
        <path d="M31.7475823,7.75031748 L39.996,17.797 L48.2465566,7.75178275 C48.2465566,7.75178275 62.1165465,8.03948427 76.0607836,14.3786738 L76.4833447,14.5726287 C72.8743773,19.9916968 65.7155417,22.6604474 65.7155417,22.6604474 C65.2280942,17.8860994 61.8662694,16.7153463 51.1966396,16.7153463 L51.1966396,16.7153463 L40.0053727,79.6595682 L28.7237472,16.7065547 C18.1273811,16.7153463 14.7650679,17.8826805 14.2785972,22.6589821 C14.2785972,22.6589821 7.11780795,19.9897431 3.50981733,14.5711634 C17.3123376,8.17392791 31.1814676,7.76453355 31.7307118,7.75071667 L31.7475823,7.75031748 Z M39.9995116,0 C51.7612582,0.049819283 65.4171144,2.0245189 80,7.79476409 C80,7.79476409 79.5438117,9.21265996 77.7610628,12.4201426 C64.4197519,6.60789294 51.3851714,4.75822995 40.0009768,4.84565791 L40.0009768,4.84565791 C28.6158054,4.75822995 15.5787828,6.60789294 2.23991404,12.4201426 C0.650092801,9.54185797 0,7.79476409 0,7.79476409 C14.583374,2.0245189 28.2397187,0.049819283 39.9995116,0 Z" id="Combined-Shape" fill="#AAAAAA"/>
    </g>
<deepl-alert xmlns=""/><deepl-alert xmlns=""/><deepl-alert xmlns=""/><deepl-alert xmlns=""/></svg>