<svg xmlns="http://www.w3.org/2000/svg" width="80" height="80" viewBox="0 0 80 80">
  <path fill="#AAA" fill-rule="evenodd" d="M40.0820641,55.3524435 C43.3262399,55.3772547 45.9324861,48.828022 46.006073,40.618055 L46.0076612,40.7361117 C44.0864612,40.8388157 42.0440281,40.9399315 40.0031832,40.9251082 C37.9607501,40.9086968 35.9188464,40.7763463 33.9965876,40.6429369 L33.9955288,40.5254097 C34.1596434,48.7380236 36.8405354,55.3274909 40.0820641,55.3524435 Z M39.9666545,34.3562876 C41.8899721,34.3705815 43.6899391,34.3838166 45.4904354,34.2811126 C44.6195691,28.5275711 42.4347268,24.5215858 39.9115967,24.5029922 C37.3889959,24.4845277 35.2486234,28.4555724 34.4402265,34.197467 C36.2444287,34.3271705 38.0459838,34.3419938 39.9666545,34.3562876 Z M42.6480758,63.2288165 C60.6625687,62.5458878 74.6599588,52.3316047 74.5882366,39.7821292 C74.5657252,35.4399736 72.9801661,31.4429882 70.0806311,28.0177569 L70.0806311,27.9007591 C69.8704585,33.7638868 61.4900241,38.5083879 49.7277694,40.2956492 C49.7320046,40.6461134 49.8532377,40.9997539 49.8553553,41.3528651 C49.9130601,51.9091419 46.8393518,60.7993905 42.6480758,63.2288165 Z M39.8803619,18.6388703 C44.2050473,18.6711638 47.8420393,25.0324588 49.2126612,33.8395912 C57.4940974,32.6134961 63.2428742,29.7250785 63.2228096,26.3226116 C63.1989339,21.8661052 52.7284202,18.0321755 39.8755973,17.9347656 C27.0238332,17.8362968 16.5951423,21.5092882 16.6183971,25.9679122 C16.6374945,29.3682616 22.4190942,32.3450893 30.7142949,33.6987703 C31.9869774,24.9122845 35.5556766,18.6065768 39.8803619,18.6388703 Z M0.000252064295,40.1490048 C-0.0773163238,26.0737926 17.7577092,14.832999 39.8591859,15.0018782 C61.9611919,15.1712869 79.9216857,26.6847226 79.9997547,40.7620524 C80.0762711,54.7181492 62.2423044,66.0775289 40.1413571,65.9081202 C18.0398805,65.739241 0.079386682,54.1072192 0.000252064295,40.1490048 Z M37.6028743,63.1917583 C33.3867164,60.6972159 30.21401,51.7577329 30.1552463,41.2003973 C30.1531287,40.8494037 30.1515405,40.4973514 30.2690678,40.1468872 C18.4888134,38.1796292 10.0527918,33.3064834 9.78067918,27.4385911 L9.78067918,27.5571772 C6.91608471,30.9363504 5.37764236,34.9132186 5.40119289,39.2527272 C5.47187593,51.8037909 19.5825581,62.2330112 37.4848177,63.1896407 L37.6028743,63.1917583 Z"/>
<deepl-alert xmlns=""/><deepl-alert xmlns=""/><deepl-alert xmlns=""/><deepl-alert xmlns=""/></svg>