<svg xmlns="http://www.w3.org/2000/svg" width="80" height="80" viewBox="0 0 80 80">
  <path fill="#AAA" fill-rule="evenodd" d="M38.8062225,0 L41.7119136,0 C47.6924014,0.294308943 53.6176046,1.8601626 58.9021575,4.68943089 C68.0615071,9.52357724 75.152564,18.0926829 78.2354908,27.9756098 C79.058255,30.6178862 79.6224827,33.3463415 79.859881,36.104065 C80.0956534,38.2617886 79.955816,40.4455285 79.9704501,42.6130081 C79.6013445,48.7170732 77.7932144,54.7349593 74.7119136,60.0211382 C71.7314258,65.1772358 67.5932144,69.6601626 62.6793932,73.0276423 C56.5167916,77.2634146 49.1460599,79.6617886 41.6842713,80 L38.3785802,80 C36.6989054,79.8829268 35.0159786,79.7430894 33.355816,79.4520325 C25.0419949,78.0634146 17.1883363,73.9788618 11.3428079,67.895935 C4.52979974,60.9268293 0.362320066,51.3853659 0.0891493338,41.6276423 C-0.0685742434,40.4390244 0.0127265696,39.2422764 0.105409496,38.0520325 C0.0793932363,36.9544715 0.292401366,35.8764228 0.32979974,34.7837398 L0.411100553,34.6845528 C1.69890543,23.8764228 7.84849893,13.8292683 16.6663851,7.49918699 C23.0826453,2.8699187 30.9021575,0.248780488 38.8062225,0 M36.4371168,3.8699187 C36.0127266,3.96747967 35.5785802,3.99674797 35.1460599,4.03577236 C34.5021575,4.16585366 33.8468729,4.23414634 33.2045965,4.37235772 C32.9395558,4.43739837 32.6696371,4.48780488 32.4029705,4.5398374 C32.1850843,4.59837398 31.9639461,4.64552846 31.7428079,4.69430894 C31.1005314,4.86178862 30.451751,5.01300813 29.8257347,5.24065041 C29.7363038,5.26341463 29.555816,5.30569106 29.4647591,5.32682927 C29.3021575,5.38861789 29.1395558,5.4504065 28.9769542,5.50894309 C28.8127266,5.55772358 28.6484989,5.60650407 28.4842713,5.65528455 C28.3997184,5.71219512 28.3151656,5.76747967 28.2322388,5.82439024 C28.3753282,6.10569106 28.5102875,6.39186992 28.6338648,6.68292683 C28.8192306,7.10731707 29.0127266,7.5300813 29.2045965,7.95121951 C29.4419949,8.50569106 29.6972794,9.05365854 29.9265477,9.61138211 C30.1493119,10.0943089 30.3704501,10.5804878 30.5737022,11.0731707 C30.9948404,11.9788618 31.3818323,12.900813 31.7980924,13.8081301 C33.8224827,18.3772358 35.8793932,22.9317073 37.9086615,27.499187 C38.1232957,27.9869919 38.3493119,28.4699187 38.557442,28.9609756 C38.7720762,29.4487805 38.9948404,29.9333333 39.2111006,30.4211382 C39.4452469,30.9268293 39.5964664,31.504065 40.0501249,31.8682927 C40.456629,31.5317073 40.6273607,31.0260163 40.8159786,30.5544715 C41.0615071,30.0260163 41.2940274,29.4926829 41.5281737,28.9593496 C43.7314258,24.0146341 45.955816,19.0764228 48.152564,14.1284553 C48.3671981,13.6406504 48.5883363,13.1560976 48.8013445,12.6682927 C49.0159786,12.1804878 49.2371168,11.6943089 49.4501249,11.2065041 C49.6663851,10.7186992 49.8842713,10.2325203 50.0989054,9.74308943 C50.3330518,9.21138211 50.5688241,8.6796748 50.8029705,8.14796748 C51.0176046,7.65853659 51.2403688,7.17398374 51.4484989,6.68292683 C51.5850843,6.38536585 51.7200436,6.08617886 51.8728892,5.79512195 C51.6208567,5.69918699 51.3769542,5.58861789 51.1265477,5.49430894 C50.959068,5.44227642 50.7948404,5.38699187 50.6306127,5.3300813 C50.5411819,5.30731707 50.360694,5.26178862 50.2696371,5.23902439 C49.6436209,5.01626016 48.9948404,4.87317073 48.355816,4.69268293 C47.8680111,4.59837398 47.3818323,4.48617886 46.9005314,4.36260163 C46.2501249,4.25691057 45.5964664,4.16747967 44.950938,4.03414634 C44.5151656,3.99674797 44.0761412,3.96747967 43.6501249,3.86829268 C42.8387428,3.79349593 42.0192306,3.83739837 41.2143526,3.69918699 C39.6176046,3.61626016 38.0289867,3.80650407 36.4371168,3.8699187 M22.0858973,8.5203252 C17.1021575,11.4357724 12.853377,15.5528455 9.65500299,20.3528455 C9.74118185,20.7463415 9.92817372,21.104065 10.1135396,21.4569106 C10.359068,21.9333333 10.5867103,22.4195122 10.8208567,22.900813 C11.0891493,23.4422764 11.357442,23.9837398 11.6338648,24.5219512 C14.4680111,30.2813008 17.3671981,36.0113821 20.1899623,41.7772358 C20.2696371,41.9284553 20.3476859,42.0796748 20.4257347,42.2325203 C20.7493119,42.8845528 21.0728892,43.5398374 21.3899623,44.196748 C23.6127266,48.6780488 25.8484989,53.1528455 28.0712632,57.6341463 C28.1655721,57.9073171 28.4013445,58.0292683 28.6810193,58.0245308 C28.9314258,57.5626016 29.15419,57.0845528 29.360694,56.601626 C29.5395558,56.1528455 29.7411819,55.7138211 29.9330518,55.2699187 C30.1184176,54.8471545 30.2956534,54.4211382 30.4826453,53.998374 C30.6728892,53.5528455 30.8761412,53.1138211 31.058255,52.6650407 C31.2484989,52.2455285 31.4306127,51.8211382 31.6143526,51.396748 C33.0322388,48.1398374 34.459881,44.8861789 35.8940274,41.6357724 C36.0452469,41.2813008 36.4013445,41.0178862 36.7997184,41.0682927 C38.9688241,41.0650407 41.1395558,41.0634146 43.3102875,41.0699187 C43.7346778,41.0178862 44.0875233,41.3284553 44.2322388,41.704065 C45.6484989,44.9349593 47.0745152,48.1609756 48.4761412,51.398374 C48.6615071,51.8227642 48.8452469,52.2471545 49.0371168,52.6682927 C49.2192306,53.1154472 49.4192306,53.5560976 49.6111006,53.998374 C49.7964664,54.4211382 49.9737022,54.8487805 50.157442,55.2731707 C50.5769542,56.1756098 50.9054095,57.1219512 51.4013445,57.9869919 L51.7980924,58 C53.5980924,54.5414634 55.2924014,51.0243902 57.0436209,47.5382114 C60.9379298,39.6390244 64.8728892,31.7593496 68.7867103,23.8699187 C69.0907754,23.2943089 69.3460599,22.695935 69.655003,22.1235772 C69.9314258,21.5658537 70.159068,20.9772358 70.5330518,20.4731707 C70.2045965,20.0715447 69.9281737,19.6357724 69.6354908,19.2113821 C66.5688241,14.8878049 62.5834583,11.2195122 58.0208567,8.52520325 C57.8501249,8.4195122 57.6663851,8.3398374 57.4712632,8.30081301 C55.455003,12.7430894 53.4484989,17.1934959 51.453377,21.6455285 C51.1964664,22.2422764 50.9135396,22.8260163 50.6615071,23.4227642 C50.4728892,23.8487805 50.2810193,24.2731707 50.0826453,24.6943089 C49.8452469,25.2504065 49.5915884,25.8 49.359068,26.3577236 C49.1135396,26.8861789 48.8728892,27.4162602 48.6387428,27.9495935 C47.2647591,31.0211382 45.8826453,34.0878049 44.4972794,37.1528455 C44.3444339,37.4796748 44.2257347,37.8292683 44.0062225,38.1186992 C43.7493119,38.4 43.3249217,38.3853659 42.9769542,38.401626 C40.9655721,38.395122 38.95419,38.4065041 36.9444339,38.396748 C36.5216697,38.4065041 36.0452469,38.2601626 35.8989054,37.8195122 C34.4094745,34.5317073 32.9249217,31.2422764 31.451751,27.9495935 C31.2159786,27.4162602 30.9769542,26.8861789 30.7363038,26.3560976 C30.4989054,25.8 30.2436209,25.2536585 29.9980924,24.702439 C29.760694,24.1691057 29.5265477,23.6357724 29.2891493,23.102439 C27.0940274,18.1463415 24.8192306,13.2227642 22.6322388,8.26341463 C22.4484989,8.34308943 22.2631331,8.42276423 22.0858973,8.5203252 M73.9216697,27.3414634 C73.1964664,28.9300813 72.3737022,30.4731707 71.6176046,32.0471545 C71.3964664,32.4796748 71.1785802,32.9121951 70.9688241,33.3495935 C70.757442,33.7837398 70.5411819,34.2162602 70.3314258,34.6520325 C70.2484989,34.8065041 70.1655721,34.9626016 70.0826453,35.1170732 C70.0062225,35.2845528 69.9281737,35.4520325 69.8484989,35.6178862 C69.8062225,35.702439 69.7232957,35.8699187 69.6810193,35.9544715 C69.5997184,36.1073171 69.5200436,36.2634146 69.4403688,36.4178862 C69.3151656,36.704065 69.1769542,36.9837398 69.0419949,37.2650407 C66.3915884,42.6308943 63.6858973,47.9707317 61.0403688,53.3398374 C60.9997184,53.4211382 60.9200436,53.5821138 60.8793932,53.6634146 C60.7655721,53.8780488 60.6615071,54.097561 60.55419,54.3170732 C60.4436209,54.5317073 60.3379298,54.7495935 60.2354908,54.9707317 C60.1281737,55.1853659 60.0176046,55.4 59.9151656,55.6195122 C59.8761412,55.700813 59.7964664,55.8650407 59.755816,55.9463415 C59.6777672,56.097561 59.5980924,56.2487805 59.5200436,56.4 C59.258255,56.9463415 58.9818323,57.4845528 58.7167916,58.0292683 C56.7314258,62.0878049 54.6972794,66.1219512 52.6728892,70.1609756 C52.3932144,70.8520325 51.5037835,71.2178862 50.855003,70.7918699 C50.1867103,70.3219512 50.0257347,69.4585366 49.6842713,68.7658537 C49.4403688,68.2373984 49.2029705,67.704065 48.9704501,67.1707317 C46.5623201,61.7333333 44.1200436,56.3105691 41.7037835,50.8764228 C41.4907754,50.3869919 41.2631331,49.904065 41.056629,49.4113821 C40.8387428,48.9219512 40.6078485,48.4373984 40.4289867,47.9317073 C40.2891493,47.7317073 40.0338648,47.5886179 39.8062225,47.7528455 C39.4631331,48.3414634 39.2387428,48.9902439 38.957442,49.6097561 C36.5167916,55.0878049 34.051751,60.5544715 31.6289867,66.0406504 C31.4387428,66.4601626 31.2468729,66.8813008 31.056629,67.302439 C30.8257347,67.8585366 30.5688241,68.403252 30.3330518,68.9593496 C30.1037835,69.4422764 29.9314258,69.9577236 29.6387428,70.4113821 C29.3232957,70.8715447 28.6972794,71.1089431 28.1671981,70.895935 C27.7753282,70.7674797 27.5411819,70.398374 27.355816,70.0552846 C25.3444339,65.998374 23.2989054,61.9577236 21.3005314,57.895935 C21.1980924,57.6780488 21.0907754,57.4617886 20.9850843,57.2471545 C20.7769542,56.8097561 20.559068,56.3772358 20.3395558,55.9463415 C20.2989054,55.8650407 20.2192306,55.700813 20.1785802,55.6178862 C20.0761412,55.4 19.9639461,55.1869919 19.855003,54.9723577 C19.7493119,54.7544715 19.6419949,54.5382114 19.5314258,54.3235772 C19.451751,54.1463415 19.3704501,53.9723577 19.2875233,53.798374 C19.152564,53.5382114 19.0224827,53.2780488 18.8907754,53.0178862 C18.7297997,52.6910569 18.5720762,52.3642276 18.4029705,52.0422764 C15.7639461,46.6634146 13.0354908,41.3284553 10.4045965,35.9447154 C10.3655721,35.8617886 10.2842713,35.697561 10.2436209,35.6162602 C10.059881,35.2292683 9.86638511,34.8471545 9.67776722,34.4617886 C9.48264527,34.0926829 9.30378348,33.7154472 9.10866153,33.3463415 C9.03386478,33.1739837 8.955816,33.001626 8.87939324,32.8308943 C8.79646641,32.6796748 8.71679161,32.5284553 8.63711681,32.3772358 C7.82248267,30.7235772 7.00947454,29.0699187 6.18020624,27.4243902 C5.86638511,27.9252033 5.73792982,28.5073171 5.54443389,29.0585366 C2.62085665,38.0601626 3.51028755,48.2081301 7.91679161,56.5804878 C7.93305177,56.6243902 7.9655721,56.7138211 7.98345828,56.7577236 C8.40297047,57.4813008 8.79158836,58.2227642 9.23711681,58.9317073 C13.1704501,65.3593496 19.152564,70.5121951 26.0826453,73.4699187 C26.35419,73.5788618 26.6241087,73.6910569 26.8972794,73.796748 C27.0972794,73.8796748 27.2989054,73.9560976 27.5005314,74.0390244 C27.7314258,74.1170732 27.9639461,74.201626 28.1964664,74.2813008 C28.359068,74.3398374 28.5216697,74.398374 28.6842713,74.4585366 C28.8468729,74.5105691 29.0094745,74.5626016 29.1737022,74.6130081 C29.5915884,74.7447154 30.0159786,74.8552846 30.4322388,74.9869919 C31.0793932,75.1609756 31.7314258,75.3170732 32.3834583,75.4731707 C32.653377,75.5203252 32.9249217,75.5707317 33.1932144,75.6325203 C33.4647591,75.6845528 33.7395558,75.7365854 34.0111006,75.803252 C35.3184176,75.9626016 36.6192306,76.203252 37.9428079,76.2097561 C39.2858973,76.3479675 40.6484989,76.3691057 41.9932144,76.2195122 C43.3655721,76.1934959 44.7265477,76.001626 46.0793932,75.7918699 C46.350938,75.7268293 46.6257347,75.6813008 46.9005314,75.6341463 C47.1688241,75.5691057 47.4403688,75.5219512 47.7135396,75.4731707 C48.3639461,75.3154472 49.0159786,75.1609756 49.6631331,74.9869919 C50.0793932,74.8552846 50.5005314,74.7414634 50.9167916,74.6097561 C51.0826453,74.5495935 51.2468729,74.4926829 51.4143526,74.4357724 C51.4989054,74.4130081 51.6680111,74.3658537 51.75419,74.3430894 C52.2354908,74.1593496 52.7216697,73.9869919 53.2013445,73.798374 C53.4712632,73.6878049 53.7428079,73.5756098 54.0143526,73.4650407 C58.0029705,71.7772358 61.6615071,69.3365854 64.8078485,66.3642276 C69.2273607,62.2308943 72.5379298,56.9479675 74.4452469,51.2113821 C76.9802062,43.5105691 76.8761412,34.9089431 73.9216697,27.3414634 L73.9216697,27.3414634 Z"/>
<deepl-alert xmlns=""/><deepl-alert xmlns=""/><deepl-alert xmlns=""/><deepl-alert xmlns=""/></svg>