<svg xmlns="http://www.w3.org/2000/svg" width="80" height="80" viewBox="0 0 80 80"><path d="M40,4.97379915e-14 C48.4596651,4.97379915e-14 56.3040109,2.62812508 62.7661025,7.10964691 L62.7661025,7.10964691 L58.7036496,11.1724541 C53.3209348,7.67289248 46.8985184,5.63847782 40,5.63847782 C21.022521,5.63847782 5.63847782,21.022521 5.63847782,40 C5.63847782,58.9771248 21.022521,74.3615222 40,74.3615222 C58.9771248,74.3615222 74.3615222,58.9771248 74.3615222,40 C74.3615222,33.1184853 72.3373806,26.7102385 68.8537598,21.3360256 L68.8537598,21.3360256 L72.9172755,17.2725099 C77.3821479,23.7275167 80,31.5573386 80,40 C80,62.0912706 62.0912706,80 40,80 C17.9083752,80 0,62.0912706 0,40 C0,17.9083752 17.9083752,4.97379915e-14 40,4.97379915e-14 Z M29.2653896,35.8847649 C32.514856,35.8847649 34.2584376,37.5061328 34.2584376,39.5394848 C34.2584376,41.6015303 32.6151067,43.2430901 29.2841645,43.2430901 C25.9535765,43.2430901 24.291825,41.6015303 24.291825,39.5394848 C24.291825,37.5061328 26.0169859,35.8847649 29.2653896,35.8847649 Z M65.1150845,35.8847649 C68.3634882,35.8847649 70.107424,37.5061328 70.107424,39.5394848 C70.107424,41.6015303 68.4640931,43.2430901 65.1327967,43.2430901 C61.8022087,43.2430901 60.1408114,41.6015303 60.1408114,39.5394848 C60.1408114,37.5061328 61.8659724,35.8847649 65.1150845,35.8847649 Z M52.7683166,36.032484 L52.770442,37.1072558 L51.0725577,37.1079643 L53.4388976,41.4247633 L55.7754811,37.1072558 L54.3783487,37.1072558 L54.3783487,36.032484 L59.2134045,36.032484 L59.2134045,37.1079643 L57.6054978,37.1072558 L54.3996032,43.0383379 L50.6212528,43.0351497 L47.3583251,37.1079643 L45.7532524,37.1079643 L45.7543151,36.032484 L52.7683166,36.032484 Z M16.9090571,36.032484 L16.9097656,37.1072558 L15.2122355,37.1079643 L17.5792839,41.4247633 L19.9140962,37.1072558 L18.517318,37.1072558 L18.517318,36.032484 L23.3527281,36.032484 L23.3527281,37.1079643 L21.7455299,37.1072558 L18.5389268,43.0383379 L14.7609306,43.0351497 L11.4983572,37.1079643 L9.89257596,37.1079643 L9.89399293,36.032484 L16.9090571,36.032484 Z M36.2429041,36.032484 L42.7113721,36.033901 L42.7113721,37.1054846 L41.1009857,37.1054846 L41.1009857,41.9440828 L42.5955348,41.9440828 C43.9788517,41.9440828 44.8871295,41.0301372 44.8871295,39.78958 L44.8871295,39.78958 L45.9537536,39.78958 L45.9537536,43.0294818 L36.2429041,43.0301903 L36.2429041,41.9451455 L37.8752535,41.9451455 L37.8724196,37.1054846 L36.2439668,37.1054846 L36.2429041,36.032484 Z M29.3245481,36.989293 C28.2139979,36.9701639 27.5675053,38.1469575 27.5441253,39.4959129 C27.5221623,40.7988168 28.0439615,42.1098683 29.2299654,42.1318313 C30.450685,42.1537944 30.9767351,40.8285732 30.9990524,39.5571969 C31.0227866,38.207533 30.4361611,37.0091306 29.3245481,36.989293 Z M65.1749515,36.989293 C64.0629843,36.9701639 63.416846,38.1469575 63.3938202,39.4959129 C63.371503,40.7988168 63.8925937,42.1098683 65.0800145,42.1318313 C66.2996714,42.1537944 66.8253673,40.8285732 66.8487473,39.5571969 C66.8724816,38.207533 66.2851475,37.0091306 65.1749515,36.989293 Z M78.4268091,1.57283669 L78.4268091,19.8786719 L77.3321998,19.8776092 C76.0168974,17.4889521 74.466378,15.2030252 72.7196082,13.0846551 L72.7196082,13.0846551 L67.026577,18.7780405 C65.3364861,16.6302683 63.3938202,14.6904363 61.243214,13.0035336 L61.243214,13.0035336 L66.9426216,7.30448028 C64.8288566,5.55948174 62.5475349,4.01037931 60.1202653,2.69472267 L60.1202653,2.69472267 L60.1213281,1.57283669 L78.4268091,1.57283669 Z" fill="#AAA" fill-rule="evenodd"/><deepl-alert xmlns=""/><deepl-alert xmlns=""/><deepl-alert xmlns=""/><deepl-alert xmlns=""/></svg>