<svg xmlns="http://www.w3.org/2000/svg" width="120" height="120" viewBox="0 0 120 120" fill="none">
<g id="Brand/Citroën">
<path id="Vector" d="M59.0408 119.986C55.5748 119.87 52.1652 119.355 48.8471 118.366C42.4716 116.456 36.635 112.962 31.746 108.489C29.15 106.115 26.8217 103.487 24.7294 100.666C19.1923 93.2054 15.5361 84.4875 13.5882 75.4421C11.9115 67.6647 11.6262 59.6689 12.4329 51.7753C13.398 42.3635 16.3638 33.0011 21.1296 24.8256C22.9823 21.6414 25.1134 18.6192 27.5368 15.8436C32.0243 10.7009 37.4487 6.41422 43.6692 3.58224C46.8006 2.15568 50.1222 1.14124 53.5142 0.553005C59.4248 -0.468482 65.5748 -0.0598869 71.3092 1.66255C77.5966 3.55406 83.4015 7.00246 88.2377 11.4266C93.4402 16.1888 97.6988 21.9655 100.841 28.2811C101.739 30.0881 102.546 31.9338 103.289 33.8077C106.1 40.8771 107.769 49.1793 108.051 56.7841C108.262 62.5713 107.903 68.3727 106.79 74.0578C105.68 79.7253 103.902 85.2378 101.45 90.4685C97.6988 98.4783 92.2708 105.583 85.3036 111.039C81.4889 114.023 77.1141 116.446 72.5209 117.968C69.541 118.95 66.4836 119.539 63.3663 119.859C61.9327 120 60.4885 120.025 59.0479 119.986M60.0447 26.4072C74.1095 36.8933 88.1637 47.3934 102.236 57.876C102.408 58.0063 102.433 57.8619 102.412 57.6471C102.327 56.7312 102.303 55.8049 102.243 54.882C101.735 47.721 100.098 40.5706 97.2374 33.9803C96.0221 31.1765 94.6132 28.4361 92.9682 25.8612C91.2388 23.156 89.2698 20.6305 87.1141 18.2599C84.8985 15.826 82.3307 13.6773 79.6079 11.8351C77.3536 10.31 74.895 8.99964 72.3518 8.04508C70.0059 7.16449 67.5755 6.46706 65.0958 6.09721C63.7819 5.90348 62.2673 5.72736 60.9499 5.71327C57.9947 5.67805 55.0077 5.93166 52.1405 6.66431C46.7513 8.04156 41.7742 10.5812 37.4557 14.1036C33.9827 16.9355 30.9675 20.2888 28.3997 23.9627C24.4336 29.6301 21.6051 36.1078 19.865 42.7932C18.6428 47.4885 17.97 52.286 17.7375 57.1328C17.7234 57.4181 17.7375 57.7386 17.7516 58.0169L60.0482 26.4107L60.0447 26.4072ZM57.1458 114.153C59.0972 114.308 61.0591 114.325 63.0211 114.153C69.4882 113.536 75.6558 111.064 80.9041 107.228C86.6879 102.994 91.2423 97.404 94.7118 91.1588L60.0482 65.3787C59.2028 66.0127 58.3434 66.6397 57.4945 67.2702C47.6495 74.5967 37.8221 81.9514 27.9524 89.2462C27.0929 89.8802 26.2441 90.5284 25.3987 91.1765C28.4808 96.7348 32.4857 101.881 37.4557 105.882C41.665 109.271 46.5364 111.92 51.7953 113.241C53.56 113.684 55.3353 113.987 57.1493 114.156M98.9563 80.5319C99.0373 80.5918 99.1218 80.6552 99.2064 80.7186C99.7523 79.1722 100.15 77.559 100.513 75.9598C100.862 74.41 101.098 72.8461 101.344 71.2751L60.0412 40.5354C46.5435 50.6235 33.0352 60.6974 19.4882 70.715C19.2522 70.8912 19.0197 71.0743 18.7837 71.2504C19.1782 74.3607 19.8404 77.4674 20.8126 80.4544C20.8372 80.5389 20.9041 80.6129 20.9499 80.6904L60.0447 51.4794C73.0211 61.1553 86.0081 70.8207 98.9563 80.5319Z" fill="#AAAAAA"/>
</g>
<deepl-alert xmlns=""/><deepl-alert xmlns=""/><deepl-alert xmlns=""/><deepl-alert xmlns=""/></svg>