<svg xmlns="http://www.w3.org/2000/svg" width="80" height="80" viewBox="0 0 80 80"><path fill="#AAA" fill-rule="evenodd" d="M63.3043039,21.6921621 L50.3243721,28.0432917 L58.2355168,31.0825445 C59.8662123,31.6984728 61.7998233,32.501199 62.5167235,34.4247129 C63.228575,36.3532753 62.1683706,38.1455257 61.2192351,39.6601035 L56.882494,46.4252177 C51.7581724,54.4524801 46.6288022,62.4696453 41.4943834,70.4868106 C41.4943834,68.0079515 41.4943834,65.5290925 41.4943834,63.0502335 C43.458286,56.8556102 45.3717026,50.6559384 47.2295848,44.4613152 C47.7546384,42.6943077 48.2746434,40.9273003 48.7895999,39.1602928 C49.1026126,38.0950398 48.9057175,37.4538685 47.8758046,36.9490092 L39.9798056,33.0615928 L32.1191468,36.9439606 C31.0892339,37.4488199 30.8822416,38.0849426 31.2003029,39.1501956 C31.7152594,40.9222517 32.2352644,42.6943077 32.7653667,44.4562666 C34.6131516,50.6761328 36.5265682,56.870756 38.500568,63.0451849 C38.500568,65.5240439 38.500568,67.9978543 38.500568,70.4767134 C33.3611006,62.4645967 28.2266818,54.4474315 23.1124574,46.4201691 L18.7757163,39.6550549 C17.8215322,38.1606715 16.746182,36.393664 17.4782279,34.4196643 C18.2102739,32.4406159 20.1287391,31.6984728 21.7594346,31.0724473 L29.6705793,28.0382431 L16.6906475,21.6871135 L20.7396188,28.4724221 L14.0451849,31.0421557 C9.35504228,23.701502 4.67499684,16.3557996 0,9 C13.3232361,13.7204342 26.6414237,18.4863057 40,23.0502335 C53.3737221,18.4863057 66.6767639,13.7254828 80,9 C75.3351003,16.3457024 70.6500063,23.6863562 65.9598637,31.0169128 L59.2704784,28.4471791 L63.3144011,21.6618705"/><deepl-alert xmlns=""/><deepl-alert xmlns=""/><deepl-alert xmlns=""/><deepl-alert xmlns=""/></svg>