<svg xmlns="http://www.w3.org/2000/svg" xmlns:xlink="http://www.w3.org/1999/xlink" width="80px" height="80px" viewBox="0 0 80 80" version="1.1">
    <title>Component/Brand logo/Dacia</title>
    <g id="Component/Brand-logo/Dacia" stroke="none" stroke-width="1" fill="none" fill-rule="evenodd">
        <path d="M0.226693704,36.603598 C0.14974263,34.0371757 0.0769510737,31.5768211 0,29.060313 C0.355638746,29.060313 0.673841834,29.060313 0.992044923,29.060313 C10.9665679,29.0415952 20.9390111,29.0249571 30.913534,29 C31.2171788,29 31.4334737,29.0852701 31.6560079,29.2953257 C34.3784121,31.8867051 37.1091353,34.4676857 39.8398586,37.0507461 C39.9355275,37.1401757 40.0353559,37.2254458 40.1559819,37.3315135 C41.0315603,36.4746529 41.8925805,35.6323506 42.7536006,34.7879686 C44.6129049,32.9640202 46.4680497,31.1359122 48.3377528,29.3244424 C48.4812562,29.1850985 48.7245879,29.0769511 48.922165,29.0748713 C59.1649769,29.0623928 69.4077887,29.0644725 79.6485208,29.0644725 C79.7545885,29.0644725 79.8627359,29.0644725 80,29.0644725 C80,31.5456247 80,34.0059793 80,36.5162481 C70.8573805,36.5162481 61.7147611,36.5162481 52.5679821,36.5162481 C52.5679821,39.0265169 52.5679821,41.4889513 52.5679821,44.0616129 C61.7106016,44.0616129 70.8012271,44.0616129 79.9147299,44.0616129 C79.9147299,46.6384339 79.9147299,49.1029481 79.9147299,51.6215359 C79.7941039,51.6277752 79.6672386,51.638174 79.5403733,51.638174 C69.3121198,51.6132169 59.0838663,51.5903395 48.8556127,51.5529039 C48.6601154,51.5529039 48.4209432,51.4301981 48.2753601,51.2887745 C45.6694223,48.7701867 43.0759632,46.2370405 40.4804243,43.7101336 C40.3847554,43.6165445 40.2870067,43.5271149 40.1684605,43.4148079 C40.0436749,43.5271149 39.9251287,43.6311028 39.8086622,43.7392502 C37.1299329,46.2391203 34.4491239,48.7389903 31.7745542,51.2430198 C31.5561795,51.4468362 31.3378048,51.5425051 31.0300005,51.5445848 C23.2038684,51.577861 15.3798159,51.6215359 7.55368377,51.6652108 C5.29922529,51.6776894 3.04476681,51.6964072 0.788228565,51.7130453 C0.667602558,51.7130453 0.549056309,51.7130453 0.347319711,51.7130453 C0.347319711,49.2776478 0.347319711,46.8568086 0.347319711,44.3673374 C9.3672334,44.3070244 18.4433006,44.2487911 27.5318463,44.1884781 C27.5318463,41.6615713 27.5318463,39.1845786 27.5318463,36.6015182 C18.4162637,36.603598 9.33811678,36.603598 0.226693704,36.603598 Z" id="Path" fill="#AAAAAA"/>
    </g>
<deepl-alert xmlns=""/><deepl-alert xmlns=""/><deepl-alert xmlns=""/><deepl-alert xmlns=""/></svg>