<svg xmlns="http://www.w3.org/2000/svg" xmlns:xlink="http://www.w3.org/1999/xlink" width="80px" height="80px" viewBox="0 0 80 80" version="1.1">
    <title>Component/Brand logo/DS</title>
    <g id="Component/Brand-logo/DS" stroke="none" stroke-width="1" fill="none" fill-rule="evenodd">
        <path d="M45.6874849,73.7819888 C45.8365873,73.688769 45.9631986,73.6237617 46.0739773,73.5382362 C48.6646016,71.5375605 51.1829681,69.4531841 53.3848804,67.0191594 C54.420114,65.874824 55.4498235,64.7201308 56.4030336,63.5080754 C57.865007,61.649153 59.0172834,59.6064544 59.7478509,57.3423956 C60.1596459,56.0662699 60.4122273,54.7578873 60.3781947,53.4183327 C60.3364677,51.7782058 59.9621086,50.1971181 59.3579058,48.6709265 C58.5411716,46.6078083 57.397576,44.7320669 56.0791316,42.9580782 C55.2751719,41.8763333 54.4605093,40.8019867 53.4355348,39.9110712 C53.0981677,39.6178479 52.7317988,39.3946135 52.2496203,39.3801619 C52.2531222,39.4591769 52.2393612,39.5146649 52.2600767,39.5499306 C52.3430868,39.6911414 52.4311278,39.8302807 52.5275043,39.9627614 C54.5303995,42.7157559 56.1578506,45.67413 57.3644312,48.8586486 C58.6823824,52.3371797 58.5633175,55.7770911 57.0224278,59.1615145 C55.9317061,61.5572649 54.4383634,63.6969319 52.7879773,65.7332186 C50.9009411,68.0614462 48.8146412,70.2001268 46.6051826,72.2212714 C46.3507269,72.4540744 46.0947915,72.6866308 45.8572042,72.9361543 C45.6477801,73.1561827 45.5317238,73.413943 45.6874849,73.7819888 M67.2196938,5.44428634 C67.0191971,5.58386951 66.8689109,5.67659614 66.7317939,5.78584587 C65.7422824,6.57407156 64.7366423,7.34350531 63.772236,8.1615219 C62.495124,9.24479584 61.2176666,10.3318183 60.0027505,11.4831082 C59.0027332,12.4307941 58.0763547,13.4586294 57.147954,14.4788689 C55.3700195,16.4327868 53.8199557,18.5482857 52.7128589,20.9624827 C51.881032,22.7764228 51.3702463,24.6669116 51.4063999,26.6797701 C51.4426027,28.6902117 52.0251528,30.5623032 52.8694584,32.3646524 C53.9580099,34.688441 55.4038055,36.7805609 57.0754003,38.7151443 C57.6638692,39.3961918 58.3393432,40.0031567 58.9885776,40.6299492 C59.20905,40.8427272 59.4791903,40.9850232 59.896756,40.8985605 C59.7144101,40.6223042 59.5736925,40.3884161 59.4130979,40.1690781 C57.362409,37.3680927 55.7189281,34.3460923 54.4819153,31.1025344 C53.9075528,29.5965652 53.6132937,28.0332336 53.6224184,26.4266954 C53.6322336,24.6842732 53.9936702,23.0034057 54.6683057,21.3915407 C55.6350302,19.0818091 57.0129578,17.0251028 58.5501483,15.0675844 C60.6770901,12.3589803 63.1009051,9.93018375 65.6271139,7.59939136 C66.0616467,7.19849664 66.5052055,6.80736782 66.9388998,6.40548665 C67.1890151,6.17376872 67.3646531,5.9083634 67.2196938,5.44428634 M9.53682381,2.66761695 C9.34239382,2.97825117 9.38683355,3.21791005 9.57065917,3.43537373 C9.68656746,3.57249077 9.82526282,3.69135842 9.95971644,3.81170575 C12.0400976,5.67472188 14.1543141,7.50148585 16.1932642,9.40869509 C18.2343846,11.3179266 20.1379933,13.3649656 21.8541758,15.5776302 C23.258639,17.3884629 24.5184881,19.2877312 25.4093543,21.4130454 C26.6469096,24.3653528 26.8584545,27.3505585 25.7774494,30.4030402 C25.1241706,32.2477083 24.1897031,33.9373553 23.0885251,35.5422658 C21.3990261,38.0047498 19.4023949,40.2085363 17.2992266,42.315601 C15.4185036,44.1998752 13.4379516,45.9788948 11.4193224,47.7148557 C10.8338129,48.2183416 10.250079,48.7240963 9.67699886,49.2415405 C9.3608405,49.5270695 9.34185127,49.7501067 9.57958657,50.1127763 C9.7636588,49.9784213 9.95256465,49.8526485 10.1281534,49.7104019 C11.9160511,48.2625347 13.7066122,46.8178242 15.4871115,45.3608324 C18.5074349,42.8892731 21.31646,40.1957124 23.8677247,37.2420239 C25.4960142,35.3569112 26.9233632,33.3303904 27.8992616,31.0181927 C28.5514061,29.4730612 28.9558027,27.8718498 28.9199451,26.1825975 C28.8932122,24.9223045 28.6232692,23.7059579 28.1932741,22.5242853 C27.4491429,20.4794657 26.3106769,18.6589164 24.9930709,16.943819 C22.831406,14.1302069 20.3339029,11.627525 17.6663353,9.3082248 C15.1500896,7.12041885 12.5250382,5.05784317 9.94595541,2.9424429 C9.82590402,2.84394552 9.68750459,2.76793927 9.53682381,2.66761695 M8.18878574,0.0413817255 C8.34257385,0.153294878 8.50099828,0.259387955 8.64950886,0.377861023 C12.0039441,3.05351757 15.3569489,5.73090041 18.7108909,8.40714883 C24.6219671,13.1239257 30.5334378,17.8402586 36.4450072,22.5563943 C37.2032447,23.1612876 37.9599532,23.7681538 38.7236162,24.366142 C39.1541045,24.7032624 39.5562323,25.061493 39.8213417,25.5508233 C39.8492583,25.6022175 39.9099745,25.6358063 39.977152,25.6975583 C40.0531089,25.6057195 40.1097314,25.5297625 40.1739495,25.4608588 C40.4860634,25.1258591 40.7648351,24.7486393 41.1187253,24.4655765 C48.4621813,18.5916896 55.8140715,12.7284071 63.1645806,6.86334906 C65.8759961,4.69985918 68.5879542,2.53691186 71.3007014,0.375098954 C71.4500997,0.256034013 71.6093627,0.149250419 71.8145943,0 C71.8633251,0.172974626 71.9226603,0.277242764 71.9160017,0.377121183 C71.8737815,1.01530729 71.8433494,1.6561075 71.7574293,2.28901609 C71.6754057,2.89287361 71.3607271,3.39823375 70.9386236,3.83301315 C70.3432496,4.44643927 69.744275,5.05636349 69.1471253,5.66806332 C67.7922314,7.05595411 66.4278182,8.43467088 65.085107,9.83425115 C63.3216734,11.6724086 61.5555763,13.5087412 59.989532,15.5249043 C58.6138239,17.2959829 57.3536295,19.1388261 56.4432809,21.1984917 C55.5584814,23.2002525 55.0976103,25.2860592 55.2879465,27.4855053 C55.4580604,29.4509153 55.9587349,31.3345976 56.7241735,33.1510038 C57.4480331,34.8687647 58.3507861,36.4903956 59.3562288,38.0558481 C61.2176666,40.9541472 63.3600957,43.6358704 65.6374717,46.215693 C67.3903996,48.2013253 69.2277679,50.1055259 71.1320671,51.9432888 C72.1938857,52.9681154 72.3426922,54.2798026 70.9514968,55.3946431 C68.6679555,57.2246623 66.3819975,59.0516236 64.0951023,60.8774011 C60.8960335,63.4314279 57.6950411,65.9830379 54.4950845,68.5359797 C49.8429697,72.2474124 45.1912001,75.9592891 40.5382468,79.6695874 C40.4032999,79.7772095 40.2563184,79.8697388 40.0713583,80 C40.0268693,79.8573588 39.9808512,79.7829309 39.9850436,79.711413 C40.0222823,79.0724871 40.0392986,78.4303551 40.1197439,77.7965094 C40.2054667,77.1208874 40.5674458,76.567191 41.0358633,76.0855058 C42.3538145,74.7303653 43.6797067,73.3827711 44.9937121,72.0238327 C47.0840071,69.8618718 49.2284091,67.7499242 51.139071,65.4208087 C52.6123393,63.6249208 53.9785281,61.7563805 55.0312713,59.6750622 C56.0789343,57.6038551 56.7315719,55.4321776 56.6369217,53.0883147 C56.5579561,51.1328679 56.1043355,49.2522436 55.3997117,47.4287842 C54.673386,45.5491463 53.7077466,43.7943935 52.6309339,42.098088 C50.6958081,39.0496507 48.4630691,36.2273085 46.0362948,33.5611219 C44.4991043,31.8723135 42.8981889,30.2415085 41.3244502,28.5860422 C40.8750713,28.1132843 40.4208588,27.6451628 39.9417383,27.1466585 C39.9777932,27.1400986 39.9295556,27.1350184 39.9184087,27.1529718 C39.4939871,27.8386063 38.8690688,28.320045 38.2514502,28.8125319 C34.1768546,32.0617125 30.1061555,35.3157761 26.0326449,38.5663871 C20.2630262,43.170511 14.4922238,47.7731058 8.72127336,52.375602 C8.55791665,52.5059126 8.38760545,52.6275423 8.169106,52.7918361 C8.11164508,52.6311428 8.05615707,52.5354568 8.04624321,52.4353318 C8.02858569,52.2560439 8.03701987,52.0740432 8.03697055,51.8932263 C8.03677325,34.8905653 8.03667461,17.8879044 8.037957,0.885194072 C8.037957,0.627187152 8.05531858,0.369229555 8.06454192,0.111222635 C8.10592365,0.0879423319 8.1473547,0.0646620287 8.18878574,0.0413817255" id="Fill-1" fill="#AAAAAA"/>
    </g>
<deepl-alert xmlns=""/><deepl-alert xmlns=""/><deepl-alert xmlns=""/><deepl-alert xmlns=""/></svg>