<svg xmlns="http://www.w3.org/2000/svg" width="80" height="80" viewBox="0 0 80 80">
  <path fill="#AAA" fill-rule="evenodd" d="M19.80182,24.5904954 L29.4223121,24.5904954 L29.4223121,28.1415571 L23.1183013,28.1496461 L23.1290866,37.7377823 L28.0768453,37.7431749 L28.0930233,41.3427705 L23.1317829,41.3346815 L23.115605,56.7226154 L19.80182,56.7226154 L19.80182,24.5904954 Z M30.9214695,56.7199191 L34.2244692,56.7199191 L34.2244692,24.4934277 L30.9214695,24.4934277 L30.9214695,56.7199191 Z M49.1270644,56.6228514 L45.8213684,56.6228514 L45.7971014,41.3077182 L41.2322211,41.3077182 L41.1594203,56.628244 L38.1718908,56.6228514 L38.1718908,24.4934277 L45.983148,24.4934277 L49.1270644,30.8540613 L49.1270644,56.6228514 Z M45.8213684,37.0313448 L41.2457027,37.0313448 L41.2457027,28.0417931 L44.0795416,28.0390967 L45.8213684,32.248062 L45.8213684,37.0313448 Z M49.8658578,24.5904954 L60.0040445,24.5904954 L59.9716886,28.19818 L56.6498146,28.1873947 L56.6147624,56.6228514 L53.3009774,56.6228514 L53.1553758,28.2089653 L49.8577688,28.1873947 L49.8658578,24.5904954 Z M39.991911,79.4903943 C17.908999,79.4903943 0,61.6919447 0,39.7465453 C0,17.8011459 17.908999,0 39.991911,0 C62.0936973,0 80,17.8011459 80,39.7465453 C80,61.6919447 62.0936973,79.4903943 39.991911,79.4903943 L39.991911,79.4903943 Z M6.57903606,23.7384564 C7.47960903,18.1516684 11.0522413,14.0397708 16.7873273,10.7205932 C29.3036737,2.45904954 49.1648129,2.33501854 63.4634311,11.0117964 C68.6215032,13.70273 71.5955511,17.8146276 72.9922481,23.1452646 C75.8719245,38.2986181 73.3643411,51.5402764 66.9821368,62.9888777 C60.0148298,78.9376475 23.1425683,79.2072801 14.479272,64.8493428 C7.15335356,54.9079879 3.57263229,38.3255814 6.57903606,23.7384564 L6.57903606,23.7384564 Z M60.5945399,65.3373778 C52.3383889,73.7067745 24.9113583,71.9137176 19.8719245,65.3373778 C13.7216043,51.80182 11.5025278,37.9400067 12.2601955,23.8328278 C12.0390967,19.1412201 13.578699,15.9784294 16.876306,14.347152 C28.3303,9.20525784 51.2301989,8.636333 61.8564206,14.1422312 C66.2433434,15.8355241 67.8503539,20.057971 67.6670037,26.2136839 C68.0175261,41.652848 64.8574317,54.4145602 60.5945399,65.3373778 L60.5945399,65.3373778 Z"/>
<deepl-alert xmlns=""/><deepl-alert xmlns=""/><deepl-alert xmlns=""/><deepl-alert xmlns=""/></svg>