<svg xmlns="http://www.w3.org/2000/svg" xmlns:xlink="http://www.w3.org/1999/xlink" width="80px" height="80px" viewBox="0 0 80 80" version="1.1">
    <title>Component/Brand logo/Ford</title>
    <g id="Component/Brand-logo/Ford" stroke="none" stroke-width="1" fill="none" fill-rule="evenodd">
        <path d="M40.0128283,25.4899844 C62.0959345,25.4899844 80,32.2753131 80,40.633822 C80,48.9927586 62.0959345,55.752003 40.0128283,55.752003 C17.9036379,55.752003 0,48.9927586 0,40.633822 C0,32.2753131 17.9036379,25.4899844 40.0128283,25.4899844 Z M40.0128283,27.012279 C18.806752,27.012279 1.57360786,33.1266863 1.57360786,40.633822 C1.57360786,48.167042 18.806752,54.2040518 40.0128283,54.2040518 C61.2706456,54.2040518 78.4781331,48.167042 78.4781331,40.633822 C78.4781331,33.1266863 61.2706456,27.012279 40.0128283,27.012279 Z M40.0128283,28.1471581 C60.5740675,28.1471581 77.2654287,33.7458668 77.2654287,40.633822 C77.2654287,47.5478616 60.5740675,53.1461426 40.0128283,53.1461426 C19.4259325,53.1461426 2.78588457,47.5478616 2.78588457,40.633822 C2.78588457,33.7458668 19.4259325,28.1471581 40.0128283,28.1471581 Z M31.2155907,30.5982234 C24.7920208,30.5982234 22.1861604,33.1779996 22.1605037,35.7321191 C22.1348471,37.0996185 23.1405878,38.4927746 24.6372257,38.4927746 C27.320056,38.4927746 28.8680072,35.7064624 28.9971457,34.7002941 C28.9971457,34.7002941 29.048459,34.5198424 28.8936639,34.3907039 C28.8166939,34.338963 28.6101579,34.3650472 28.5327603,34.545499 C28.1714292,35.3968722 26.7269598,36.3773838 25.6947072,36.5578356 C24.7402799,36.7382874 24.0954427,36.2225887 24.0437018,35.4225288 C23.9406476,33.4619332 26.1590926,31.3204581 31.1381931,31.3204581 C32.5574335,31.3204581 34.363234,31.7074459 36.3499139,32.1718313 L36.374891,32.1774027 L36.374891,32.1774027 L36.4021076,32.1828757 L36.3267203,32.2033882 C35.4410721,32.4857108 32.7189552,34.6313938 30.5707536,37.9249074 C29.9772297,38.0027326 27.5009354,38.208841 26.6756465,39.1376117 C26.5978213,39.2406659 26.5204238,39.4215453 26.5204238,39.4732862 C26.5721647,39.6793946 26.7269598,39.7824489 26.9587249,39.6019971 C27.4748511,39.0089009 29.5645853,38.7762806 30.0546273,38.7506239 C27.0104658,43.0331464 24.1984969,45.8455428 21.6961184,45.8455428 C21.438269,45.8455428 21.1799921,45.8711995 20.8964861,45.7938019 C19.8903178,45.5616092 19.296794,44.5037 19.296794,43.5492727 C19.296794,42.2852551 20.5094983,40.9177556 21.2060763,40.6599063 C21.438269,40.5564245 21.5413232,40.4277136 21.5413232,40.3242318 C21.5413232,40.1694367 21.438269,40.0663825 21.1543354,40.0663825 C18.7550111,40.6599063 17.4653368,42.6205019 17.4909934,44.2201941 C17.5427344,46.8512835 19.5289867,48.3218372 21.7735159,48.3218372 C24.9207316,48.3218372 26.5204238,46.9547653 31.6543194,38.6475697 C33.6927402,38.4410337 34.6989085,38.3123228 35.7303058,38.1314434 C35.7303058,38.1314434 36.0398961,38.8797624 36.8138717,38.8797624 C36.9430102,38.905419 36.9169259,38.7762806 36.9943235,38.4927746 C36.6590766,38.4666903 36.2720888,38.2344977 36.2720888,37.9509917 C36.581679,37.7961965 36.8395283,37.6153172 37.071721,37.4348654 C37.4073955,37.1252752 37.7426424,36.480438 37.7426424,36.0417093 C37.7426424,35.6290649 37.4334798,35.2420771 36.9686668,35.1646795 C36.1429503,35.035541 35.4981132,35.7064624 35.4207156,36.8156849 C35.4207156,36.9734258 35.4525225,37.1470041 35.4807952,37.2701373 L35.5107643,37.3894413 C35.5186807,37.41831 35.5237698,37.4348654 35.5237698,37.4348654 C35.5237698,37.4348654 34.1412038,37.6718954 32.7585559,37.7830033 L32.3647057,37.8110084 C32.2994617,37.8150003 32.234516,37.8186283 32.1700181,37.8218532 C34.0793004,34.5972399 35.8337877,33.4619332 36.3499139,32.9975478 L36.4022944,32.9530127 C36.5215866,32.8437737 36.7144827,32.6288862 36.7364741,32.5849033 C36.7955481,32.4368507 36.7444616,32.3228016 36.6685242,32.2516221 C38.6142442,32.7793835 42.3626895,34.4163605 45.9720129,34.4163605 C48.4230782,34.4163605 51.3124445,32.8427527 51.3124445,32.0170362 C51.3124445,31.8109277 51.3124445,31.6043917 50.7963183,31.6043917 C50.526109,31.6043917 50.4547726,31.6161243 50.3009754,31.6534878 L50.1965511,31.6790927 C50.0183196,31.7224472 49.7277188,31.7888142 49.1196562,31.8883253 C47.778241,32.0944337 46.126808,32.0431204 44.8371337,32.0431204 C41.3285869,31.9913795 37.0204077,31.2691448 35.2920047,30.9595546 C33.7953668,30.7012776 32.428295,30.5982234 31.2155907,30.5982234 Z M62.5603199,35.9129984 L60.5223266,35.9129984 L57.1942315,41.5369361 C56.9363822,41.0208098 56.5493944,39.8085331 55.0275274,39.7824489 C52.4990646,39.7567922 51.518553,41.4851952 49.7649209,43.1366282 C49.2487947,43.6010136 48.6296142,44.2201941 47.2103738,44.2201941 C46.3850849,44.2201941 45.7402478,43.5492727 45.8950429,42.6978995 C45.9985247,42.0269781 46.2302898,41.6917312 46.7203318,41.5112795 C46.9525245,42.1817732 47.3912532,42.5431044 48.1395722,42.5431044 C48.9905177,42.5174477 49.4809874,41.7434721 49.506644,41.0725507 C49.506644,40.5051112 49.1453129,39.7824489 48.1134879,39.7311356 C47.1590605,39.6793946 46.4363982,40.1181234 45.4045733,41.3047434 C45.4045733,41.3047434 45.4122383,41.2525886 45.4150102,41.1665286 L45.4151842,41.0481501 C45.401947,40.5850404 45.2137881,39.6526123 43.920313,39.6029417 L43.7279112,39.6019971 C43.5213752,39.6019971 43.3152668,39.6019971 43.1087307,39.7050513 C42.0508215,40.0407258 40.6837497,41.7434721 39.6001839,43.0592307 C39.6514972,42.8009537 39.6514972,42.5431044 39.6514972,42.2852551 C39.6514972,41.5369361 39.3679912,40.5564245 38.8518649,40.0407258 C38.7488107,39.937244 38.6453289,39.937244 38.5422747,39.937244 C38.2070278,39.937244 37.9235218,40.2211776 37.9235218,40.6599063 C38.1809435,40.9177556 38.5170456,41.5625928 38.5170456,42.1817732 C38.5170456,42.8009537 38.3357386,43.9362605 38.0778893,44.3749892 C37.0978053,46.0516513 35.8594443,47.1352171 34.363234,46.9030244 C33.5631742,46.7225727 33.0213912,45.948597 33.1761864,44.7876336 C33.2535839,44.1167122 33.666656,43.1879415 34.0536438,42.6205019 C34.6989085,41.7434721 35.7559625,40.8403581 37.3039137,40.6081654 C37.3039137,40.6081654 37.3813113,40.2985751 37.1752028,40.14378 C37.0978053,40.0146415 36.9943235,39.8598464 36.6334199,39.8598464 C34.440204,39.937244 33.0992164,41.5112795 32.3248132,43.0592307 C32.0417348,43.6010136 31.6282351,44.3749892 31.3964701,44.8650312 L31.388078,44.8854814 C31.34134,44.9930399 31.0838866,45.5127191 30.2355067,46.1547055 C29.745037,46.5416933 29.5902419,46.6708317 29.5128444,46.6451751 C29.5389286,46.8256269 29.6676395,47.0834762 29.9002598,47.2900122 C29.9772297,47.3417531 30.2355067,47.186958 30.3385609,47.1352171 C31.3657928,46.5451745 31.61525,46.2143902 31.6675266,46.1270108 L31.6751594,46.1134757 L31.6799761,46.1033922 C31.9378254,47.5478616 33.1761864,48.2961805 34.5436858,48.2961805 C36.4268839,48.2961805 38.1552869,46.5934342 39.1614552,45.0972239 C40.2193644,43.5231884 41.6638337,41.9756648 41.6638337,41.9756648 C42.2317009,41.4338819 42.8247972,41.0725507 43.1861283,41.0725507 C43.5213752,41.0982074 43.7535679,41.382141 43.6761703,41.6917312 C43.5631742,42.1657913 43.4108912,42.620208 43.1325224,43.1583954 L43.0052489,43.3944776 L40.1932801,48.167042 L42.3860684,48.167042 C43.6505137,45.7938019 43.701827,45.7164044 44.9406155,43.4462185 C45.2758624,44.7102361 45.9463562,45.2002781 47.0299221,45.2263624 C47.9586928,45.252019 48.6035299,45.2002781 49.300108,44.8389469 C49.1196562,45.5616092 49.223138,46.2838439 49.4549031,46.773886 C49.7127524,47.3674098 50.2288787,48.1157287 51.4928963,48.1413854 C53.0151909,48.1413854 54.5114012,47.4708916 54.9501299,47.0834762 C55.0788407,47.8317951 55.4401719,48.218783 56.3945993,48.218783 C58.3295383,48.167042 60.0322846,46.1807897 61.0641096,44.8906879 C61.2445613,44.6584952 61.476754,44.2715074 61.476754,44.1684532 C61.476754,44.013658 61.2706456,43.9106038 61.1675914,43.9106038 C61.0641096,43.9106038 60.8836578,44.1423689 60.780176,44.2715074 C60.2901339,44.7876336 58.2521407,46.9030244 57.1429182,46.9547653 C57.3751109,46.9547653 56.756358,47.0834762 56.7041895,46.5934342 C56.6817399,46.3225427 56.8763496,45.9923938 56.9943911,45.7760126 L57.0394364,45.6907477 L62.5603199,35.9129984 Z M54.978352,40.9860096 L55.1310093,40.9951532 C56.1936044,41.1189109 56.3325244,42.1188246 55.86579,43.0878772 L55.8015031,43.2140258 L56.085009,43.2914233 L56.065674,43.3234415 C55.9322881,43.5428779 55.1294847,44.8404715 54.3052928,45.6646635 C52.7056006,47.2900122 51.6733481,46.7482293 51.441583,46.5677775 C51.2093903,46.3868982 51.028511,45.742061 51.1319928,45.0972239 C51.2093903,44.4519591 51.6994323,43.3688209 52.1638177,42.8009537 C52.9893917,41.7921723 53.9778168,41.0685491 54.8218607,40.9925764 L54.978352,40.9860096 Z M37.1491186,36.0417093 C37.2008595,36.3512995 36.9430102,36.8156849 36.788215,36.97048 C36.4979742,37.2995266 36.2801332,37.3673563 36.1893528,37.3807058 L36.1638735,37.3834214 L36.1429503,37.3835521 C36.0655527,37.0739619 36.0142394,36.7900283 36.1429503,36.3773838 C36.2464321,35.9899684 36.4786248,35.8095166 36.8660402,35.7321191 C37.0460644,35.7064624 37.1234619,35.8869142 37.1491186,36.0417093 Z" id="Combined-Shape" fill="#AAAAAA"/>
    </g>
<deepl-alert xmlns=""/><deepl-alert xmlns=""/><deepl-alert xmlns=""/><deepl-alert xmlns=""/></svg>